<svg width="30" height="30" viewBox="0 0 30 30" fill="none" xmlns="http://www.w3.org/2000/svg">
<circle cx="15" cy="15" r="15" fill="#E9EFFF"/>
<path d="M11 14.25C10.5858 14.25 10.25 14.5858 10.25 15C10.25 15.4142 10.5858 15.75 11 15.75V14.25ZM19 15.75C19.4142 15.75 19.75 15.4142 19.75 15C19.75 14.5858 19.4142 14.25 19 14.25V15.75ZM11 15.75H19V14.25H11V15.75Z" fill="black"/>
<path d="M15.75 11C15.75 10.5858 15.4142 10.25 15 10.25C14.5858 10.25 14.25 10.5858 14.25 11L15.75 11ZM14.25 19C14.25 19.4142 14.5858 19.75 15 19.75C15.4142 19.75 15.75 19.4142 15.75 19H14.25ZM14.25 11L14.25 19H15.75L15.75 11L14.25 11Z" fill="#23408F"/>
</svg>
