<svg width="20" height="20" viewBox="0 0 20 20" fill="none" xmlns="http://www.w3.org/2000/svg">
<path d="M14.5 12L15.0303 12.5303C15.171 12.3897 15.25 12.1989 15.25 12C15.25 11.8011 15.171 11.6103 15.0303 11.4697L14.5 12ZM10.0303 6.46967C9.73744 6.17678 9.26256 6.17678 8.96967 6.46967C8.67678 6.76256 8.67678 7.23744 8.96967 7.53033L10.0303 6.46967ZM8.96967 16.4697C8.67678 16.7626 8.67678 17.2374 8.96967 17.5303C9.26256 17.8232 9.73744 17.8232 10.0303 17.5303L8.96967 16.4697ZM15.0303 11.4697L10.0303 6.46967L8.96967 7.53033L13.9697 12.5303L15.0303 11.4697ZM13.9697 11.4697L11.4697 13.9697L12.5303 15.0303L15.0303 12.5303L13.9697 11.4697ZM11.4697 13.9697L8.96967 16.4697L10.0303 17.5303L12.5303 15.0303L11.4697 13.9697Z" fill="#23408F"/>
<path d="M14.5 12L15.0303 12.5303C15.171 12.3897 15.25 12.1989 15.25 12C15.25 11.8011 15.171 11.6103 15.0303 11.4697L14.5 12ZM10.0303 6.46967C9.73744 6.17678 9.26256 6.17678 8.96967 6.46967C8.67678 6.76256 8.67678 7.23744 8.96967 7.53033L10.0303 6.46967ZM11.4697 13.9697C11.1768 14.2626 11.1768 14.7374 11.4697 15.0303C11.7626 15.3232 12.2374 15.3232 12.5303 15.0303L11.4697 13.9697ZM15.0303 11.4697L10.0303 6.46967L8.96967 7.53033L13.9697 12.5303L15.0303 11.4697ZM13.9697 11.4697L11.4697 13.9697L12.5303 15.0303L15.0303 12.5303L13.9697 11.4697Z" fill="black"/>
</svg>
