<svg width="24" height="24" viewBox="0 0 24 24" fill="none" xmlns="http://www.w3.org/2000/svg">
<path d="M15.5 12L8.5 12M8.5 12L11 14.5M8.5 12L11 9.5" stroke="#23408F" stroke-width="1.5" stroke-linecap="round" stroke-linejoin="round"/>
<path d="M15.0496 20.6471L14.8783 19.9169L15.0496 20.6471ZM8.95043 20.6471L8.77915 21.3773L8.95043 20.6471ZM8.95043 3.35287L8.77916 2.62269L8.95043 3.35287ZM15.0496 3.35287L14.8783 4.08305L15.0496 3.35287ZM20.6471 8.95043L19.9169 9.12171L20.6471 8.95043ZM20.6471 15.0496L19.9169 14.8783L20.6471 15.0496ZM3.35288 15.0496L2.62269 15.2208L3.35288 15.0496ZM3.35288 8.95043L2.6227 8.77915L3.35288 8.95043ZM14.8783 19.9169C12.9851 20.361 11.0149 20.361 9.12171 19.9169L8.77915 21.3773C10.8976 21.8742 13.1024 21.8742 15.2209 21.3773L14.8783 19.9169ZM9.12171 4.08305C11.0149 3.63898 12.9851 3.63898 14.8783 4.08305L15.2208 2.62269C13.1024 2.12577 10.8976 2.12577 8.77916 2.62269L9.12171 4.08305ZM19.9169 9.12171C20.361 11.0149 20.361 12.9851 19.9169 14.8783L21.3773 15.2208C21.8742 13.1024 21.8742 10.8976 21.3773 8.77916L19.9169 9.12171ZM4.08306 14.8783C3.63898 12.9851 3.63898 11.0149 4.08306 9.12171L2.6227 8.77915C2.12577 10.8976 2.12577 13.1024 2.62269 15.2208L4.08306 14.8783ZM19.9169 14.8783C19.3305 17.3784 17.3784 19.3305 14.8783 19.9169L15.2209 21.3773C18.2756 20.6608 20.6608 18.2756 21.3773 15.2208L19.9169 14.8783ZM21.3773 8.77916C20.6608 5.72441 18.2756 3.33924 15.2208 2.62269L14.8783 4.08305C17.3784 4.6695 19.3305 6.6216 19.9169 9.12171L21.3773 8.77916ZM4.08306 9.12171C4.6695 6.6216 6.62161 4.6695 9.12171 4.08305L8.77916 2.62269C5.72441 3.33924 3.33924 5.72441 2.6227 8.77915L4.08306 9.12171ZM2.62269 15.2208C3.33924 18.2756 5.72441 20.6608 8.77915 21.3773L9.12171 19.9169C6.6216 19.3305 4.6695 17.3784 4.08306 14.8783L2.62269 15.2208Z" fill="#23408F"/>
<path d="M15.0496 20.6471L15.2209 21.3773L15.0496 20.6471ZM9.12171 19.9169C8.71844 19.8223 8.31484 20.0726 8.22025 20.4758C8.12565 20.8791 8.37588 21.2827 8.77915 21.3773L9.12171 19.9169ZM8.95043 3.35287L8.77916 2.62269L8.95043 3.35287ZM15.0496 3.35287L14.8783 4.08305L15.0496 3.35287ZM20.6471 8.95043L19.9169 9.12171L20.6471 8.95043ZM20.6471 15.0496L21.3773 15.2208L20.6471 15.0496ZM2.6227 8.77915C2.5281 9.18242 2.77833 9.58602 3.1816 9.68061C3.58487 9.7752 3.98846 9.52497 4.08306 9.12171L2.6227 8.77915ZM14.8783 19.9169C12.9851 20.361 11.0149 20.361 9.12171 19.9169L8.77915 21.3773C10.8976 21.8742 13.1024 21.8742 15.2209 21.3773L14.8783 19.9169ZM9.12171 4.08305C11.0149 3.63898 12.9851 3.63898 14.8783 4.08305L15.2208 2.62269C13.1024 2.12577 10.8976 2.12577 8.77916 2.62269L9.12171 4.08305ZM19.9169 9.12171C20.361 11.0149 20.361 12.9851 19.9169 14.8783L21.3773 15.2208C21.8742 13.1024 21.8742 10.8976 21.3773 8.77915L19.9169 9.12171ZM19.9169 14.8783C19.3305 17.3784 17.3784 19.3305 14.8783 19.9169L15.2209 21.3773C18.2756 20.6608 20.6608 18.2756 21.3773 15.2208L19.9169 14.8783ZM21.3773 8.77915C20.6608 5.72441 18.2756 3.33924 15.2208 2.62269L14.8783 4.08305C17.3784 4.6695 19.3305 6.6216 19.9169 9.12171L21.3773 8.77915ZM4.08306 9.12171C4.6695 6.6216 6.6216 4.6695 9.12171 4.08305L8.77916 2.62269C5.72441 3.33924 3.33924 5.72441 2.6227 8.77915L4.08306 9.12171Z" fill="black"/>
</svg>
