<svg width="24" height="24" viewBox="0 0 24 24" fill="none" xmlns="http://www.w3.org/2000/svg">
<path d="M15.1653 20.8835L15.0352 21.6221L15.1653 20.8835ZM17.8347 20.8835L17.7045 20.1449L17.8347 20.8835ZM20.8694 18.1565L20.1535 17.933V17.933L20.8694 18.1565ZM21 17.3034H20.25H21ZM12 17.3034H11.25H12ZM12.1306 18.1565L11.4147 18.3801L11.4147 18.3801L12.1306 18.1565ZM18.4589 15V15.75H18.4589L18.4589 15ZM20.786 18.4236L21.5019 18.6471V18.6471L20.786 18.4236ZM12.214 18.4236L12.9299 18.2L12.9299 18.2L12.214 18.4236ZM14.5411 15L14.5411 15.75H14.5411V15ZM3.1165 6.16532L2.37788 6.03516L3.1165 6.16532ZM5.84345 11.8694L6.06699 11.1535H6.06699L5.84345 11.8694ZM6.69661 12L6.69661 11.25L6.69661 12ZM6.69661 3L6.69661 2.25L6.69661 3ZM5.84345 3.13063L5.61991 2.41472L5.61991 2.41472L5.84345 3.13063ZM9 9.45894H8.25V9.45894L9 9.45894ZM5.57641 11.786L5.35287 12.5019H5.35287L5.57641 11.786ZM5.57641 3.21402L5.79995 3.92993L5.79996 3.92993L5.57641 3.21402ZM9 5.54106L8.25 5.54106V5.54106L9 5.54106ZM11.4147 18.3801L11.4981 18.6471L12.9299 18.2L12.8465 17.933L11.4147 18.3801ZM21.5019 18.6471L21.5853 18.3801L20.1535 17.933L20.0701 18.2001L21.5019 18.6471ZM15.0352 21.6221C16.0028 21.7926 16.9972 21.7926 17.9648 21.6221L17.7045 20.1449C16.9091 20.285 16.0909 20.285 15.2955 20.1449L15.0352 21.6221ZM21.5853 18.3801C21.6944 18.0307 21.75 17.6683 21.75 17.3034H20.25C20.25 17.5155 20.2177 17.7272 20.1535 17.933L21.5853 18.3801ZM11.25 17.3034C11.25 17.6683 11.3056 18.0307 11.4147 18.3801L12.8465 17.933C12.7823 17.7272 12.75 17.5155 12.75 17.3034H11.25ZM21.75 17.3034C21.75 15.5494 20.2055 14.25 18.4589 14.25L18.4589 15.75C19.5191 15.75 20.25 16.5131 20.25 17.3034H21.75ZM20.0701 18.2001C19.7696 19.1624 18.8764 19.9384 17.7045 20.1449L17.9648 21.6221C19.6268 21.3293 21.0162 20.2027 21.5019 18.6471L20.0701 18.2001ZM11.4981 18.6471C11.9838 20.2027 13.3732 21.3293 15.0352 21.6221L15.2955 20.1449C14.1236 19.9384 13.2304 19.1624 12.9299 18.2L11.4981 18.6471ZM12.75 17.3034C12.75 16.5131 13.4809 15.75 14.5411 15.75L14.5411 14.25C12.7945 14.25 11.25 15.5494 11.25 17.3034H12.75ZM18.4589 14.25H14.5411V15.75H18.4589V14.25ZM5.61991 2.41472L5.35286 2.49811L5.79996 3.92993L6.067 3.84654L5.61991 2.41472ZM5.35287 12.5019L5.61991 12.5853L6.06699 11.1535L5.79995 11.0701L5.35287 12.5019ZM2.37788 6.03516C2.20737 7.00281 2.20737 7.99719 2.37788 8.96484L3.85512 8.70453C3.71496 7.9091 3.71496 7.0909 3.85512 6.29547L2.37788 6.03516ZM5.61991 12.5853C5.96926 12.6944 6.3317 12.75 6.69661 12.75L6.69661 11.25C6.48455 11.25 6.27279 11.2177 6.06699 11.1535L5.61991 12.5853ZM6.69661 2.25C6.33171 2.25 5.96926 2.30564 5.61991 2.41472L6.06699 3.84654C6.27279 3.78228 6.48455 3.75 6.69661 3.75L6.69661 2.25ZM6.69661 12.75C8.45055 12.75 9.75001 11.2055 9.75 9.45894L8.25 9.45894C8.25 10.5191 7.48693 11.25 6.69661 11.25L6.69661 12.75ZM5.79995 11.0701C4.8376 10.7696 4.06162 9.87638 3.85512 8.70453L2.37788 8.96484C2.67074 10.6268 3.79728 12.0162 5.35287 12.5019L5.79995 11.0701ZM5.35287 2.49811C3.79729 2.98383 2.67074 4.37321 2.37788 6.03516L3.85512 6.29547C4.06162 5.12362 4.8376 4.23042 5.79995 3.92993L5.35287 2.49811ZM6.69661 3.75C7.48693 3.75 8.25001 4.48089 8.25 5.54106L9.75 5.54107C9.75001 3.79446 8.45055 2.25 6.69661 2.25L6.69661 3.75ZM9.75 9.45894L9.75 5.54106L8.25 5.54106L8.25 9.45894H9.75ZM2.37905 8.97132C3.57021 15.4 8.59997 20.4298 15.0287 21.6209L15.302 20.146C9.48393 19.068 4.93195 14.5161 3.85395 8.69804L2.37905 8.97132Z" fill="black"/>
</svg>
