<svg width="44" height="44" viewBox="0 0 44 44" fill="none" xmlns="http://www.w3.org/2000/svg">
<path d="M10.178 7.28363L8.19243 8.83684L9.07998 9.97144L11.0655 8.41823L10.178 7.28363Z" fill="#23408F"/>
<path d="M8.3894 11.4257L6.68751 12.757L8.24072 14.7425L9.94262 13.4112L8.3894 11.4257Z" fill="#23408F"/>
<path d="M7.79656 14.1752L9.49846 12.8438L11.9644 13.6582L13.5176 15.6437L9.5465 18.7502L7.99329 16.7646L7.79656 14.1752Z" fill="#23408F"/>
<path d="M7.79656 14.1752L9.49846 12.8438L11.9644 13.6582L7.99329 16.7646L7.79656 14.1752Z" fill="#FFC554"/>
<path d="M6.34209 13.4849L9.17859 11.266L9.75007 10.0625C9.82321 9.90844 9.80304 9.7263 9.698 9.59203L8.81545 8.46381C8.66226 8.26799 8.37935 8.23343 8.18352 8.38661L6.55733 9.65872C5.72098 10.313 5.43725 11.4524 5.86911 12.4224L6.34209 13.4849Z" fill="#FFC554"/>
<path d="M41.9375 22.6952V25.8586C41.9375 28.2837 39.9712 30.25 37.5461 30.25H6.45391C4.02875 30.25 2.0625 28.2837 2.0625 25.8586C2.0625 25.4839 2.08828 25.1135 2.13898 24.75C2.40023 22.8766 3.31203 21.181 4.67414 19.9375C5.52922 19.1563 6.56219 18.553 7.72148 18.1964L9.96102 17.5072C10.633 17.3001 11.2131 16.8678 11.6033 16.2834L12.2504 15.3115C14.1135 12.5168 16.8549 10.4234 20.0406 9.36117C21.7345 8.79656 23.4876 8.51898 25.2321 8.51898C28.3456 8.51898 31.4342 9.40414 34.1138 11.1272C35.1037 11.7631 36.0104 12.5116 36.8191 13.3555C37.6269 14.1994 38.3359 15.1387 38.9288 16.1545L41.1357 19.9375L41.2405 20.118C41.6969 20.9 41.9375 21.7894 41.9375 22.6952Z" fill="#FAD74B"/>
<path d="M36.4375 18.5625H14.4375C14.4375 14.5449 18.9956 11.2587 24.75 11.0146C24.9777 11.0052 25.2063 11 25.4375 11C25.6687 11 25.8973 11.0052 26.125 11.0146C31.8794 11.2587 36.4375 14.5449 36.4375 18.5625Z" fill="#23408F"/>
<path d="M41.9375 22.6952V24.0625H39.3573C38.8838 24.0625 38.5 23.6786 38.5 23.2052V20.7949C38.5 20.3214 38.8839 19.9376 39.3573 19.9376H41.1356L41.2405 20.118C41.6969 20.9 41.9375 21.7894 41.9375 22.6952Z" fill="#FF4444"/>
<path d="M8.24993 22.3438C8.24993 23.6727 7.17262 24.75 5.84368 24.75H2.13892C2.40017 22.8766 3.31196 21.181 4.67407 19.9375H5.84368C7.17262 19.9375 8.24993 21.0148 8.24993 22.3438Z" fill="#FF4444"/>
<path d="M18.5625 28.875C18.5625 29.1079 18.5479 29.3373 18.5204 29.5625C18.3949 30.5671 17.9987 31.4875 17.4075 32.248C17.1256 32.6107 16.7982 32.9381 16.4355 33.22C15.675 33.8112 14.7546 34.2074 13.75 34.3329C13.5248 34.3604 13.2954 34.375 13.0625 34.375C12.8296 34.375 12.6002 34.3604 12.375 34.3329C11.3704 34.2074 10.45 33.8112 9.68945 33.22C9.3268 32.9381 8.99938 32.6107 8.7175 32.248C8.12625 31.4875 7.73008 30.5671 7.60461 29.5625C7.57711 29.3373 7.5625 29.1079 7.5625 28.875C7.5625 28.6421 7.57711 28.4127 7.60461 28.1875C7.73008 27.1829 8.12625 26.2625 8.7175 25.502C8.99938 25.1393 9.3268 24.8119 9.68945 24.53C10.45 23.9388 11.3704 23.5426 12.375 23.4171C12.6002 23.3896 12.8296 23.375 13.0625 23.375C13.2954 23.375 13.5248 23.3896 13.75 23.4171C14.7546 23.5426 15.675 23.9388 16.4355 24.53C16.7982 24.8119 17.1256 25.1393 17.4075 25.502C17.9987 26.2625 18.3949 27.1829 18.5204 28.1875C18.5479 28.4127 18.5625 28.6421 18.5625 28.875Z" fill="#23408F"/>
<path d="M38.5 28.875C38.5 29.1079 38.4854 29.3373 38.4579 29.5625C38.3324 30.5671 37.9362 31.4875 37.345 32.248C37.0631 32.6107 36.7357 32.9381 36.373 33.22C35.6125 33.8112 34.6921 34.2074 33.6875 34.3329C33.4623 34.3604 33.2329 34.375 33 34.375C32.7671 34.375 32.5377 34.3604 32.3125 34.3329C31.3079 34.2074 30.3875 33.8112 29.627 33.22C29.2643 32.9381 28.9369 32.6107 28.655 32.248C28.0638 31.4875 27.6676 30.5671 27.5421 29.5625C27.5146 29.3373 27.5 29.1079 27.5 28.875C27.5 28.6421 27.5146 28.4127 27.5421 28.1875C27.6676 27.1829 28.0638 26.2625 28.655 25.502C28.9369 25.1393 29.2643 24.8119 29.627 24.53C30.3875 23.9388 31.3079 23.5426 32.3125 23.4171C32.5377 23.3896 32.7671 23.375 33 23.375C33.2329 23.375 33.4623 23.3896 33.6875 23.4171C34.6921 23.5426 35.6125 23.9388 36.373 24.53C36.7357 24.8119 37.0631 25.1393 37.345 25.502C37.9362 26.2625 38.3324 27.1829 38.4579 28.1875C38.4854 28.4127 38.5 28.6421 38.5 28.875Z" fill="#23408F"/>
<path d="M26.125 18.5625V30.25H24.75V18.5625C24.75 18.1827 25.0577 17.875 25.4375 17.875C25.8173 17.875 26.125 18.1827 26.125 18.5625Z" fill="#23408F"/>
<path d="M23.375 21.3125H22C21.6203 21.3125 21.3125 21.0047 21.3125 20.625C21.3125 20.2453 21.6203 19.9375 22 19.9375H23.375C23.7547 19.9375 24.0625 20.2453 24.0625 20.625C24.0625 21.0047 23.7547 21.3125 23.375 21.3125Z" fill="#23408F"/>
<path d="M34.375 21.3125H33C32.6203 21.3125 32.3125 21.0047 32.3125 20.625C32.3125 20.2453 32.6203 19.9375 33 19.9375H34.375C34.7547 19.9375 35.0625 20.2453 35.0625 20.625C35.0625 21.0047 34.7547 21.3125 34.375 21.3125Z" fill="#23408F"/>
<path d="M13.75 23.4171V34.3329C13.5248 34.3604 13.2954 34.375 13.0625 34.375C12.8296 34.375 12.6002 34.3604 12.375 34.3329V23.4171C12.6002 23.3896 12.8296 23.375 13.0625 23.375C13.2954 23.375 13.5248 23.3896 13.75 23.4171Z" fill="#23408F"/>
<path d="M17.4075 25.502L9.68948 33.22C9.32683 32.9382 8.9994 32.6107 8.71753 32.2481L16.4356 24.53C16.7982 24.8119 17.1257 25.1393 17.4075 25.502Z" fill="#23408F"/>
<path d="M18.5625 28.875C18.5625 29.1079 18.5479 29.3373 18.5204 29.5625H7.60461C7.57711 29.3373 7.5625 29.1079 7.5625 28.875C7.5625 28.6421 7.57711 28.4127 7.60461 28.1875H18.5204C18.5479 28.4127 18.5625 28.6421 18.5625 28.875Z" fill="#23408F"/>
<path d="M17.4075 32.2481C17.1257 32.6107 16.7982 32.9382 16.4356 33.22L8.71753 25.502C8.9994 25.1393 9.32683 24.8119 9.68948 24.53L17.4075 32.2481Z" fill="#23408F"/>
<path d="M13.0625 30.9375C14.2016 30.9375 15.125 30.0141 15.125 28.875C15.125 27.7359 14.2016 26.8125 13.0625 26.8125C11.9234 26.8125 11 27.7359 11 28.875C11 30.0141 11.9234 30.9375 13.0625 30.9375Z" fill="#FAD74B"/>
<path d="M33.6875 23.4171V34.3329C33.4623 34.3604 33.2329 34.375 33 34.375C32.7671 34.375 32.5377 34.3604 32.3125 34.3329V23.4171C32.5377 23.3896 32.7671 23.375 33 23.375C33.2329 23.375 33.4623 23.3896 33.6875 23.4171Z" fill="#23408F"/>
<path d="M37.345 25.502L29.627 33.22C29.2643 32.9382 28.9369 32.6107 28.655 32.2481L36.3731 24.53C36.7357 24.8119 37.0632 25.1393 37.345 25.502Z" fill="#23408F"/>
<path d="M38.5 28.875C38.5 29.1079 38.4854 29.3373 38.4579 29.5625H27.5421C27.5146 29.3373 27.5 29.1079 27.5 28.875C27.5 28.6421 27.5146 28.4127 27.5421 28.1875H38.4579C38.4854 28.4127 38.5 28.6421 38.5 28.875Z" fill="#23408F"/>
<path d="M37.345 32.2481C37.0632 32.6107 36.7357 32.9382 36.3731 33.22L28.655 25.502C28.9369 25.1393 29.2643 24.8119 29.627 24.53L37.345 32.2481Z" fill="#23408F"/>
<path d="M33 30.9375C34.1391 30.9375 35.0625 30.0141 35.0625 28.875C35.0625 27.7359 34.1391 26.8125 33 26.8125C31.8609 26.8125 30.9375 27.7359 30.9375 28.875C30.9375 30.0141 31.8609 30.9375 33 30.9375Z" fill="#FAD74B"/>
<path d="M26.125 11.0146V18.5625H24.75V11.0146C24.9777 11.0052 25.2063 11 25.4375 11C25.6687 11 25.8973 11.0052 26.125 11.0146Z" fill="#23408F"/>
<path d="M10.9242 6.80818C10.9221 6.73072 10.9485 6.65246 11.0038 6.59171L11.5708 5.96944C11.6815 5.84794 11.8662 5.84252 11.9834 5.95734C12.1005 6.07219 12.1058 6.26372 11.995 6.38526L11.4281 7.00753C11.3173 7.12903 11.1326 7.13445 11.0155 7.01964C10.9569 6.96223 10.9263 6.88564 10.9242 6.80818Z" fill="#23408F"/>
<path d="M11.5329 7.69694C11.5283 7.52984 11.6553 7.39052 11.8164 7.3858L12.6916 7.36012C12.8528 7.35539 12.9871 7.48704 12.9917 7.65414C12.9962 7.82124 12.8693 7.96055 12.7082 7.96528L11.8329 7.99096C11.6718 7.99568 11.5375 7.86403 11.5329 7.69694Z" fill="#23408F"/>
<path d="M10.0335 6.22743L10.0087 5.3197C10.0042 5.1526 10.1311 5.01329 10.2922 5.00856C10.4534 5.00383 10.5877 5.13548 10.5922 5.30258L10.617 6.21032C10.6216 6.37741 10.4946 6.51673 10.3335 6.52145C10.1724 6.52618 10.0381 6.39453 10.0335 6.22743Z" fill="#23408F"/>
</svg>
