<svg width="18" height="18" viewBox="0 0 18 18" fill="none" xmlns="http://www.w3.org/2000/svg">
<path fill-rule="evenodd" clip-rule="evenodd" d="M6.02975 0.343699C7.9834 -0.114566 10.0166 -0.114566 11.9703 0.343699C14.7916 1.00549 16.9945 3.20842 17.6563 6.02975C18.1146 7.9834 18.1146 10.0166 17.6563 11.9703C16.9945 14.7916 14.7916 16.9945 11.9703 17.6563C10.0166 18.1146 7.9834 18.1146 6.02975 17.6563C3.20842 16.9945 1.0055 14.7916 0.3437 11.9703C-0.114567 10.0166 -0.114567 7.9834 0.3437 6.02974C1.0055 3.20841 3.20842 1.00549 6.02975 0.343699ZM12.0524 7.47731C12.2689 7.2454 12.2563 6.88195 12.0244 6.6655C11.7925 6.44906 11.4291 6.46159 11.2126 6.6935L8.26776 9.84869L6.77358 8.35451C6.54927 8.1302 6.1856 8.1302 5.9613 8.35451C5.73699 8.57882 5.73699 8.94249 5.9613 9.16679L7.87587 11.0814C7.98601 11.1915 8.13617 11.2522 8.29191 11.2495C8.44765 11.2468 8.59563 11.181 8.70191 11.0671L12.0524 7.47731Z" fill="#23408F"/>
</svg>
