<svg width="24" height="24" viewBox="0 0 24 24" fill="none" xmlns="http://www.w3.org/2000/svg">
<path d="M15.0496 20.6471L14.8783 19.9169L15.0496 20.6471ZM8.95041 20.6471L8.77914 21.3773L8.95041 20.6471ZM8.95042 3.35288L8.77914 2.6227L8.95042 3.35288ZM15.0495 3.35288L14.8783 4.08306L15.0495 3.35288ZM20.6471 8.95043L19.9169 9.12171L20.6471 8.95043ZM20.6471 15.0496L19.9169 14.8783L20.6471 15.0496ZM3.35286 15.0496L2.62268 15.2208L3.35286 15.0496ZM3.35286 8.95043L2.62268 8.77916L3.35286 8.95043ZM14.8783 19.9169C12.9851 20.361 11.0149 20.361 9.12169 19.9169L8.77914 21.3773C10.8976 21.8742 13.1024 21.8742 15.2208 21.3773L14.8783 19.9169ZM9.12169 4.08306C11.0149 3.63898 12.9851 3.63898 14.8783 4.08306L15.2208 2.62269C13.1023 2.12577 10.8976 2.12577 8.77914 2.6227L9.12169 4.08306ZM19.9169 9.12171C20.361 11.0149 20.361 12.9851 19.9169 14.8783L21.3773 15.2208C21.8742 13.1024 21.8742 10.8976 21.3773 8.77916L19.9169 9.12171ZM4.08304 14.8783C3.63896 12.9851 3.63896 11.0149 4.08304 9.12171L2.62268 8.77916C2.12575 10.8976 2.12575 13.1024 2.62268 15.2208L4.08304 14.8783ZM19.9169 14.8783C19.3305 17.3784 17.3784 19.3305 14.8783 19.9169L15.2208 21.3773C18.2756 20.6608 20.6607 18.2756 21.3773 15.2208L19.9169 14.8783ZM21.3773 8.77916C20.6607 5.72441 18.2756 3.33924 15.2208 2.62269L14.8783 4.08306C17.3784 4.6695 19.3305 6.6216 19.9169 9.12171L21.3773 8.77916ZM4.08304 9.12171C4.66948 6.6216 6.62159 4.6695 9.12169 4.08306L8.77914 2.6227C5.72439 3.33924 3.33922 5.72441 2.62268 8.77916L4.08304 9.12171ZM2.62268 15.2208C3.33922 18.2756 5.72439 20.6608 8.77914 21.3773L9.12169 19.9169C6.62159 19.3305 4.66948 17.3784 4.08304 14.8783L2.62268 15.2208Z" fill="#23408F"/>
<path d="M15.0496 20.6471L15.2208 21.3773L15.0496 20.6471ZM9.12169 19.9169C8.71842 19.8223 8.31483 20.0726 8.22023 20.4758C8.12564 20.8791 8.37587 21.2827 8.77914 21.3773L9.12169 19.9169ZM8.95042 3.35288L8.77914 2.6227L8.95042 3.35288ZM15.0495 3.35288L14.8783 4.08306L15.0495 3.35288ZM20.6471 8.95043L19.9169 9.12171L20.6471 8.95043ZM20.6471 15.0496L21.3773 15.2208L20.6471 15.0496ZM2.62268 8.77916C2.52808 9.18242 2.77831 9.58602 3.18158 9.68061C3.58485 9.77521 3.98845 9.52498 4.08304 9.12171L2.62268 8.77916ZM14.8783 19.9169C12.9851 20.361 11.0149 20.361 9.12169 19.9169L8.77914 21.3773C10.8976 21.8742 13.1024 21.8742 15.2208 21.3773L14.8783 19.9169ZM9.12169 4.08306C11.0149 3.63898 12.9851 3.63898 14.8783 4.08306L15.2208 2.62269C13.1023 2.12577 10.8976 2.12577 8.77914 2.6227L9.12169 4.08306ZM19.9169 9.12171C20.361 11.0149 20.361 12.9851 19.9169 14.8783L21.3773 15.2208C21.8742 13.1024 21.8742 10.8976 21.3773 8.77915L19.9169 9.12171ZM19.9169 14.8783C19.3305 17.3784 17.3784 19.3305 14.8783 19.9169L15.2208 21.3773C18.2756 20.6608 20.6607 18.2756 21.3773 15.2208L19.9169 14.8783ZM21.3773 8.77915C20.6607 5.72441 18.2756 3.33924 15.2208 2.62269L14.8783 4.08306C17.3784 4.6695 19.3305 6.6216 19.9169 9.12171L21.3773 8.77915ZM4.08304 9.12171C4.66948 6.6216 6.62159 4.6695 9.12169 4.08306L8.77914 2.6227C5.72439 3.33924 3.33922 5.72441 2.62268 8.77916L4.08304 9.12171Z" fill="black"/>
<path d="M9.78033 11.2197C9.48744 10.9268 9.01256 10.9268 8.71967 11.2197C8.42678 11.5126 8.42678 11.9874 8.71967 12.2803L9.78033 11.2197ZM11.25 13.75L10.7197 14.2803C10.8635 14.4242 11.0596 14.5034 11.2629 14.4999C11.4663 14.4964 11.6595 14.4104 11.7983 14.2617L11.25 13.75ZM15.2983 10.5117C15.5809 10.2089 15.5646 9.73433 15.2617 9.45171C14.9589 9.16908 14.4843 9.18545 14.2017 9.48826L15.2983 10.5117ZM8.71967 12.2803L10.7197 14.2803L11.7803 13.2197L9.78033 11.2197L8.71967 12.2803ZM11.7983 14.2617L15.2983 10.5117L14.2017 9.48826L10.7017 13.2383L11.7983 14.2617Z" fill="#23408F"/>
</svg>
