<svg width="44" height="44" viewBox="0 0 44 44" fill="none" xmlns="http://www.w3.org/2000/svg">
<path d="M10.312 12.3752C10.0039 12.3752 9.7236 12.1666 9.64557 11.8542L8.95807 9.10422C8.9078 8.90338 8.95077 8.6906 9.07495 8.525L11.1374 5.775C11.3654 5.47112 11.7962 5.40976 12.0999 5.63741C12.4037 5.86523 12.4653 6.29621 12.2375 6.59991L10.3713 9.08815L10.9794 11.5207C11.0715 11.889 10.8476 12.2623 10.4793 12.3544C10.4233 12.3685 10.3672 12.3752 10.312 12.3752Z" fill="white"/>
<path d="M6.1875 2.75H11V5.5H6.1875V2.75Z" fill="#335B9C"/>
<path d="M13.75 6.875H17.875V11.6875H13.75V6.875Z" fill="#23408F"/>
<path d="M17.875 10.3125H13.75L11 14.4375V19.25H20.625V14.4375L17.875 10.3125Z" fill="#23408F"/>
<path d="M17.875 10.3125H13.75L11 14.4375H20.625L17.875 10.3125Z" fill="#FFC554"/>
<path d="M28.1875 4.8125C27.0484 4.8125 26.125 5.7359 26.125 6.875V11.6875H30.25V6.875C30.25 5.7359 29.3266 4.8125 28.1875 4.8125Z" fill="#FF4444"/>
<path d="M30.25 10.3125H26.125L23.375 14.4375V19.25H33V14.4375L30.25 10.3125Z" fill="#FF4444"/>
<path d="M30.25 10.3125H26.125L23.375 14.4375H33L30.25 10.3125Z" fill="#973838"/>
<path d="M37.5872 40.5625H6.41283C5.51109 40.5625 4.76266 39.8656 4.69846 38.9662L3.4375 21.3125H40.5625L39.3015 38.9662C39.2373 39.8656 38.4888 40.5625 37.5872 40.5625Z" fill="#23408F"/>
<path d="M39.875 23.375H4.125C2.9859 23.375 2.0625 22.4516 2.0625 21.3125C2.0625 20.1734 2.9859 19.25 4.125 19.25H39.875C41.0141 19.25 41.9375 20.1734 41.9375 21.3125C41.9375 22.4516 41.0141 23.375 39.875 23.375Z" fill="#23408F"/>
<path d="M22.0094 37.8125H21.9905C21.2364 37.8125 20.625 37.2011 20.625 36.447V27.4905C20.625 26.7364 21.2364 26.125 21.9905 26.125H22.0094C22.7636 26.125 23.3749 26.7364 23.3749 27.4905V36.447C23.3749 37.2011 22.7636 37.8125 22.0094 37.8125Z" fill="white"/>
<path d="M28.275 37.8125H28.2609C27.4752 37.8125 26.8515 37.1511 26.8977 36.3667L27.4246 27.4104C27.467 26.6886 28.0647 26.125 28.7878 26.125H28.8019C29.5876 26.125 30.2112 26.7864 30.1651 27.5708L29.6382 36.5271C29.5958 37.2489 28.998 37.8125 28.275 37.8125Z" fill="white"/>
<path d="M34.5357 37.8125C33.7183 37.8125 33.084 37.0992 33.1794 36.2874L34.2331 27.331C34.314 26.6433 34.8969 26.125 35.5894 26.125C36.4068 26.125 37.0411 26.8383 36.9457 27.6501L35.892 36.6065C35.8111 37.2942 35.2282 37.8125 34.5357 37.8125Z" fill="white"/>
<path d="M15.7252 37.8125H15.7393C16.525 37.8125 17.1487 37.1511 17.1025 36.3667L16.5756 27.4104C16.5333 26.6886 15.9355 26.125 15.2125 26.125H15.1984C14.4127 26.125 13.789 26.7864 13.8352 27.5708L14.3621 36.5271C14.4044 37.2489 15.0022 37.8125 15.7252 37.8125Z" fill="white"/>
<path d="M9.46448 37.8125C10.2819 37.8125 10.9162 37.0992 10.8207 36.2874L9.76707 27.331C9.68611 26.6433 9.1032 26.125 8.41072 26.125C7.59328 26.125 6.95897 26.8383 7.05445 27.6501L8.10813 36.6065C8.18908 37.2942 8.772 37.8125 9.46448 37.8125Z" fill="white"/>
<path d="M19.25 7.5625H12.375L10.1001 6.42503C9.80891 6.27945 9.625 5.98185 9.625 5.65641V2.92188C9.625 2.44724 10.0097 2.0625 10.4844 2.0625H14.4259C16.453 2.0625 18.2199 3.44205 18.7115 5.40865L19.25 7.5625Z" fill="#FFC554"/>
<path d="M28.1891 8.25C27.8095 8.25 27.5012 7.94217 27.5012 7.5625C27.5012 7.18283 27.8086 6.875 28.1883 6.875H28.1891C28.5689 6.875 28.8767 7.18283 28.8767 7.5625C28.8767 7.94217 28.5688 8.25 28.1891 8.25Z" fill="#552020"/>
<path d="M12.7515 28.875H7.87351C6.94238 28.875 6.1875 28.1201 6.1875 27.189V19.5611C6.1875 18.6299 6.94238 17.875 7.87351 17.875H12.7514C13.6826 17.875 14.4374 18.6299 14.4374 19.561V27.1889C14.4375 28.1201 13.6826 28.875 12.7515 28.875Z" fill="#FFC554"/>
<path d="M38.1031 21.6173L35.0625 20.4771V18.7344C35.0625 18.2597 34.6778 17.875 34.2031 17.875H24.9219C24.4472 17.875 24.0625 18.2597 24.0625 18.7344V27.4612C24.0625 28.2015 24.6315 28.8386 25.371 28.8735C26.1606 28.9107 26.8125 28.2814 26.8125 27.5V30.2112C26.8125 30.9515 27.3815 31.5886 28.121 31.6235C28.9106 31.6607 29.5625 31.0314 29.5625 30.25V30.8987C29.5625 31.639 30.1315 32.2761 30.871 32.311C31.6606 32.3482 32.3125 31.7189 32.3125 30.9375V30.25C32.3125 31.0314 32.9644 31.6607 33.754 31.6235C34.4936 31.5887 35.0625 30.9516 35.0625 30.2112V23.9146L37.0131 24.6461C38.0553 25.037 39.1664 24.2774 39.1872 23.1709C39.2002 22.4785 38.7515 21.8604 38.1031 21.6173Z" fill="#FFC554"/>
</svg>
