<svg width="124" height="124" viewBox="0 0 124 124" fill="none" xmlns="http://www.w3.org/2000/svg">
<g clip-path="url(#clip0_2_1270)">
<path d="M82.5063 39.4407V64.6228H41.4933V39.4407H82.5063Z" fill="#D1DEFF"/>
<path d="M82.5063 75.2791V100.461H41.4933V75.2791H82.5063Z" fill="#D1DEFF"/>
<path d="M97.461 15.8216H86.4175V15.1445C86.4175 13.8069 85.333 12.7226 83.9956 12.7226H76.0853C75.3602 5.58702 69.32 0 61.9999 0C54.6798 0 48.6396 5.58702 47.9145 12.7226H40.0042C38.6668 12.7226 37.5823 13.8069 37.5823 15.1445V15.8216H26.5388C21.7648 15.8216 17.8811 19.7056 17.8811 24.4796V115.343C17.8811 120.116 21.7648 124 26.5388 124H97.461C102.235 124 106.119 120.116 106.119 115.343V24.4793C106.119 19.7053 102.235 15.8216 97.461 15.8216ZM90.7408 31.2063V108.616H33.259V31.2063H90.7408ZM42.4261 17.5663H50.3037C50.9804 17.5663 51.6263 17.2832 52.0848 16.7855C52.5435 16.2878 52.7728 15.6209 52.7174 14.9464C52.696 14.687 52.6851 14.4242 52.6851 14.1658C52.6854 9.0256 56.8638 4.84375 61.9999 4.84375C67.136 4.84375 71.3144 9.0256 71.3144 14.1658C71.3144 14.4242 71.3035 14.687 71.2822 14.9464C71.2268 15.6209 71.4564 16.2878 71.9148 16.7855C72.3735 17.2832 73.0194 17.5663 73.6959 17.5663H81.5735V26.3626H42.4261V17.5663ZM101.275 115.342C101.275 117.445 99.5642 119.156 97.461 119.156H26.5388C24.4357 119.156 22.7249 117.445 22.7249 115.342V24.4793C22.7249 22.3762 24.4357 20.6651 26.5388 20.6651H37.5823V26.3624H30.8372C29.4998 26.3624 28.4153 27.4466 28.4153 28.7842V111.037C28.4153 112.375 29.4998 113.459 30.8372 113.459H93.1627C94.5 113.459 95.5845 112.375 95.5845 111.037V28.7845C95.5845 27.4469 94.5 26.3626 93.1627 26.3626H86.4175V20.6654H97.461C99.5642 20.6654 101.275 22.3764 101.275 24.4796V115.342Z" fill="#23408F"/>
<path d="M68.3923 50.3923H63.6077V45.6077C63.6077 44.7198 62.8878 44 62 44C61.1122 44 60.3923 44.7198 60.3923 45.6077V50.3923H55.6077C54.7199 50.3923 54 51.1121 54 52C54 52.8879 54.7199 53.6077 55.6077 53.6077H60.3923V58.3923C60.3923 59.2802 61.1122 60 62 60C62.8878 60 63.6077 59.2802 63.6077 58.3923V53.6077H68.3923C69.2801 53.6077 70 52.8879 70 52C70 51.1121 69.2801 50.3923 68.3923 50.3923Z" fill="#23408F"/>
<path d="M68.3923 86.3923H63.6077V81.6077C63.6077 80.7198 62.8878 80 62 80C61.1122 80 60.3923 80.7198 60.3923 81.6077V86.3923H55.6077C54.7199 86.3923 54 87.1121 54 88C54 88.8879 54.7199 89.6077 55.6077 89.6077H60.3923V94.3923C60.3923 95.2802 61.1122 96 62 96C62.8878 96 63.6077 95.2802 63.6077 94.3923V89.6077H68.3923C69.2801 89.6077 70 88.8879 70 88C70 87.1121 69.2801 86.3923 68.3923 86.3923Z" fill="#23408F"/>
</g>
<defs>
<clipPath id="clip0_2_1270">
<rect width="124" height="124" fill="white"/>
</clipPath>
</defs>
</svg>
