<svg width="24" height="24" viewBox="0 0 24 24" fill="none" xmlns="http://www.w3.org/2000/svg">
<path d="M8.95043 3.35288L9.1217 4.08306L8.95043 3.35288ZM15.0496 3.35288L15.2208 2.6227L15.0496 3.35288ZM15.0496 20.6471L15.2208 21.3773L15.0496 20.6471ZM8.95044 20.6471L9.12171 19.9169L8.95044 20.6471ZM3.35288 15.0496L4.08306 14.8783L3.35288 15.0496ZM3.35288 8.95044L4.08306 9.12171L3.35288 8.95044ZM20.6471 8.95043L21.3773 8.77916L20.6471 8.95043ZM20.6471 15.0496L21.3773 15.2208L20.6471 15.0496ZM9.1217 4.08306C11.0149 3.63898 12.9851 3.63898 14.8783 4.08306L15.2208 2.6227C13.1024 2.12577 10.8976 2.12577 8.77915 2.6227L9.1217 4.08306ZM14.8783 19.9169C12.9851 20.361 11.0149 20.361 9.12171 19.9169L8.77916 21.3773C10.8976 21.8742 13.1024 21.8742 15.2208 21.3773L14.8783 19.9169ZM4.08306 14.8783C3.63898 12.9851 3.63898 11.0149 4.08306 9.12171L2.62269 8.77916C2.12577 10.8976 2.12577 13.1024 2.62269 15.2208L4.08306 14.8783ZM19.9169 9.12171C20.361 11.0149 20.361 12.9851 19.9169 14.8783L21.3773 15.2208C21.8742 13.1024 21.8742 10.8976 21.3773 8.77916L19.9169 9.12171ZM4.08306 9.12171C4.6695 6.62161 6.6216 4.6695 9.1217 4.08306L8.77915 2.6227C5.7244 3.33924 3.33924 5.72442 2.62269 8.77916L4.08306 9.12171ZM2.62269 15.2208C3.33924 18.2756 5.72441 20.6608 8.77916 21.3773L9.12171 19.9169C6.6216 19.3305 4.6695 17.3784 4.08306 14.8783L2.62269 15.2208ZM19.9169 14.8783C19.3305 17.3784 17.3784 19.3305 14.8783 19.9169L15.2208 21.3773C18.2756 20.6608 20.6608 18.2756 21.3773 15.2208L19.9169 14.8783ZM21.3773 8.77916C20.6608 5.72441 18.2756 3.33924 15.2208 2.6227L14.8783 4.08306C17.3784 4.6695 19.3305 6.62161 19.9169 9.12171L21.3773 8.77916Z" fill="#23408F"/>
<path d="M8.95043 3.35288L8.77915 2.6227L8.95043 3.35288ZM14.8783 4.08306C15.2816 4.17765 15.6852 3.92742 15.7798 3.52415C15.8743 3.12089 15.6241 2.71729 15.2208 2.6227L14.8783 4.08306ZM15.0496 20.6471L15.2208 21.3773L15.0496 20.6471ZM8.95044 20.6471L9.12171 19.9169L8.95044 20.6471ZM3.35288 15.0496L4.08306 14.8783L3.35288 15.0496ZM3.35288 8.95044L2.62269 8.77916L3.35288 8.95044ZM21.3773 15.2208C21.4719 14.8176 21.2217 14.414 20.8184 14.3194C20.4151 14.2248 20.0115 14.475 19.9169 14.8783L21.3773 15.2208ZM9.1217 4.08306C11.0149 3.63898 12.9851 3.63898 14.8783 4.08306L15.2208 2.6227C13.1024 2.12577 10.8976 2.12577 8.77915 2.6227L9.1217 4.08306ZM14.8783 19.9169C12.9851 20.361 11.0149 20.361 9.12171 19.9169L8.77916 21.3773C10.8976 21.8742 13.1024 21.8742 15.2208 21.3773L14.8783 19.9169ZM4.08306 14.8783C3.63898 12.9851 3.63898 11.0149 4.08306 9.12171L2.62269 8.77916C2.12577 10.8976 2.12577 13.1024 2.62269 15.2208L4.08306 14.8783ZM4.08306 9.12171C4.6695 6.62161 6.6216 4.6695 9.1217 4.08306L8.77915 2.6227C5.72441 3.33924 3.33924 5.72442 2.62269 8.77916L4.08306 9.12171ZM2.62269 15.2208C3.33924 18.2756 5.72441 20.6608 8.77916 21.3773L9.12171 19.9169C6.6216 19.3305 4.6695 17.3784 4.08306 14.8783L2.62269 15.2208ZM19.9169 14.8783C19.3305 17.3784 17.3784 19.3305 14.8783 19.9169L15.2208 21.3773C18.2756 20.6608 20.6608 18.2756 21.3773 15.2208L19.9169 14.8783Z" fill="black"/>
<path d="M14.5303 10.5303C14.8232 10.2374 14.8232 9.76256 14.5303 9.46967C14.2374 9.17678 13.7626 9.17678 13.4697 9.46967L14.5303 10.5303ZM9.46967 13.4697C9.17678 13.7626 9.17678 14.2374 9.46967 14.5303C9.76256 14.8232 10.2374 14.8232 10.5303 14.5303L9.46967 13.4697ZM13.4697 14.5303C13.7626 14.8232 14.2374 14.8232 14.5303 14.5303C14.8232 14.2374 14.8232 13.7626 14.5303 13.4697L13.4697 14.5303ZM10.5303 9.46967C10.2374 9.17678 9.76256 9.17678 9.46967 9.46967C9.17678 9.76256 9.17678 10.2374 9.46967 10.5303L10.5303 9.46967ZM13.4697 9.46967L9.46967 13.4697L10.5303 14.5303L14.5303 10.5303L13.4697 9.46967ZM14.5303 13.4697L10.5303 9.46967L9.46967 10.5303L13.4697 14.5303L14.5303 13.4697Z" fill="#23408F"/>
</svg>
