<svg width="72" height="104" viewBox="0 0 72 104" fill="none" xmlns="http://www.w3.org/2000/svg">
<path d="M20.7043 18.4006V32.6234L25.8034 28.5444L30.902 32.6234L30.9022 18.4006H20.7043Z" fill="#D1DEFF"/>
<path d="M63.1951 4.07843H53.3373C52.2154 4.07843 51.306 4.98802 51.306 6.10968C51.306 7.23134 52.2154 8.14093 53.3373 8.14093H63.1951C65.6365 8.14093 67.6225 10.1269 67.6225 12.568V95.5095C67.6225 97.9508 65.6365 99.9368 63.1951 99.9368H8.8072C6.36584 99.9368 4.37988 97.9508 4.37988 95.5095V12.568C4.37988 10.1269 6.36584 8.14093 8.8072 8.14093H18.6649C19.7867 8.14093 20.6961 7.23134 20.6961 6.10968C20.6961 4.98802 19.7867 4.07843 18.6649 4.07843H8.8072C4.12598 4.07843 0.317383 7.88682 0.317383 12.568V95.5095C0.317383 100.191 4.12598 103.999 8.8072 103.999H63.1951C67.8764 103.999 71.685 100.191 71.685 95.5095V12.568C71.685 7.88682 67.8764 4.07843 63.1951 4.07843Z" fill="#23408F"/>
<path d="M49.2573 24.4573H59.455C60.5769 24.4573 61.4863 23.5477 61.4863 22.426C61.4863 21.3042 60.5769 20.3948 59.455 20.3948H49.2573C48.1355 20.3948 47.2261 21.3042 47.2261 22.426C47.2261 23.5479 48.1355 24.4573 49.2573 24.4573Z" fill="#23408F"/>
<path d="M49.2573 34.6545H59.455C60.5769 34.6545 61.4863 33.7449 61.4863 32.6232C61.4863 31.5014 60.5769 30.592 59.455 30.592H49.2573C48.1355 30.592 47.2261 31.5014 47.2261 32.6232C47.2261 33.7451 48.1355 34.6545 49.2573 34.6545Z" fill="#23408F"/>
<path d="M10.5686 22.4629V40.7441C10.5686 44.1042 13.3023 46.8379 16.6624 46.8379H34.9436C38.3037 46.8379 41.0374 44.1042 41.0374 40.7441V22.4629C41.0374 19.1028 38.3037 16.3691 34.9436 16.3691H16.6624C13.3023 16.3691 10.5686 19.1028 10.5686 22.4629ZM36.9749 22.4629V40.7441C36.9749 41.8642 36.0636 42.7754 34.9436 42.7754H16.6624C15.5423 42.7754 14.6311 41.8642 14.6311 40.7441V22.4629C14.6311 21.3429 15.5423 20.4316 16.6624 20.4316H34.9436C36.0638 20.4316 36.9749 21.3429 36.9749 22.4629Z" fill="#23408F"/>
<path d="M49.2573 44.8525H59.455C60.5769 44.8525 61.4863 43.9429 61.4863 42.8212C61.4863 41.6994 60.5769 40.79 59.455 40.79H49.2573C48.1355 40.79 47.2261 41.6994 47.2261 42.8212C47.2261 43.9431 48.1355 44.8525 49.2573 44.8525Z" fill="#23408F"/>
<path d="M59.4554 50.988H12.5459C11.424 50.988 10.5146 51.8976 10.5146 53.0193C10.5146 54.1409 11.424 55.0505 12.5459 55.0505H59.4554C60.5772 55.0505 61.4866 54.1409 61.4866 53.0193C61.4866 51.8976 60.5772 50.988 59.4554 50.988Z" fill="#23408F"/>
<path d="M59.4554 61.1852H12.5459C11.424 61.1852 10.5146 62.0946 10.5146 63.2165C10.5146 64.3381 11.424 65.2477 12.5459 65.2477H59.4554C60.5772 65.2477 61.4866 64.3381 61.4866 63.2165C61.4866 62.0946 60.5772 61.1852 59.4554 61.1852Z" fill="#23408F"/>
<path d="M30.9019 71.3832H12.5459C11.424 71.3832 10.5146 72.2928 10.5146 73.4145C10.5146 74.5361 11.424 75.4457 12.5459 75.4457H30.9017C32.0236 75.4457 32.9329 74.5361 32.9329 73.4145C32.9332 72.2926 32.0236 71.3832 30.9019 71.3832Z" fill="#23408F"/>
<path d="M30.9019 81.5813H12.5459C11.424 81.5813 10.5146 82.4909 10.5146 83.6125C10.5146 84.7342 11.424 85.6438 12.5459 85.6438H30.9017C32.0236 85.6438 32.9329 84.7342 32.9329 83.6125C32.9332 82.4907 32.0236 81.5813 30.9019 81.5813Z" fill="#23408F"/>
<path d="M58.0188 76.0571L45.0335 89.0426L40.7012 84.7102C39.908 83.9174 38.6218 83.9172 37.8286 84.7102C37.0354 85.5034 37.0352 86.7896 37.8286 87.583L43.5972 93.3517C44.3902 94.1445 45.6768 94.1447 46.47 93.3517L60.8916 78.9299C61.6848 78.1367 61.6848 76.8505 60.8916 76.0571C60.0982 75.2639 58.8122 75.2639 58.0188 76.0571Z" fill="#23408F"/>
<path d="M22.7415 12.2206C19.3723 12.2206 16.6311 9.47964 16.6311 6.11041C16.6311 2.74117 19.3723 0 22.7415 0H49.2554C52.6249 0 55.3658 2.74117 55.3658 6.11041C55.3658 9.47964 52.6247 12.2206 49.2554 12.2206H22.7415Z" fill="#D1DEFF"/>
</svg>
