<svg width="24" height="24" viewBox="0 0 24 24" fill="none" xmlns="http://www.w3.org/2000/svg">
<path d="M3.68761 14.9315L2.95742 15.1028L3.68761 14.9315ZM3.68761 9.06849L2.95742 8.89721L3.68761 9.06849ZM20.3123 9.06849L19.5821 9.23977L20.3123 9.06849ZM20.3123 14.9315L19.5821 14.7602L20.3123 14.9315ZM14.9315 20.3124L14.7602 19.5822L14.9315 20.3124ZM9.06846 20.3124L9.23974 19.5822L9.06846 20.3124ZM9.06846 3.68763L9.23974 4.41782L9.06846 3.68763ZM14.9315 3.68763L14.7602 4.41782L14.9315 3.68763ZM4.41779 14.7602C3.99192 12.9447 3.99192 11.0553 4.41779 9.23976L2.95742 8.89721C2.47871 10.938 2.47871 13.062 2.95742 15.1028L4.41779 14.7602ZM19.5821 9.23977C20.008 11.0553 20.008 12.9447 19.5821 14.7602L21.0425 15.1028C21.5212 13.062 21.5212 10.938 21.0425 8.89721L19.5821 9.23977ZM14.7602 19.5822C12.9447 20.008 11.0553 20.008 9.23974 19.5822L8.89718 21.0425C10.938 21.5213 13.0619 21.5213 15.1027 21.0425L14.7602 19.5822ZM9.23974 4.41782C11.0553 3.99195 12.9447 3.99195 14.7602 4.41782L15.1028 2.95745C13.0619 2.47874 10.938 2.47874 8.89718 2.95745L9.23974 4.41782ZM9.23974 19.5822C6.84716 19.021 4.97901 17.1528 4.41779 14.7602L2.95742 15.1028C3.64875 18.05 5.94996 20.3512 8.89718 21.0425L9.23974 19.5822ZM15.1027 21.0425C18.05 20.3512 20.3512 18.05 21.0425 15.1028L19.5821 14.7602C19.0209 17.1528 17.1528 19.021 14.7602 19.5822L15.1027 21.0425ZM14.7602 4.41782C17.1528 4.97904 19.0209 6.84719 19.5821 9.23977L21.0425 8.89721C20.3512 5.94999 18.05 3.64878 15.1028 2.95745L14.7602 4.41782ZM8.89718 2.95745C5.94996 3.64878 3.64875 5.94999 2.95742 8.89721L4.41779 9.23976C4.97901 6.84718 6.84716 4.97904 9.23974 4.41782L8.89718 2.95745Z" fill="black"/>
<path d="M9 8.25C8.58579 8.25 8.25 8.58579 8.25 9C8.25 9.41421 8.58579 9.75 9 9.75V8.25ZM13 9.75C13.4142 9.75 13.75 9.41421 13.75 9C13.75 8.58579 13.4142 8.25 13 8.25V9.75ZM9 14.25C8.58579 14.25 8.25 14.5858 8.25 15C8.25 15.4142 8.58579 15.75 9 15.75V14.25ZM12 15.75C12.4142 15.75 12.75 15.4142 12.75 15C12.75 14.5858 12.4142 14.25 12 14.25V15.75ZM9 11.25C8.58579 11.25 8.25 11.5858 8.25 12C8.25 12.4142 8.58579 12.75 9 12.75V11.25ZM15 12.75C15.4142 12.75 15.75 12.4142 15.75 12C15.75 11.5858 15.4142 11.25 15 11.25V12.75ZM9 9.75H13V8.25H9V9.75ZM9 15.75H12V14.25H9V15.75ZM9 12.75H15V11.25H9V12.75Z" fill="#23408F"/>
</svg>
