<svg width="20" height="20" viewBox="0 0 20 20" fill="none" xmlns="http://www.w3.org/2000/svg">
<path d="M10 12.0833L9.46971 12.6136C9.61036 12.7542 9.80113 12.8333 10 12.8333C10.199 12.8333 10.3897 12.7542 10.5304 12.6136L10 12.0833ZM6.3637 7.38625C6.07081 7.09336 5.59594 7.09336 5.30304 7.38625C5.01015 7.67915 5.01015 8.15402 5.30304 8.44691L6.3637 7.38625ZM12.0834 9.99992L12.6137 10.5302L12.6137 10.5302L12.0834 9.99992ZM14.697 8.44691C14.9899 8.15402 14.9899 7.67915 14.697 7.38625C14.4041 7.09336 13.9293 7.09336 13.6364 7.38625L14.697 8.44691ZM10.5304 11.5529L6.3637 7.38625L5.30304 8.44691L9.46971 12.6136L10.5304 11.5529ZM10.5304 12.6136L12.6137 10.5302L11.553 9.46959L9.46971 11.5529L10.5304 12.6136ZM12.6137 10.5302L14.697 8.44691L13.6364 7.38625L11.553 9.46959L12.6137 10.5302Z" fill="#23408F"/>
<path d="M10 12.0833L9.46971 12.6136C9.61036 12.7542 9.80113 12.8333 10 12.8333C10.199 12.8333 10.3897 12.7542 10.5304 12.6136L10 12.0833ZM6.3637 7.38625C6.07081 7.09336 5.59594 7.09336 5.30304 7.38625C5.01015 7.67915 5.01015 8.15402 5.30304 8.44691L6.3637 7.38625ZM12.6137 10.5302C12.9066 10.2374 12.9066 9.76248 12.6137 9.46959C12.3208 9.17669 11.8459 9.17669 11.553 9.46959L12.6137 10.5302ZM10.5304 11.5529L6.3637 7.38625L5.30304 8.44691L9.46971 12.6136L10.5304 11.5529ZM10.5304 12.6136L12.6137 10.5302L11.553 9.46959L9.46971 11.5529L10.5304 12.6136Z" fill="black"/>
</svg>
