<svg width="44" height="44" viewBox="0 0 44 44" fill="none" xmlns="http://www.w3.org/2000/svg">
<path d="M23.19 29.5625H18.0601C17.5782 29.5625 17.1875 29.1718 17.1875 28.6899V24.0625H24.0625V28.6899C24.0626 29.1718 23.6719 29.5625 23.19 29.5625Z" fill="#233162"/>
<path d="M31.625 10.3125H26.125H24.75H4.125L2.0625 25.4375H26.125V12.375H32.3125L31.625 10.3125Z" fill="#FAD74B"/>
<path d="M4.125 24.0625H30.9375V26.8125H4.125V24.0625Z" fill="#384D99"/>
<path d="M41.8168 19.5284L40.5625 29.5625H28.875V15.7266C28.875 15.0147 29.4522 14.4375 30.1641 14.4375H35.7095C36.1296 14.4375 36.4881 14.7412 36.5572 15.1556L37.125 18.5625H40.964C41.4809 18.5625 41.8809 19.0156 41.8168 19.5284Z" fill="#FAD74B"/>
<path d="M34.375 19.9375H28.875V15.7266C28.875 15.0147 29.4522 14.4375 30.1641 14.4375H34.375V19.9375Z" fill="#4965C9"/>
<path d="M30.9375 30.25H41.4194C41.7056 30.25 41.9375 30.0181 41.9375 29.7319V28.0182C41.9375 27.732 41.7056 27.5001 41.4194 27.5001H30.9375V30.25Z" fill="#384D99"/>
<path d="M15.125 28.1875C15.125 28.4212 15.1087 28.6507 15.076 28.875C15.0219 29.2574 14.9213 29.6261 14.7821 29.9741C14.6094 30.4055 14.3765 30.806 14.0938 31.1644C13.8583 31.4634 13.5884 31.7333 13.2894 31.9688C12.931 32.2515 12.5305 32.4844 12.0991 32.6571C11.7511 32.7963 11.3824 32.8969 11 32.951C10.7757 32.9837 10.5462 33 10.3125 33C10.0788 33 9.8493 32.9837 9.625 32.951C9.24258 32.8969 8.87391 32.7963 8.52586 32.6571C8.09445 32.4844 7.69398 32.2515 7.33563 31.9688C7.03656 31.7333 6.76672 31.4634 6.53125 31.1644C6.24852 30.806 6.01562 30.4055 5.84289 29.9741C5.70367 29.6261 5.60312 29.2574 5.54898 28.875C5.51633 28.6507 5.5 28.4212 5.5 28.1875C5.5 27.9538 5.51633 27.7243 5.54898 27.5C5.60312 27.1176 5.70367 26.7489 5.84289 26.4009C6.01562 25.9695 6.24852 25.569 6.53125 25.2106C6.76672 24.9116 7.03656 24.6417 7.33563 24.4062C7.69398 24.1235 8.09445 23.8906 8.52586 23.7179C8.87391 23.5787 9.24258 23.4781 9.625 23.424C9.8493 23.3913 10.0788 23.375 10.3125 23.375C10.5462 23.375 10.7757 23.3913 11 23.424C11.3824 23.4781 11.7511 23.5787 12.0991 23.7179C12.5305 23.8906 12.931 24.1235 13.2894 24.4062C13.5884 24.6417 13.8583 24.9116 14.0938 25.2106C14.3765 25.569 14.6094 25.9695 14.7821 26.4009C14.9213 26.7489 15.0219 27.1176 15.076 27.5C15.1087 27.7243 15.125 27.9538 15.125 28.1875Z" fill="#4965C9"/>
<path d="M11 23.424V24.0625C11 24.4423 10.6923 24.75 10.3125 24.75C9.93266 24.75 9.625 24.4423 9.625 24.0625V23.424C9.8493 23.3913 10.0787 23.375 10.3125 23.375C10.5462 23.375 10.7757 23.3913 11 23.424Z" fill="#233162"/>
<path d="M8.59382 25.2106C8.48554 25.2734 8.36694 25.3026 8.25093 25.3026C8.01288 25.3026 7.78171 25.1797 7.65452 24.9588L7.33569 24.4063C7.69405 24.1235 8.09452 23.8906 8.52593 23.7179L8.84561 24.2713C9.03554 24.6005 8.92296 25.0207 8.59382 25.2106Z" fill="#233162"/>
<path d="M7.33551 26.4688C7.20832 26.6896 6.97715 26.8125 6.7391 26.8125C6.62309 26.8125 6.50449 26.7833 6.39621 26.7206L5.84277 26.4009C6.01551 25.9695 6.2484 25.569 6.53113 25.2106L7.08371 25.5295C7.41285 25.7194 7.52543 26.1396 7.33551 26.4688Z" fill="#233162"/>
<path d="M6.875 28.1875C6.875 28.5673 6.56734 28.875 6.1875 28.875H5.54898C5.51633 28.6507 5.5 28.4212 5.5 28.1875C5.5 27.9537 5.51633 27.7243 5.54898 27.5H6.1875C6.56734 27.5 6.875 27.8077 6.875 28.1875Z" fill="#233162"/>
<path d="M7.08371 30.8455L6.53113 31.1644C6.2484 30.806 6.01551 30.4055 5.84277 29.9741L6.39621 29.6544C6.72535 29.4645 7.14559 29.5771 7.33551 29.9062C7.52543 30.2354 7.41285 30.6556 7.08371 30.8455Z" fill="#233162"/>
<path d="M8.84561 32.1037L8.52593 32.6571C8.09452 32.4844 7.69405 32.2515 7.33569 31.9687L7.65452 31.4162C7.84444 31.087 8.26468 30.9744 8.59382 31.1644C8.92296 31.3543 9.03554 31.7745 8.84561 32.1037Z" fill="#233162"/>
<path d="M11 32.3125V32.951C10.7757 32.9837 10.5462 33 10.3125 33C10.0787 33 9.8493 32.9837 9.625 32.951V32.3125C9.625 31.9327 9.93266 31.625 10.3125 31.625C10.6923 31.625 11 31.9327 11 32.3125Z" fill="#233162"/>
<path d="M13.2895 31.9687C12.9311 32.2515 12.5306 32.4844 12.0992 32.6571L11.7795 32.1037C11.5896 31.7745 11.7022 31.3543 12.0313 31.1644C12.3605 30.9744 12.7807 31.087 12.9706 31.4162L13.2895 31.9687Z" fill="#233162"/>
<path d="M14.782 29.9741C14.6093 30.4055 14.3764 30.806 14.0937 31.1644L13.5411 30.8455C13.212 30.6556 13.0994 30.2354 13.2893 29.9062C13.4792 29.5771 13.8995 29.4645 14.2286 29.6544L14.782 29.9741Z" fill="#233162"/>
<path d="M15.125 28.1875C15.125 28.4212 15.1087 28.6507 15.076 28.875H14.4375C14.0577 28.875 13.75 28.5673 13.75 28.1875C13.75 27.8077 14.0577 27.5 14.4375 27.5H15.076C15.1087 27.7243 15.125 27.9537 15.125 28.1875Z" fill="#233162"/>
<path d="M14.782 26.4009L14.2286 26.7206C14.1203 26.7833 14.0017 26.8125 13.8857 26.8125C13.6477 26.8125 13.4165 26.6896 13.2893 26.4688C13.0994 26.1396 13.212 25.7194 13.5411 25.5295L14.0937 25.2106C14.3764 25.569 14.6093 25.9695 14.782 26.4009Z" fill="#233162"/>
<path d="M13.2895 24.4063L12.9706 24.9588C12.8434 25.1797 12.6123 25.3026 12.3742 25.3026C12.2582 25.3026 12.1396 25.2734 12.0313 25.2106C11.7022 25.0207 11.5896 24.6005 11.7795 24.2713L12.0992 23.7179C12.5306 23.8906 12.9311 24.1235 13.2895 24.4063Z" fill="#233162"/>
<path d="M10.3125 30.25C11.4516 30.25 12.375 29.3266 12.375 28.1875C12.375 27.0484 11.4516 26.125 10.3125 26.125C9.17341 26.125 8.25 27.0484 8.25 28.1875C8.25 29.3266 9.17341 30.25 10.3125 30.25Z" fill="#FAD74B"/>
<path d="M35.75 28.1875C35.75 28.4212 35.7337 28.6507 35.701 28.875C35.6469 29.2574 35.5463 29.6261 35.4071 29.9741C35.2344 30.4055 35.0015 30.806 34.7188 31.1644C34.4833 31.4634 34.2134 31.7333 33.9144 31.9688C33.556 32.2515 33.1555 32.4844 32.7241 32.6571C32.3761 32.7963 32.0074 32.8969 31.625 32.951C31.4007 32.9837 31.1712 33 30.9375 33C30.7038 33 30.4743 32.9837 30.25 32.951C29.8676 32.8969 29.4989 32.7963 29.1509 32.6571C28.7195 32.4844 28.319 32.2515 27.9606 31.9688C27.6616 31.7333 27.3917 31.4634 27.1562 31.1644C26.8735 30.806 26.6406 30.4055 26.4679 29.9741C26.3287 29.6261 26.2281 29.2574 26.174 28.875C26.1413 28.6507 26.125 28.4212 26.125 28.1875C26.125 27.9538 26.1413 27.7243 26.174 27.5C26.2281 27.1176 26.3287 26.7489 26.4679 26.4009C26.6406 25.9695 26.8735 25.569 27.1562 25.2106C27.3917 24.9116 27.6616 24.6417 27.9606 24.4062C28.319 24.1235 28.7195 23.8906 29.1509 23.7179C29.4989 23.5787 29.8676 23.4781 30.25 23.424C30.4743 23.3913 30.7038 23.375 30.9375 23.375C31.1712 23.375 31.4007 23.3913 31.625 23.424C32.0074 23.4781 32.3761 23.5787 32.7241 23.7179C33.1555 23.8906 33.556 24.1235 33.9144 24.4062C34.2134 24.6417 34.4833 24.9116 34.7188 25.2106C35.0015 25.569 35.2344 25.9695 35.4071 26.4009C35.5463 26.7489 35.6469 27.1176 35.701 27.5C35.7337 27.7243 35.75 27.9538 35.75 28.1875Z" fill="#4965C9"/>
<path d="M30.9375 30.25C32.0766 30.25 33 29.3266 33 28.1875C33 27.0484 32.0766 26.125 30.9375 26.125C29.7984 26.125 28.875 27.0484 28.875 28.1875C28.875 29.3266 29.7984 30.25 30.9375 30.25Z" fill="#FAD74B"/>
<path d="M10.3142 28.875C9.93448 28.875 9.62622 28.5672 9.62622 28.1875C9.62622 27.8078 9.93362 27.5 10.3133 27.5H10.3142C10.6938 27.5 11.0017 27.8078 11.0017 28.1875C11.0017 28.5672 10.6938 28.875 10.3142 28.875Z" fill="#233162"/>
<path d="M30.9391 28.875C30.5595 28.875 30.2512 28.5672 30.2512 28.1875C30.2512 27.8078 30.5586 27.5 30.9383 27.5H30.9391C31.3188 27.5 31.6266 27.8078 31.6266 28.1875C31.6266 28.5672 31.3188 28.875 30.9391 28.875Z" fill="#233162"/>
<path d="M31.625 23.424V24.0625C31.625 24.4423 31.3173 24.75 30.9375 24.75C30.5577 24.75 30.25 24.4423 30.25 24.0625V23.424C30.4743 23.3913 30.7037 23.375 30.9375 23.375C31.1712 23.375 31.4007 23.3913 31.625 23.424Z" fill="#233162"/>
<path d="M29.2188 25.2106C29.1105 25.2734 28.9919 25.3026 28.8759 25.3026C28.6379 25.3026 28.4067 25.1797 28.2795 24.9588L27.9607 24.4063C28.3191 24.1235 28.7195 23.8906 29.1509 23.7179L29.4706 24.2713C29.6605 24.6005 29.548 25.0207 29.2188 25.2106Z" fill="#233162"/>
<path d="M27.9605 26.4688C27.8333 26.6896 27.6022 26.8125 27.3641 26.8125C27.2481 26.8125 27.1295 26.7833 27.0212 26.7206L26.4678 26.4009C26.6405 25.9695 26.8734 25.569 27.1561 25.2106L27.7087 25.5295C28.0379 25.7194 28.1504 26.1396 27.9605 26.4688Z" fill="#233162"/>
<path d="M27.5 28.1875C27.5 28.5673 27.1923 28.875 26.8125 28.875H26.174C26.1413 28.6507 26.125 28.4212 26.125 28.1875C26.125 27.9537 26.1413 27.7243 26.174 27.5H26.8125C27.1923 27.5 27.5 27.8077 27.5 28.1875Z" fill="#233162"/>
<path d="M27.7087 30.8455L27.1561 31.1644C26.8734 30.806 26.6405 30.4055 26.4678 29.9741L27.0212 29.6544C27.3504 29.4645 27.7706 29.5771 27.9605 29.9062C28.1504 30.2354 28.0379 30.6556 27.7087 30.8455Z" fill="#233162"/>
<path d="M29.4706 32.1037L29.1509 32.6571C28.7195 32.4844 28.3191 32.2515 27.9607 31.9687L28.2795 31.4162C28.4694 31.087 28.8897 30.9744 29.2188 31.1644C29.548 31.3543 29.6605 31.7745 29.4706 32.1037Z" fill="#233162"/>
<path d="M31.625 32.3125V32.951C31.4007 32.9837 31.1712 33 30.9375 33C30.7037 33 30.4743 32.9837 30.25 32.951V32.3125C30.25 31.9327 30.5577 31.625 30.9375 31.625C31.3173 31.625 31.625 31.9327 31.625 32.3125Z" fill="#233162"/>
<path d="M33.9145 31.9687C33.5561 32.2515 33.1556 32.4844 32.7242 32.6571L32.4045 32.1037C32.2146 31.7745 32.3272 31.3543 32.6563 31.1644C32.9855 30.9744 33.4057 31.087 33.5956 31.4162L33.9145 31.9687Z" fill="#233162"/>
<path d="M35.407 29.9741C35.2343 30.4055 35.0014 30.806 34.7187 31.1644L34.1661 30.8455C33.837 30.6556 33.7244 30.2354 33.9143 29.9062C34.1042 29.5771 34.5245 29.4645 34.8536 29.6544L35.407 29.9741Z" fill="#233162"/>
<path d="M35.75 28.1875C35.75 28.4212 35.7337 28.6507 35.701 28.875H35.0625C34.6827 28.875 34.375 28.5673 34.375 28.1875C34.375 27.8077 34.6827 27.5 35.0625 27.5H35.701C35.7337 27.7243 35.75 27.9537 35.75 28.1875Z" fill="#233162"/>
<path d="M35.407 26.4009L34.8536 26.7206C34.7453 26.7833 34.6267 26.8125 34.5107 26.8125C34.2727 26.8125 34.0415 26.6896 33.9143 26.4688C33.7244 26.1396 33.837 25.7194 34.1661 25.5295L34.7187 25.2106C35.0014 25.569 35.2343 25.9695 35.407 26.4009Z" fill="#233162"/>
<path d="M33.9145 24.4063L33.5956 24.9588C33.4684 25.1797 33.2373 25.3026 32.9992 25.3026C32.8832 25.3026 32.7646 25.2734 32.6563 25.2106C32.3272 25.0207 32.2146 24.6005 32.4045 24.2713L32.7242 23.7179C33.1556 23.8906 33.5561 24.1235 33.9145 24.4063Z" fill="#233162"/>
<path d="M41.5078 22L41.0781 25.4375H37.8125L38.5 22H41.5078Z" fill="#D35148"/>
<path d="M6.875 13.0625H9.625V21.3125H6.875V13.0625Z" fill="#233162"/>
<path d="M13.75 13.0625H16.5V21.3125H13.75V13.0625Z" fill="#233162"/>
<path d="M20.625 13.0625H23.375V21.3125H20.625V13.0625Z" fill="#233162"/>
</svg>
