<svg width="24" height="24" viewBox="0 0 24 24" fill="none" xmlns="http://www.w3.org/2000/svg">
<path d="M13.8793 5.87857L14.4097 6.4089L13.8793 5.87857ZM9.30971 10.4482L9.84004 10.9785L9.30971 10.4482ZM18.1214 10.1207L17.5911 9.59034V9.59034L18.1214 10.1207ZM13.5518 14.6903L13.0215 14.16L13.5518 14.6903ZM6.35044 18.7676L6.16854 18.04H6.16854L6.35044 18.7676ZM5.46723 18.9884L5.64914 19.716H5.64914L5.46723 18.9884ZM5.01156 18.5328L5.73917 18.7147L5.73917 18.7147L5.01156 18.5328ZM5.23236 17.6496L5.95997 17.8315H5.95997L5.23236 17.6496ZM13.349 5.34824L8.77938 9.91787L9.84004 10.9785L14.4097 6.4089L13.349 5.34824ZM17.5911 9.59034L13.0215 14.16L14.0821 15.2206L18.6518 10.651L17.5911 9.59034ZM6.16854 18.04L5.28533 18.2608L5.64914 19.716L6.53235 19.4952L6.16854 18.04ZM5.73917 18.7147L5.95997 17.8315L4.50476 17.4677L4.28395 18.3509L5.73917 18.7147ZM5.28533 18.2608C5.55942 18.1923 5.80769 18.4406 5.73917 18.7147L4.28395 18.3509C4.07783 19.1753 4.82465 19.9222 5.64914 19.716L5.28533 18.2608ZM13.0215 14.16C11.131 16.0504 8.76226 17.3916 6.16854 18.04L6.53235 19.4952C9.38981 18.7809 11.9994 17.3033 14.0821 15.2206L13.0215 14.16ZM8.77938 9.91787C6.69666 12.0006 5.21912 14.6102 4.50476 17.4677L5.95997 17.8315C6.6084 15.2377 7.94955 12.869 9.84004 10.9785L8.77938 9.91787ZM16.0004 4.25C15.0059 4.25 14.0522 4.64505 13.349 5.34824L14.4097 6.4089C14.8315 5.98701 15.4037 5.75 16.0004 5.75V4.25ZM18.25 7.99962C18.25 8.59625 18.013 9.16845 17.5911 9.59034L18.6518 10.651C19.355 9.94781 19.75 8.99408 19.75 7.99962H18.25ZM19.75 7.99962C19.75 5.92876 18.0712 4.25 16.0004 4.25V5.75C17.2428 5.75 18.25 6.75719 18.25 7.99962H19.75ZM17.0128 10.2806C16.3367 10.506 15.3847 10.1872 14.5988 9.40124C13.8128 8.61532 13.494 7.66329 13.7194 6.98717L12.2964 6.51283C11.8147 7.95776 12.5565 9.48029 13.5381 10.4619C14.5197 11.4435 16.0422 12.1853 17.4872 11.7036L17.0128 10.2806Z" fill="black"/>
<path d="M13.8794 5.87857L13.349 5.34824L13.349 5.34824L13.8794 5.87857ZM18.1215 10.1207L17.5911 9.59034L17.5911 9.59034L18.1215 10.1207ZM17.25 10.9921L17.4872 11.7036L17.6552 11.6476L17.7804 11.5224L17.25 10.9921ZM13.0079 6.75L12.4776 6.21967L12.3524 6.34486L12.2964 6.51283L13.0079 6.75ZM16.0004 4.25C15.006 4.25 14.0522 4.64505 13.349 5.34824L14.4097 6.4089C14.8316 5.98701 15.4038 5.75 16.0004 5.75V4.25ZM18.25 7.99962C18.25 8.59625 18.013 9.16845 17.5911 9.59034L18.6518 10.651C19.355 9.94781 19.75 8.99408 19.75 7.99962H18.25ZM19.75 7.99962C19.75 5.92876 18.0713 4.25 16.0004 4.25V5.75C17.2429 5.75 18.25 6.75719 18.25 7.99962H19.75ZM17.0129 10.2806C16.3368 10.506 15.3847 10.1872 14.5988 9.40124C13.8129 8.61532 13.4941 7.66329 13.7195 6.98717L12.2964 6.51283C11.8148 7.95776 12.5565 9.48029 13.5381 10.4619C14.5198 11.4435 16.0423 12.1853 17.4872 11.7036L17.0129 10.2806ZM13.349 5.34824L12.4776 6.21967L13.5383 7.28033L14.4097 6.4089L13.349 5.34824ZM17.5911 9.59034L16.7197 10.4618L17.7804 11.5224L18.6518 10.651L17.5911 9.59034Z" fill="#23408F"/>
</svg>
