<svg width="24" height="24" viewBox="0 0 24 24" fill="none" xmlns="http://www.w3.org/2000/svg">
<path d="M3.9074 8.65134L3.26013 8.27246L3.26013 8.27246L3.9074 8.65134ZM20.0926 8.65134L20.7399 8.27246V8.27246L20.0926 8.65134ZM20.0926 15.3487L19.4453 14.9698L20.0926 15.3487ZM3.9074 15.3487L4.55466 14.9698L3.9074 15.3487ZM4.55466 9.03021C7.89524 3.32326 16.1048 3.32326 19.4453 9.03021L20.7399 8.27246C16.82 1.57585 7.18 1.57585 3.26013 8.27246L4.55466 9.03021ZM19.4453 9.03021C20.5182 10.8631 20.5182 13.1369 19.4453 14.9698L20.7399 15.7275C22.0867 13.4266 22.0867 10.5734 20.7399 8.27246L19.4453 9.03021ZM19.4453 14.9698C16.1048 20.6767 7.89523 20.6767 4.55466 14.9698L3.26013 15.7275C7.18 22.4242 16.82 22.4242 20.7399 15.7275L19.4453 14.9698ZM4.55466 14.9698C3.48178 13.1369 3.48178 10.8631 4.55466 9.03021L3.26013 8.27246C1.91329 10.5734 1.91329 13.4266 3.26013 15.7275L4.55466 14.9698Z" fill="black"/>
<path d="M14.8067 12.0607C14.8067 13.6528 13.5387 14.9233 11.9995 14.9233V16.4233C14.3887 16.4233 16.3067 14.4595 16.3067 12.0607H14.8067ZM11.9995 14.9233C10.4605 14.9233 9.19336 13.6531 9.19336 12.0607H7.69336C7.69336 14.4592 9.60993 16.4233 11.9995 16.4233V14.9233ZM9.19336 12.0607C9.19336 10.467 10.4607 9.19702 11.9995 9.19702V7.69702C9.60978 7.69702 7.69336 9.66129 7.69336 12.0607H9.19336ZM11.9995 9.19702C13.5386 9.19702 14.8067 10.4674 14.8067 12.0607H16.3067C16.3067 9.66097 14.3889 7.69702 11.9995 7.69702V9.19702Z" fill="#23408F"/>
</svg>
