<svg width="24" height="24" viewBox="0 0 24 24" fill="none" xmlns="http://www.w3.org/2000/svg">
<path d="M0 12C0 18.6274 5.37258 24 12 24C18.6274 24 24 18.6274 24 12C24 5.37258 18.6274 0 12 0C5.37258 0 0 5.37258 0 12Z" fill="#5186EE"/>
<path d="M13.1584 18.7193V12.5886H15.3197L15.6434 10.1994H13.1583V8.67404C13.1583 7.98231 13.3601 7.51092 14.4019 7.51092L15.7308 7.51033V5.37343C15.5009 5.34436 14.7121 5.2793 13.7945 5.2793C11.8785 5.2793 10.5668 6.3927 10.5668 8.43748V10.1994H8.3999V12.5886H10.5668V18.7193H13.1584Z" fill="white"/>
</svg>
