<svg width="24" height="24" viewBox="0 0 24 24" fill="none" xmlns="http://www.w3.org/2000/svg">
<path d="M22.2026 4.13794H1.79742C0.804703 4.13794 0 4.94264 0 5.93536V18.0647C0 19.0574 0.804703 19.8621 1.79742 19.8621H22.2026C23.1952 19.8621 24 19.0574 24 18.0647V5.93536C24 4.94264 23.1953 4.13794 22.2026 4.13794Z" fill="#F5F5F5"/>
<path d="M0.098877 5.3475H23.9011C23.6575 4.64358 22.9893 4.13794 22.2026 4.13794H1.79744C1.01069 4.13794 0.342486 4.64358 0.098877 5.3475Z" fill="#FF4B55"/>
<path d="M24 8.97607H0V10.1856H24V8.97607Z" fill="#FF4B55"/>
<path d="M24 6.55688H0V7.7664H24V6.55688Z" fill="#FF4B55"/>
<path d="M0 12.191C0 12.4195 0.185297 12.6048 0.413813 12.6048H24V11.3953H0V12.191Z" fill="#FF4B55"/>
<path d="M24 16.2336H0V17.4432H24V16.2336Z" fill="#FF4B55"/>
<path d="M23.9011 18.6526H0.098877C0.342486 19.3565 1.01074 19.8622 1.79744 19.8622H22.2026C22.9893 19.8622 23.6575 19.3565 23.9011 18.6526Z" fill="#FF4B55"/>
<path d="M24 13.8145H0V15.024H24V13.8145Z" fill="#FF4B55"/>
<path d="M0.413813 12.6048H10.7587C10.9872 12.6048 11.1725 12.4195 11.1725 12.191V4.55175C11.1725 4.32319 10.9872 4.13794 10.7587 4.13794H1.79742C0.804703 4.13799 0 4.94269 0 5.93541V12.191C0 12.4196 0.185297 12.6048 0.413813 12.6048Z" fill="#41479B"/>
<path d="M1.16198 5.08771L1.25358 5.3624L1.54312 5.3646C1.58062 5.36493 1.59614 5.41274 1.566 5.43501L1.33308 5.60699L1.42045 5.88304C1.4318 5.91876 1.39106 5.94838 1.36055 5.92654L1.125 5.75821L0.889451 5.92659C0.858936 5.94843 0.818295 5.91881 0.829545 5.88309L0.91692 5.60704L0.683998 5.43506C0.653858 5.41274 0.669373 5.36493 0.706873 5.36465L0.99642 5.36245L1.08801 5.08776C1.09983 5.05213 1.15008 5.05213 1.16198 5.08771Z" fill="#F5F5F5"/>
<path d="M1.16198 6.52469L1.25358 6.79938L1.54312 6.80158C1.58062 6.80191 1.59614 6.84968 1.566 6.87199L1.33308 7.04402L1.42045 7.32007C1.4318 7.35579 1.39106 7.38541 1.36055 7.36357L1.125 7.19524L0.889451 7.36362C0.858936 7.38541 0.818295 7.35584 0.829545 7.32012L0.91692 7.04407L0.683998 6.87204C0.653858 6.84972 0.669373 6.80196 0.706873 6.80163L0.99642 6.79943L1.08801 6.52474C1.09983 6.48916 1.15008 6.48916 1.16198 6.52469Z" fill="#F5F5F5"/>
<path d="M1.16198 7.96149L1.25358 8.23618L1.54312 8.23838C1.58062 8.23871 1.59614 8.28648 1.566 8.30879L1.33308 8.48082L1.42045 8.75687C1.4318 8.79259 1.39106 8.82221 1.36055 8.80037L1.125 8.63204L0.889451 8.80042C0.858936 8.82221 0.818295 8.79268 0.829545 8.75692L0.91692 8.48087L0.683998 8.30884C0.653858 8.28652 0.669373 8.23876 0.706873 8.23843L0.99642 8.23623L1.08801 7.96154C1.09983 7.92591 1.15008 7.92591 1.16198 7.96149Z" fill="#F5F5F5"/>
<path d="M1.16198 9.3985L1.25358 9.67319L1.54312 9.67539C1.58062 9.67572 1.59614 9.72353 1.566 9.7458L1.33308 9.91783L1.42045 10.1939C1.4318 10.2296 1.39106 10.2592 1.36055 10.2374L1.125 10.069L0.889451 10.2374C0.858936 10.2592 0.818295 10.2296 0.829545 10.1939L0.91692 9.91788L0.683998 9.74585C0.653858 9.72363 0.669373 9.67577 0.706873 9.67544L0.99642 9.67324L1.08801 9.39855C1.09983 9.36293 1.15008 9.36293 1.16198 9.3985Z" fill="#F5F5F5"/>
<path d="M1.16198 10.8355L1.25358 11.1102L1.54312 11.1124C1.58062 11.1127 1.59614 11.1605 1.566 11.1828L1.33308 11.3548L1.42045 11.6309C1.4318 11.6666 1.39106 11.6962 1.36055 11.6744L1.125 11.506L0.889451 11.6744C0.858936 11.6962 0.818295 11.6666 0.829545 11.6309L0.91692 11.3549L0.683998 11.1828C0.653858 11.1605 0.669373 11.1127 0.706873 11.1124L0.99642 11.1102L1.08801 10.8355C1.09983 10.7999 1.15008 10.7999 1.16198 10.8355Z" fill="#F5F5F5"/>
<path d="M2.27734 5.79227L2.36893 6.06696L2.65848 6.06916C2.69598 6.06949 2.71149 6.1173 2.68135 6.13957L2.44843 6.3116L2.53581 6.58765C2.54715 6.62337 2.50642 6.65299 2.4759 6.63115L2.24035 6.46277L2.00481 6.63115C1.97429 6.65294 1.93365 6.62337 1.9449 6.58765L2.03228 6.3116L1.79935 6.13957C1.76921 6.11726 1.78473 6.06949 1.82223 6.06916L2.11178 6.06696L2.20337 5.79227C2.21518 5.75674 2.26548 5.75674 2.27734 5.79227Z" fill="#F5F5F5"/>
<path d="M2.27734 7.22908L2.36893 7.50376L2.65848 7.50597C2.69598 7.5063 2.71149 7.55411 2.68135 7.57637L2.44843 7.7484L2.53581 8.02445C2.54715 8.06017 2.50642 8.08979 2.4759 8.06795L2.24035 7.89958L2.00481 8.06795C1.97429 8.08975 1.93365 8.06022 1.9449 8.02445L2.03228 7.7484L1.79935 7.57637C1.76921 7.55415 1.78473 7.5063 1.82223 7.50597L2.11178 7.50376L2.20337 7.22908C2.21518 7.1935 2.26548 7.1935 2.27734 7.22908Z" fill="#F5F5F5"/>
<path d="M2.27734 8.66609L2.36893 8.94078L2.65848 8.94298C2.69598 8.94331 2.71149 8.99107 2.68135 9.01339L2.44843 9.18542L2.53581 9.46147C2.54715 9.49719 2.50642 9.52681 2.4759 9.50497L2.24035 9.33659L2.00481 9.50497C1.97429 9.52676 1.93365 9.49719 1.9449 9.46147L2.03228 9.18542L1.79935 9.01339C1.76921 8.99107 1.78473 8.94331 1.82223 8.94298L2.11178 8.94078L2.20337 8.66609C2.21518 8.63051 2.26548 8.63051 2.27734 8.66609Z" fill="#F5F5F5"/>
<path d="M2.27734 10.1031L2.36893 10.3778L2.65848 10.38C2.69598 10.3803 2.71149 10.428 2.68135 10.4504L2.44843 10.6224L2.53581 10.8984C2.54715 10.9342 2.50642 10.9638 2.4759 10.9419L2.24035 10.7736L2.00481 10.9419C1.97429 10.9638 1.93365 10.9342 1.9449 10.8984L2.03228 10.6224L1.79935 10.4504C1.76921 10.428 1.78473 10.3803 1.82223 10.38L2.11178 10.3778L2.20337 10.1031C2.21518 10.0675 2.26548 10.0675 2.27734 10.1031Z" fill="#F5F5F5"/>
<path d="M3.39257 5.08772L3.48417 5.36241L3.77371 5.36461C3.81121 5.36494 3.82673 5.41275 3.79659 5.43502L3.56367 5.607L3.65104 5.88305C3.66238 5.91877 3.62165 5.94839 3.59113 5.92655L3.35559 5.75817L3.12004 5.92655C3.08953 5.94839 3.04889 5.91877 3.06014 5.88305L3.14751 5.607L2.91459 5.43502C2.88445 5.4127 2.89996 5.36489 2.93746 5.36461L3.22701 5.36241L3.3186 5.08772C3.33042 5.05214 3.38071 5.05214 3.39257 5.08772Z" fill="#F5F5F5"/>
<path d="M3.39257 6.5247L3.48417 6.79938L3.77371 6.80159C3.81121 6.80191 3.82673 6.84968 3.79659 6.87199L3.56367 7.04402L3.65104 7.32007C3.66238 7.35579 3.62165 7.38541 3.59113 7.36357L3.35559 7.19519L3.12004 7.36357C3.08953 7.38537 3.04889 7.35579 3.06014 7.32007L3.14751 7.04402L2.91459 6.87199C2.88445 6.84968 2.89996 6.80191 2.93746 6.80159L3.22701 6.79938L3.3186 6.5247C3.33042 6.48916 3.38071 6.48916 3.39257 6.5247Z" fill="#F5F5F5"/>
<path d="M3.39257 7.9615L3.48417 8.23619L3.77371 8.23839C3.81121 8.23872 3.82673 8.28648 3.79659 8.30879L3.56367 8.48083L3.65104 8.75687C3.66238 8.79259 3.62165 8.82222 3.59113 8.80037L3.35559 8.632L3.12004 8.80037C3.08953 8.82217 3.04889 8.79264 3.06014 8.75687L3.14751 8.48083L2.91459 8.30879C2.88445 8.28648 2.89996 8.23872 2.93746 8.23839L3.22701 8.23619L3.3186 7.9615C3.33042 7.92592 3.38071 7.92592 3.39257 7.9615Z" fill="#F5F5F5"/>
<path d="M3.39257 9.39851L3.48417 9.6732L3.77371 9.6754C3.81121 9.67573 3.82673 9.72354 3.79659 9.74581L3.56367 9.91784L3.65104 10.1939C3.66238 10.2296 3.62165 10.2592 3.59113 10.2374L3.35559 10.069L3.12004 10.2374C3.08953 10.2592 3.04889 10.2296 3.06014 10.1939L3.14751 9.91784L2.91459 9.74581C2.88445 9.72359 2.89996 9.67573 2.93746 9.6754L3.22701 9.6732L3.3186 9.39851C3.33042 9.36293 3.38071 9.36293 3.39257 9.39851Z" fill="#F5F5F5"/>
<path d="M3.39257 10.8355L3.48417 11.1102L3.77371 11.1124C3.81121 11.1127 3.82673 11.1605 3.79659 11.1828L3.56367 11.3548L3.65104 11.6309C3.66238 11.6666 3.62165 11.6962 3.59113 11.6744L3.35559 11.506L3.12004 11.6744C3.08953 11.6962 3.04889 11.6666 3.06014 11.6309L3.14751 11.3548L2.91459 11.1828C2.88445 11.1605 2.89996 11.1127 2.93746 11.1124L3.22701 11.1102L3.3186 10.8355C3.33042 10.8 3.38071 10.8 3.39257 10.8355Z" fill="#F5F5F5"/>
<path d="M4.50793 5.79227L4.59952 6.06696L4.88907 6.06916C4.92657 6.06949 4.94209 6.1173 4.91195 6.13957L4.67902 6.3116L4.7664 6.58765C4.77774 6.62337 4.73701 6.65299 4.70649 6.63115L4.47095 6.46277L4.2354 6.63115C4.20488 6.65294 4.16424 6.62337 4.17549 6.58765L4.26287 6.3116L4.02995 6.13957C3.9998 6.11726 4.01532 6.06949 4.05282 6.06916L4.34237 6.06696L4.43396 5.79227C4.44573 5.75674 4.49607 5.75674 4.50793 5.79227Z" fill="#F5F5F5"/>
<path d="M4.50793 7.22908L4.59952 7.50376L4.88907 7.50597C4.92657 7.5063 4.94209 7.55411 4.91195 7.57637L4.67902 7.7484L4.7664 8.02445C4.77774 8.06017 4.73701 8.08979 4.70649 8.06795L4.47095 7.89958L4.2354 8.06795C4.20488 8.08975 4.16424 8.06022 4.17549 8.02445L4.26287 7.7484L4.02995 7.57637C3.9998 7.55415 4.01532 7.5063 4.05282 7.50597L4.34237 7.50376L4.43396 7.22908C4.44573 7.1935 4.49607 7.1935 4.50793 7.22908Z" fill="#F5F5F5"/>
<path d="M4.50793 8.66609L4.59952 8.94078L4.88907 8.94298C4.92657 8.94331 4.94209 8.99107 4.91195 9.01339L4.67902 9.18542L4.7664 9.46147C4.77774 9.49719 4.73701 9.52681 4.70649 9.50497L4.47095 9.33659L4.2354 9.50497C4.20488 9.52676 4.16424 9.49719 4.17549 9.46147L4.26287 9.18542L4.02995 9.01339C3.9998 8.99107 4.01532 8.94331 4.05282 8.94298L4.34237 8.94078L4.43396 8.66609C4.44573 8.63051 4.49607 8.63051 4.50793 8.66609Z" fill="#F5F5F5"/>
<path d="M4.50793 10.1031L4.59952 10.3778L4.88907 10.38C4.92657 10.3803 4.94209 10.428 4.91195 10.4504L4.67902 10.6224L4.7664 10.8984C4.77774 10.9342 4.73701 10.9638 4.70649 10.9419L4.47095 10.7736L4.2354 10.9419C4.20488 10.9638 4.16424 10.9342 4.17549 10.8984L4.26287 10.6224L4.02995 10.4504C3.9998 10.428 4.01532 10.3803 4.05282 10.38L4.34237 10.3778L4.43396 10.1031C4.44573 10.0675 4.49607 10.0675 4.50793 10.1031Z" fill="#F5F5F5"/>
<path d="M5.62321 5.08771L5.7148 5.3624L6.00435 5.3646C6.04185 5.36493 6.05736 5.41274 6.02722 5.43501L5.7943 5.60699L5.88168 5.88304C5.89302 5.91876 5.85229 5.94838 5.82177 5.92654L5.58618 5.75821L5.35063 5.92659C5.32012 5.94843 5.27948 5.91881 5.29073 5.88309L5.3781 5.60704L5.14518 5.43506C5.11504 5.41274 5.13055 5.36493 5.16805 5.36465L5.4576 5.36245L5.54919 5.08776C5.56105 5.05213 5.61135 5.05213 5.62321 5.08771Z" fill="#F5F5F5"/>
<path d="M5.62321 6.5247L5.7148 6.79938L6.00435 6.80159C6.04185 6.80191 6.05736 6.84968 6.02722 6.87199L5.7943 7.04402L5.88168 7.32007C5.89302 7.35579 5.85229 7.38541 5.82177 7.36357L5.58618 7.19519L5.35063 7.36357C5.32012 7.38537 5.27948 7.35579 5.29073 7.32007L5.3781 7.04402L5.14518 6.87199C5.11504 6.84968 5.13055 6.80191 5.16805 6.80159L5.4576 6.79938L5.54919 6.5247C5.56105 6.48916 5.61135 6.48916 5.62321 6.5247Z" fill="#F5F5F5"/>
<path d="M5.62321 7.9615L5.7148 8.23619L6.00435 8.23839C6.04185 8.23872 6.05736 8.28649 6.02722 8.3088L5.7943 8.48083L5.88168 8.75688C5.89302 8.7926 5.85229 8.82222 5.82177 8.80038L5.58618 8.63196L5.35063 8.80033C5.32012 8.82213 5.27948 8.79255 5.29073 8.75683L5.3781 8.48078L5.14518 8.30875C5.11504 8.28644 5.13055 8.23868 5.16805 8.23835L5.4576 8.23614L5.54919 7.96146C5.56105 7.92593 5.61135 7.92593 5.62321 7.9615Z" fill="#F5F5F5"/>
<path d="M5.62321 9.39851L5.7148 9.6732L6.00435 9.6754C6.04185 9.67573 6.05736 9.72354 6.02722 9.74581L5.7943 9.91784L5.88168 10.1939C5.89302 10.2296 5.85229 10.2592 5.82177 10.2374L5.58618 10.069L5.35063 10.2374C5.32012 10.2592 5.27948 10.2296 5.29073 10.1939L5.3781 9.91784L5.14518 9.74581C5.11504 9.72359 5.13055 9.67573 5.16805 9.6754L5.4576 9.6732L5.54919 9.39851C5.56105 9.36293 5.61135 9.36293 5.62321 9.39851Z" fill="#F5F5F5"/>
<path d="M5.62321 10.8355L5.7148 11.1102L6.00435 11.1124C6.04185 11.1127 6.05736 11.1605 6.02722 11.1828L5.7943 11.3548L5.88168 11.6309C5.89302 11.6666 5.85229 11.6962 5.82177 11.6744L5.58618 11.506L5.35063 11.6744C5.32012 11.6962 5.27948 11.6666 5.29073 11.6309L5.3781 11.3548L5.14518 11.1828C5.11504 11.1605 5.13055 11.1127 5.16805 11.1124L5.4576 11.1102L5.54919 10.8355C5.56105 10.8 5.61135 10.8 5.62321 10.8355Z" fill="#F5F5F5"/>
<path d="M6.73852 5.79227L6.83011 6.06696L7.11966 6.06916C7.15716 6.06949 7.17267 6.1173 7.14253 6.13957L6.90961 6.3116L6.99699 6.58765C7.00833 6.62337 6.96759 6.65299 6.93708 6.63115L6.70153 6.46277L6.46599 6.63115C6.43547 6.65294 6.39483 6.62337 6.40608 6.58765L6.49346 6.3116L6.26054 6.13957C6.2304 6.11726 6.24591 6.06949 6.28341 6.06916L6.57296 6.06696L6.66455 5.79227C6.67641 5.75674 6.72666 5.75674 6.73852 5.79227Z" fill="#F5F5F5"/>
<path d="M6.73852 7.22908L6.83011 7.50376L7.11966 7.50597C7.15716 7.5063 7.17267 7.55411 7.14253 7.57637L6.90961 7.7484L6.99699 8.02445C7.00833 8.06017 6.96759 8.08979 6.93708 8.06795L6.70153 7.89958L6.46599 8.06795C6.43547 8.08975 6.39483 8.06022 6.40608 8.02445L6.49346 7.7484L6.26054 7.57637C6.2304 7.55415 6.24591 7.5063 6.28341 7.50597L6.57296 7.50376L6.66455 7.22908C6.67641 7.1935 6.72666 7.1935 6.73852 7.22908Z" fill="#F5F5F5"/>
<path d="M6.73852 8.66609L6.83011 8.94078L7.11966 8.94298C7.15716 8.94331 7.17267 8.99107 7.14253 9.01339L6.90961 9.18542L6.99699 9.46147C7.00833 9.49719 6.96759 9.52681 6.93708 9.50497L6.70153 9.33659L6.46599 9.50497C6.43547 9.52676 6.39483 9.49719 6.40608 9.46147L6.49346 9.18542L6.26054 9.01339C6.2304 8.99107 6.24591 8.94331 6.28341 8.94298L6.57296 8.94078L6.66455 8.66609C6.67641 8.63051 6.72666 8.63051 6.73852 8.66609Z" fill="#F5F5F5"/>
<path d="M6.73852 10.1031L6.83011 10.3778L7.11966 10.38C7.15716 10.3803 7.17267 10.428 7.14253 10.4504L6.90961 10.6224L6.99699 10.8984C7.00833 10.9342 6.96759 10.9638 6.93708 10.9419L6.70153 10.7736L6.46599 10.9419C6.43547 10.9638 6.39483 10.9342 6.40608 10.8984L6.49346 10.6224L6.26054 10.4504C6.2304 10.428 6.24591 10.3803 6.28341 10.38L6.57296 10.3778L6.66455 10.1031C6.67641 10.0675 6.72666 10.0675 6.73852 10.1031Z" fill="#F5F5F5"/>
<path d="M7.85387 5.08772L7.94547 5.36241L8.23501 5.36461C8.27251 5.36494 8.28803 5.41275 8.25789 5.43502L8.02497 5.607L8.11234 5.88305C8.12368 5.91877 8.08295 5.94839 8.05244 5.92655L7.81689 5.75817L7.58134 5.92655C7.55083 5.94839 7.51019 5.91877 7.52144 5.88305L7.60881 5.607L7.37589 5.43502C7.34575 5.4127 7.36127 5.36489 7.39877 5.36461L7.68831 5.36241L7.77991 5.08772C7.79167 5.05214 7.84201 5.05214 7.85387 5.08772Z" fill="#F5F5F5"/>
<path d="M7.85387 6.5247L7.94547 6.79938L8.23501 6.80159C8.27251 6.80191 8.28803 6.84968 8.25789 6.87199L8.02497 7.04402L8.11234 7.32007C8.12368 7.35579 8.08295 7.38541 8.05244 7.36357L7.81689 7.19519L7.58134 7.36357C7.55083 7.38537 7.51019 7.35579 7.52144 7.32007L7.60881 7.04402L7.37589 6.87199C7.34575 6.84968 7.36127 6.80191 7.39877 6.80159L7.68831 6.79938L7.77991 6.5247C7.79167 6.48916 7.84201 6.48916 7.85387 6.5247Z" fill="#F5F5F5"/>
<path d="M7.85387 7.9615L7.94547 8.23619L8.23501 8.23839C8.27251 8.23872 8.28803 8.28648 8.25789 8.30879L8.02497 8.48083L8.11234 8.75687C8.12368 8.79259 8.08295 8.82222 8.05244 8.80037L7.81689 8.632L7.58134 8.80037C7.55083 8.82217 7.51019 8.79264 7.52144 8.75687L7.60881 8.48083L7.37589 8.30879C7.34575 8.28648 7.36127 8.23872 7.39877 8.23839L7.68831 8.23619L7.77991 7.9615C7.79167 7.92592 7.84201 7.92592 7.85387 7.9615Z" fill="#F5F5F5"/>
<path d="M7.85387 9.39851L7.94547 9.6732L8.23501 9.6754C8.27251 9.67573 8.28803 9.72354 8.25789 9.74581L8.02497 9.91784L8.11234 10.1939C8.12368 10.2296 8.08295 10.2592 8.05244 10.2374L7.81689 10.069L7.58134 10.2374C7.55083 10.2592 7.51019 10.2296 7.52144 10.1939L7.60881 9.91784L7.37589 9.74581C7.34575 9.72359 7.36127 9.67573 7.39877 9.6754L7.68831 9.6732L7.77991 9.39851C7.79167 9.36293 7.84201 9.36293 7.85387 9.39851Z" fill="#F5F5F5"/>
<path d="M7.85387 10.8355L7.94547 11.1102L8.23501 11.1124C8.27251 11.1127 8.28803 11.1605 8.25789 11.1828L8.02497 11.3548L8.11234 11.6309C8.12368 11.6666 8.08295 11.6962 8.05244 11.6744L7.81689 11.506L7.58134 11.6744C7.55083 11.6962 7.51019 11.6666 7.52144 11.6309L7.60881 11.3548L7.37589 11.1828C7.34575 11.1605 7.36127 11.1127 7.39877 11.1124L7.68831 11.1102L7.77991 10.8355C7.79167 10.8 7.84201 10.8 7.85387 10.8355Z" fill="#F5F5F5"/>
<path d="M8.96911 5.79227L9.0607 6.06696L9.35025 6.06916C9.38775 6.06949 9.40326 6.1173 9.37312 6.13957L9.1402 6.3116L9.22758 6.58765C9.23892 6.62337 9.19819 6.65299 9.16767 6.63115L8.93213 6.46277L8.69658 6.63115C8.66606 6.65294 8.62542 6.62337 8.63667 6.58765L8.72405 6.3116L8.49113 6.13957C8.46099 6.11726 8.4765 6.06949 8.514 6.06916L8.80355 6.06696L8.89514 5.79227C8.90695 5.75674 8.95725 5.75674 8.96911 5.79227Z" fill="#F5F5F5"/>
<path d="M8.96911 7.22908L9.0607 7.50376L9.35025 7.50597C9.38775 7.5063 9.40326 7.55411 9.37312 7.57637L9.1402 7.7484L9.22758 8.02445C9.23892 8.06017 9.19819 8.08979 9.16767 8.06795L8.93213 7.89958L8.69658 8.06795C8.66606 8.08975 8.62542 8.06022 8.63667 8.02445L8.72405 7.7484L8.49113 7.57637C8.46099 7.55415 8.4765 7.5063 8.514 7.50597L8.80355 7.50376L8.89514 7.22908C8.90695 7.1935 8.95725 7.1935 8.96911 7.22908Z" fill="#F5F5F5"/>
<path d="M8.96911 8.66609L9.0607 8.94078L9.35025 8.94298C9.38775 8.94331 9.40326 8.99107 9.37312 9.01339L9.1402 9.18542L9.22758 9.46147C9.23892 9.49719 9.19819 9.52681 9.16767 9.50497L8.93213 9.33659L8.69658 9.50497C8.66606 9.52676 8.62542 9.49719 8.63667 9.46147L8.72405 9.18542L8.49113 9.01339C8.46099 8.99107 8.4765 8.94331 8.514 8.94298L8.80355 8.94078L8.89514 8.66609C8.90695 8.63051 8.95725 8.63051 8.96911 8.66609Z" fill="#F5F5F5"/>
<path d="M8.96911 10.1031L9.0607 10.3778L9.35025 10.38C9.38775 10.3803 9.40326 10.428 9.37312 10.4504L9.1402 10.6224L9.22758 10.8984C9.23892 10.9342 9.19819 10.9638 9.16767 10.9419L8.93213 10.7736L8.69658 10.9419C8.66606 10.9638 8.62542 10.9342 8.63667 10.8984L8.72405 10.6224L8.49113 10.4504C8.46099 10.428 8.4765 10.3803 8.514 10.38L8.80355 10.3778L8.89514 10.1031C8.90695 10.0675 8.95725 10.0675 8.96911 10.1031Z" fill="#F5F5F5"/>
<path d="M10.0845 5.08772L10.1761 5.36241L10.4656 5.36461C10.5031 5.36494 10.5186 5.41275 10.4885 5.43502L10.2556 5.607L10.3429 5.88305C10.3543 5.91877 10.3135 5.94839 10.283 5.92655L10.0475 5.75817L9.81194 5.92655C9.78142 5.94839 9.74078 5.91877 9.75203 5.88305L9.83941 5.607L9.60648 5.43502C9.57634 5.4127 9.59186 5.36489 9.62936 5.36461L9.91891 5.36241L10.0105 5.08772C10.0223 5.05214 10.0726 5.05214 10.0845 5.08772Z" fill="#F5F5F5"/>
<path d="M10.0845 6.5247L10.1761 6.79938L10.4656 6.80159C10.5031 6.80191 10.5186 6.84968 10.4885 6.87199L10.2556 7.04402L10.3429 7.32007C10.3543 7.35579 10.3135 7.38541 10.283 7.36357L10.0475 7.19519L9.81194 7.36357C9.78142 7.38537 9.74078 7.35579 9.75203 7.32007L9.83941 7.04402L9.60648 6.87199C9.57634 6.84968 9.59186 6.80191 9.62936 6.80159L9.91891 6.79938L10.0105 6.5247C10.0223 6.48916 10.0726 6.48916 10.0845 6.5247Z" fill="#F5F5F5"/>
<path d="M10.0845 7.9615L10.1761 8.23619L10.4656 8.23839C10.5031 8.23872 10.5186 8.28648 10.4885 8.30879L10.2556 8.48083L10.3429 8.75687C10.3543 8.79259 10.3135 8.82222 10.283 8.80037L10.0475 8.632L9.81194 8.80037C9.78142 8.82217 9.74078 8.79264 9.75203 8.75687L9.83941 8.48083L9.60648 8.30879C9.57634 8.28648 9.59186 8.23872 9.62936 8.23839L9.91891 8.23619L10.0105 7.9615C10.0223 7.92592 10.0726 7.92592 10.0845 7.9615Z" fill="#F5F5F5"/>
<path d="M10.0845 9.39851L10.1761 9.6732L10.4656 9.6754C10.5031 9.67573 10.5186 9.72354 10.4885 9.74581L10.2556 9.91784L10.3429 10.1939C10.3543 10.2296 10.3135 10.2592 10.283 10.2374L10.0475 10.069L9.81194 10.2374C9.78142 10.2592 9.74078 10.2296 9.75203 10.1939L9.83941 9.91784L9.60648 9.74581C9.57634 9.72359 9.59186 9.67573 9.62936 9.6754L9.91891 9.6732L10.0105 9.39851C10.0223 9.36293 10.0726 9.36293 10.0845 9.39851Z" fill="#F5F5F5"/>
<path d="M10.0845 10.8355L10.1761 11.1102L10.4656 11.1124C10.5031 11.1127 10.5186 11.1605 10.4885 11.1828L10.2556 11.3548L10.3429 11.6309C10.3543 11.6666 10.3135 11.6962 10.283 11.6744L10.0475 11.506L9.81194 11.6744C9.78142 11.6962 9.74078 11.6666 9.75203 11.6309L9.83941 11.3548L9.60648 11.1828C9.57634 11.1605 9.59186 11.1127 9.62936 11.1124L9.91891 11.1102L10.0105 10.8355C10.0223 10.8 10.0726 10.8 10.0845 10.8355Z" fill="#F5F5F5"/>
</svg>
