<svg width="24" height="24" viewBox="0 0 24 24" fill="none" xmlns="http://www.w3.org/2000/svg">
<g clip-path="url(#clip0_2_710)">
<path d="M5.31891 14.5034L4.4835 17.6221L1.43011 17.6867C0.517594 15.9942 0 14.0577 0 11.9999C0 10.01 0.483938 8.1335 1.34175 6.4812H1.34241L4.06078 6.97958L5.25159 9.68164C5.00236 10.4082 4.86652 11.1882 4.86652 11.9999C4.86661 12.8808 5.02617 13.7247 5.31891 14.5034Z" fill="#FBBB00"/>
<path d="M23.7904 9.75818C23.9282 10.4841 24.0001 11.2338 24.0001 11.9999C24.0001 12.8591 23.9098 13.6971 23.7377 14.5054C23.1535 17.2562 21.6271 19.6582 19.5127 21.358L19.512 21.3573L16.0881 21.1826L15.6035 18.1575C17.0065 17.3347 18.103 16.047 18.6806 14.5054H12.2639V9.75818H18.7742H23.7904Z" fill="#518EF8"/>
<path d="M19.5122 21.3574L19.5128 21.358C17.4564 23.011 14.844 24 12.0003 24C7.43042 24 3.45725 21.4457 1.43042 17.6868L5.31922 14.5035C6.33261 17.2081 8.94162 19.1334 12.0003 19.1334C13.315 19.1334 14.5467 18.778 15.6036 18.1576L19.5122 21.3574Z" fill="#28B446"/>
<path d="M19.6596 2.76263L15.7721 5.94525C14.6783 5.26153 13.3853 4.86656 12 4.86656C8.87213 4.86656 6.21431 6.88017 5.25169 9.68175L1.34245 6.48131H1.3418C3.33895 2.63077 7.36223 0 12 0C14.9117 0 17.5814 1.03716 19.6596 2.76263Z" fill="#F14336"/>
</g>
<defs>
<clipPath id="clip0_2_710">
<rect width="24" height="24" fill="white"/>
</clipPath>
</defs>
</svg>
