<svg width="44" height="44" viewBox="0 0 44 44" fill="none" xmlns="http://www.w3.org/2000/svg">
<path d="M13.0625 11.6875H4.8125C4.43283 11.6875 4.125 11.3797 4.125 11C4.125 10.6203 4.43283 10.3125 4.8125 10.3125H13.0625C13.4422 10.3125 13.75 10.6203 13.75 11C13.75 11.3797 13.4422 11.6875 13.0625 11.6875Z" fill="#23408F"/>
<path d="M3.4375 12.375H5.7793C6.0048 12.375 6.1875 12.1922 6.1875 11.9668V10.0332C6.1875 9.8077 6.00471 9.625 5.7793 9.625H3.4375C2.67807 9.625 2.0625 10.2406 2.0625 11C2.0625 11.7594 2.67807 12.375 3.4375 12.375Z" fill="#FAD74B"/>
<path d="M17.5175 24.0625C16.9171 24.0625 16.3915 24.4654 16.2354 25.045L12.375 39.1875H15.125L18.7996 25.7354C19.0267 24.8918 18.3912 24.0625 17.5175 24.0625Z" fill="#23408F"/>
<path d="M26.4825 24.0625C27.0828 24.0625 27.6085 24.4654 27.7646 25.045L31.1676 37.5115C31.398 38.3555 30.7627 39.1874 29.8879 39.1874C29.2899 39.1874 28.7658 38.7873 28.6082 38.2104L25.2005 25.7353C24.9733 24.8918 25.6088 24.0625 26.4825 24.0625Z" fill="#23408F"/>
<path d="M23.375 27.5H20.625V37.8125C20.625 38.5719 21.2406 39.1875 22 39.1875C22.7594 39.1875 23.375 38.5719 23.375 37.8125V27.5Z" fill="#23408F"/>
<path d="M33.6875 15.8125L33.2148 20.8209C33.1538 21.4698 33.0172 22.0945 32.8144 22.6875C32.4637 23.7145 31.9155 24.646 31.2151 25.4375C29.7189 27.1305 27.5335 28.1875 25.1195 28.1875H18.8805C16.4665 28.1875 14.2811 27.1305 12.7849 25.4375C12.0845 24.646 11.5363 23.7145 11.1856 22.6875C10.9828 22.0945 10.8462 21.4698 10.7852 20.8209L10.3125 15.8125H33.6875Z" fill="#FAD74B"/>
<path d="M33.6875 16.5H10.3125C9.55307 16.5 8.9375 15.8844 8.9375 15.125C8.9375 14.3656 9.55307 13.75 10.3125 13.75H33.6875C34.4469 13.75 35.0625 14.3656 35.0625 15.125C35.0625 15.8844 34.4469 16.5 33.6875 16.5Z" fill="#23408F"/>
<path d="M32.8143 22.6875C32.4637 23.7145 31.9154 24.646 31.215 25.4375H12.7848C12.0845 24.646 11.5362 23.7145 11.1855 22.6875H32.8143Z" fill="#FF4444"/>
<path d="M23.375 19.25H20.625C19.1062 19.25 17.875 18.0188 17.875 16.5H26.125C26.125 18.0188 24.8938 19.25 23.375 19.25Z" fill="#FF4444"/>
<path d="M22.0022 8.2507C21.8388 8.2507 21.6746 8.19312 21.5432 8.07625C21.4492 7.99271 20.625 7.22856 20.625 6.13655C20.625 5.67051 20.7843 4.9733 21.5432 4.29869C21.8506 4.0255 22 3.76046 22 3.48847C22 3.06824 21.6397 2.6621 21.5432 2.57633C21.2595 2.32411 21.2339 1.88952 21.4862 1.60575C21.7385 1.3219 22.173 1.29638 22.4568 1.54869C22.5508 1.63222 23.375 2.39646 23.375 3.48847C23.375 3.95451 23.2157 4.65172 22.4568 5.32633C22.1515 5.59764 22.0021 5.86078 22.0001 6.13062C21.9969 6.53711 22.3315 6.93353 22.4606 7.05204C22.7444 7.30436 22.768 7.73714 22.5158 8.0209C22.3803 8.17327 22.1917 8.2507 22.0022 8.2507Z" fill="#23408F"/>
<path d="M26.1247 8.25001C25.9622 8.25001 25.7992 8.19278 25.6682 8.07633C25.5742 7.9928 24.75 7.22856 24.75 6.13655C24.75 5.67051 24.9093 4.9733 25.6682 4.29869C25.9756 4.0255 26.125 3.76046 26.125 3.48847C26.125 3.06824 25.7647 2.6621 25.6682 2.57633C25.3845 2.32411 25.3589 1.88952 25.6112 1.60575C25.8634 1.3219 26.298 1.29638 26.5818 1.54869C26.6758 1.63222 27.5 2.39646 27.5 3.48847C27.5 3.95451 27.3407 4.65172 26.5818 5.32633C26.2744 5.59953 26.125 5.86456 26.125 6.13655C26.125 6.55678 26.4853 6.96293 26.5818 7.04869C26.8655 7.30092 26.8911 7.7355 26.6388 8.01927C26.503 8.17207 26.3143 8.25001 26.1247 8.25001Z" fill="#23408F"/>
<path d="M17.8772 8.25076C17.7138 8.25076 17.5496 8.19318 17.4182 8.07631C17.3242 7.99278 16.5 7.22853 16.5 6.13653C16.5 5.67049 16.6593 4.97328 17.4182 4.29867C17.7235 4.02736 17.8729 3.76431 17.8749 3.49438C17.8781 3.08789 17.5435 2.69138 17.4144 2.57296C17.1306 2.32064 17.107 1.88786 17.3592 1.6041C17.6114 1.32033 18.0479 1.29644 18.3317 1.54875C18.4258 1.6322 19.25 2.39644 19.25 3.48845C19.25 3.95449 19.0907 4.6517 18.3318 5.32631C18.0265 5.59761 17.8771 5.86067 17.8751 6.1306C17.8719 6.53708 18.2065 6.9336 18.3356 7.05202C18.6194 7.30433 18.643 7.73711 18.3908 8.02088C18.2553 8.17333 18.0667 8.25076 17.8772 8.25076Z" fill="#23408F"/>
<path d="M19.25 12.375H13.75C12.9906 12.375 12.375 11.7594 12.375 11C12.375 10.2406 12.9906 9.625 13.75 9.625H19.25C20.0094 9.625 20.625 10.2406 20.625 11C20.625 11.7594 20.0094 12.375 19.25 12.375Z" fill="#FF4444"/>
<path d="M39.1875 11.6875H30.9375C30.5578 11.6875 30.25 11.3797 30.25 11C30.25 10.6203 30.5578 10.3125 30.9375 10.3125H39.1875C39.5672 10.3125 39.875 10.6203 39.875 11C39.875 11.3797 39.5672 11.6875 39.1875 11.6875Z" fill="#23408F"/>
<path d="M24.75 12.375H30.25C31.0094 12.375 31.625 11.7594 31.625 11C31.625 10.2406 31.0094 9.625 30.25 9.625H24.75C23.9906 9.625 23.375 10.2406 23.375 11C23.375 11.7594 23.9906 12.375 24.75 12.375Z" fill="#FF4444"/>
<path d="M40.5625 12.375H38.2207C37.9952 12.375 37.8125 12.1922 37.8125 11.9668V10.0332C37.8125 9.8077 37.9953 9.625 38.2207 9.625H40.5625C41.3219 9.625 41.9375 10.2406 41.9375 11C41.9375 11.7594 41.3219 12.375 40.5625 12.375Z" fill="#FAD74B"/>
<path d="M13.75 41.9375C15.2688 41.9375 16.5 40.7063 16.5 39.1875C16.5 37.6687 15.2688 36.4375 13.75 36.4375C12.2312 36.4375 11 37.6687 11 39.1875C11 40.7063 12.2312 41.9375 13.75 41.9375Z" fill="#FF4444"/>
<path d="M30.25 41.9375C31.7688 41.9375 33 40.7063 33 39.1875C33 37.6687 31.7688 36.4375 30.25 36.4375C28.7312 36.4375 27.5 37.6687 27.5 39.1875C27.5 40.7063 28.7312 41.9375 30.25 41.9375Z" fill="#FF4444"/>
<path d="M13.7517 39.875C13.372 39.875 13.0637 39.5672 13.0637 39.1875C13.0637 38.8078 13.3711 38.5 13.7508 38.5H13.7517C14.1313 38.5 14.4392 38.8078 14.4392 39.1875C14.4392 39.5672 14.1313 39.875 13.7517 39.875Z" fill="#23408F"/>
<path d="M30.2516 39.875C29.872 39.875 29.5637 39.5672 29.5637 39.1875C29.5637 38.8078 29.8711 38.5 30.2508 38.5H30.2516C30.6313 38.5 30.9391 38.8078 30.9391 39.1875C30.9391 39.5672 30.6313 39.875 30.2516 39.875Z" fill="#23408F"/>
</svg>
