<svg width="112" height="124" viewBox="0 0 112 124" fill="none" xmlns="http://www.w3.org/2000/svg">
<path d="M99.051 24.0645C87.1175 24.0645 77.4087 14.3557 77.4087 2.42188C77.4087 1.08427 76.3244 0 74.9868 0H26.8578C25.5202 0 24.436 1.08427 24.436 2.42188C24.436 14.3557 14.7271 24.0645 2.79335 24.0645C1.45575 24.0645 0.371476 25.1488 0.371476 26.4864C-0.140266 63.5074 7.93596 101.675 50.2953 112.395C50.706 112.505 51.1383 112.505 51.5488 112.395C55.7179 111.278 59.6665 109.889 63.2853 108.266C64.5056 107.718 65.0513 106.285 64.5037 105.065C63.9566 103.844 62.5238 103.299 61.3027 103.846C58.1 105.283 54.6106 106.526 50.9221 107.546C11.6373 96.6905 5.47219 63.5265 5.22346 28.7975C17.8954 27.6396 28.0155 17.5167 29.17 4.84375H72.6746C73.8291 17.5169 83.9484 27.6396 96.6204 28.7975C96.4739 47.872 94.4814 61.5074 90.2172 72.7824C89.744 74.0336 90.3747 75.4315 91.6258 75.9045C92.8769 76.3772 94.2746 75.7468 94.7478 74.4959C99.3988 62.1979 101.473 47.3913 101.473 26.4864C101.473 25.1488 100.389 24.0645 99.051 24.0645Z" fill="#23408F"/>
<path d="M89.8578 32.4834C79.8051 29.412 71.9914 21.5707 68.9568 11.5076C68.6482 10.4848 67.7061 9.78491 66.6381 9.78491H35.2063C34.138 9.78491 33.1961 10.4848 32.8876 11.5076C29.8527 21.5707 22.0393 29.412 11.9866 32.4834C10.942 32.8027 10.2404 33.7813 10.2736 34.8731C10.6676 47.8633 12.2249 66.7823 21.1577 81.0401C27.5536 91.2481 37.0578 98.1678 50.2134 102.194C50.6753 102.336 51.1691 102.336 51.6312 102.194C55.0477 101.149 58.2596 99.8888 61.1775 98.45C62.3773 97.8586 62.8701 96.4064 62.2785 95.2069C61.6871 94.0071 60.2349 93.5142 59.0353 94.1059C56.5515 95.3306 53.8252 96.4178 50.9221 97.3417C41.5976 94.3752 34.3484 89.8121 28.9358 83.4797V78.7858C28.9358 71.558 32.6091 64.6978 38.5952 60.6099C44.7942 68.0279 57.0523 68.0252 63.2489 60.6099C69.2348 64.6978 72.9081 71.558 72.9081 78.7858C72.9081 80.1234 73.9924 81.2077 75.33 81.2077C76.6676 81.2077 77.7518 80.1234 77.7518 78.7858C77.7518 69.9169 73.2283 61.5057 65.8653 56.5317C66.7815 54.4905 67.2915 52.229 67.2915 49.8505V42.8767C66.4659 21.1849 35.3705 21.2011 34.5526 42.8767V49.8505C34.5526 52.229 35.0627 54.4905 35.9789 56.5317C29.2107 61.104 24.8416 68.5803 24.18 76.6468C17.1885 64.2374 15.6232 48.2651 15.1764 36.5239C25.3538 32.8358 33.3228 24.8269 36.9587 14.6289H64.8859C68.5213 24.826 76.4905 32.8351 86.6672 36.5234C86.0254 52.9439 83.5224 65.0303 78.8264 74.4545C78.2299 75.6517 78.7167 77.1058 79.9138 77.7023C81.111 78.2985 82.5653 77.812 83.1616 76.6149C88.3504 66.2015 91.0225 52.9376 91.5708 34.8731C91.604 33.7813 90.9024 32.8027 89.8578 32.4834ZM39.3966 42.8767C39.9779 27.6034 61.8723 27.6152 62.448 42.8767V49.8505C61.8668 65.1235 39.9723 65.1122 39.3966 49.8505V42.8767Z" fill="#23408F"/>
<path fill-rule="evenodd" clip-rule="evenodd" d="M83.519 124C99.0135 124 111.651 111.363 111.651 95.8684C110.211 58.6037 56.8205 58.6141 55.3873 95.8686C55.3873 111.363 68.0246 124 83.519 124Z" fill="#D1DEFF"/>
<path d="M78.7225 104.871L76.8244 106.498C77.2994 107.052 77.9927 107.371 78.7225 107.371C79.4524 107.371 80.1457 107.052 80.6207 106.498L78.7225 104.871ZM95.9098 88.6607C96.8084 87.6124 96.687 86.0341 95.6386 85.1356C94.5903 84.237 93.0121 84.3584 92.1135 85.4067L95.9098 88.6607ZM74.505 96.1091C73.6065 95.0608 72.0282 94.9394 70.9799 95.8379C69.9316 96.7365 69.8102 98.3147 70.7088 99.3631L74.505 96.1091ZM80.6207 106.498L95.9098 88.6607L92.1135 85.4067L76.8244 103.244L80.6207 106.498ZM80.6207 103.244L74.505 96.1091L70.7088 99.3631L76.8244 106.498L80.6207 103.244Z" fill="#23408F"/>
<path d="M94.0117 87.0337L82.8937 100.005" stroke="#23408F" stroke-width="5" stroke-linecap="round" stroke-linejoin="round"/>
</svg>
