<svg width="40" height="40" viewBox="0 0 40 40" fill="none" xmlns="http://www.w3.org/2000/svg">
<g clip-path="url(#clip0_214_3356)">
<path fill-rule="evenodd" clip-rule="evenodd" d="M28.5436 14.5976C28.5436 9.88068 24.7191 6.05396 19.9999 6.05396C15.2807 6.05396 11.4563 9.88068 11.4563 14.5976C11.4563 19.3168 15.2808 23.1413 20 23.1413C24.7192 23.1413 28.5436 19.3168 28.5436 14.5976Z" fill="#D1DEFF"/>
<path fill-rule="evenodd" clip-rule="evenodd" d="M7.6008 30.5976L5.08072 20.103C2.18189 20.7984 0.396971 23.7127 1.09236 26.6093C1.78767 29.5081 4.70197 31.2952 7.6008 30.5976Z" fill="#D1DEFF"/>
<path fill-rule="evenodd" clip-rule="evenodd" d="M38.9074 26.6093C39.6028 23.7127 37.8179 20.7983 34.9191 20.103L32.3989 30.5976C35.2978 31.2952 38.2121 29.5081 38.9074 26.6093Z" fill="#D1DEFF"/>
<path d="M34.3858 17.0764C34.5258 16.2584 34.5977 15.4275 34.5977 14.5977C34.5977 6.54852 28.0492 0 20 0C11.9508 0 5.40225 6.54852 5.40225 14.5977C5.40225 15.4275 5.47413 16.2584 5.61413 17.0764C4.56678 17.6655 3.98835 18.8987 4.28116 20.1238L6.87889 30.942C7.18272 32.2048 8.31616 33.0563 9.56272 33.0563C9.77452 33.0563 9.98968 33.0316 10.2044 32.9803C11.6831 32.6238 12.5963 31.132 12.2404 29.6556L9.64296 18.8363C9.35561 17.6339 8.31413 16.8047 7.13936 16.7286C7.02366 16.0249 6.96483 15.3108 6.96483 14.5977C6.96475 7.41008 12.8123 1.5625 20 1.5625C27.1877 1.5625 33.0352 7.41008 33.0352 14.5977C33.0352 15.3109 32.9764 16.025 32.8607 16.7288C31.6867 16.8052 30.6448 17.6338 30.3551 18.8356L27.7598 29.6549C27.4673 30.8684 28.0318 32.0912 29.063 32.6871L28.588 34.6625C28.1911 36.3137 26.5246 37.3342 24.8723 36.9377L23.6991 36.6568L23.9928 35.4327C24.0935 35.0132 23.8351 34.5916 23.4157 34.4907L19.1041 33.4543C19.1038 33.4543 19.1036 33.4542 19.1034 33.4541C17.5889 33.0915 16.0634 34.0277 15.7017 35.5387C15.5254 36.2693 15.6455 37.0264 16.0399 37.6709C16.4345 38.3154 17.0541 38.7669 17.7845 38.942L22.0984 39.9784C22.1587 39.993 22.22 40.0001 22.2809 40.0001C22.4238 40.0001 22.5653 39.9609 22.6891 39.8849C22.8659 39.7766 22.9923 39.6026 23.0406 39.4011L23.3345 38.1762L24.508 38.4571C24.8709 38.5443 25.2343 38.5859 25.5922 38.5859C27.6889 38.5859 29.5962 37.1534 30.1071 35.0278L30.5822 33.0523C31.7701 32.9893 32.829 32.1558 33.1211 30.9417L35.719 20.123C36.0116 18.8985 35.4331 17.6655 34.3858 17.0764ZM8.12335 19.2002L10.7212 30.0211C10.8754 30.6607 10.4793 31.3068 9.83976 31.4609C9.19897 31.6141 8.55233 31.2173 8.39819 30.5768L5.80069 19.7597C5.64764 19.1191 6.04413 18.4726 6.6846 18.3181C7.32577 18.1656 7.97046 18.5607 8.12335 19.2002ZM21.7037 38.2766L18.1493 37.4227C17.8249 37.3448 17.5491 37.1433 17.3726 36.855C17.1963 36.567 17.1424 36.2297 17.2211 35.9038C17.2987 35.5791 17.5001 35.3031 17.7882 35.1267C17.9905 35.0027 18.2174 34.9391 18.4473 34.9391C18.5448 34.9391 18.6429 34.9505 18.7398 34.9737L22.2914 35.8274L21.7037 38.2766ZM34.1995 19.7589L31.6019 30.5766C31.4477 31.2174 30.8004 31.614 30.1617 31.4613C29.5206 31.3068 29.1246 30.6607 29.279 30.0202L31.8742 19.2009C32.0061 18.6541 32.4976 18.2854 33.0378 18.2854C33.1295 18.2854 33.2224 18.296 33.3154 18.3181C33.9559 18.4727 34.3523 19.1191 34.1995 19.7589Z" fill="#23408F"/>
<path d="M20 19.0073C19.5686 19.0073 19.2188 19.3571 19.2188 19.7886V19.793C19.2188 20.2245 19.5686 20.5721 20 20.5721C20.4314 20.5721 20.7812 20.2201 20.7812 19.7887C20.7812 19.3572 20.4314 19.0073 20 19.0073Z" fill="#23408F"/>
<path d="M20.7812 14.8278C21.3504 14.6812 21.8755 14.3768 22.2853 13.9451C22.8866 13.3118 23.1928 12.4817 23.1474 11.6072C23.0618 9.9666 21.7074 8.65597 20.0643 8.62355C20.0428 8.62316 20.0216 8.62292 20.0003 8.62292C18.4301 8.62292 17.094 9.77941 16.8791 11.3339C16.8589 11.4751 16.8491 11.6192 16.8491 11.7742C16.8491 12.2057 17.199 12.5554 17.6304 12.5554C18.0618 12.5554 18.4116 12.2057 18.4116 11.7742C18.4116 11.6938 18.4163 11.622 18.4263 11.5512C18.5362 10.7567 19.2284 10.1683 20.0332 10.1857C20.8614 10.2021 21.5439 10.8623 21.587 11.6884C21.6099 12.1304 21.4555 12.5497 21.1522 12.8693C20.8489 13.1888 20.4397 13.3646 19.9999 13.3646C19.5685 13.3646 19.2187 13.7144 19.2187 14.1459V16.6239C19.2187 17.0554 19.5685 17.4052 19.9999 17.4052C20.4313 17.4052 20.7812 17.0554 20.7812 16.6239V14.8278Z" fill="#23408F"/>
</g>
<defs>
<clipPath id="clip0_214_3356">
<rect width="40" height="40" fill="white"/>
</clipPath>
</defs>
</svg>
