<svg width="44" height="44" viewBox="0 0 44 44" fill="none" xmlns="http://www.w3.org/2000/svg">
<path d="M27.9603 27.6699L22 31.625L16.0397 27.6699C12.0334 25.0113 9.625 20.5228 9.625 15.7146V4.125C12.5709 5.87847 16.2576 5.80379 19.1299 3.93233L22 2.0625L24.8701 3.93233C27.7424 5.80379 31.4291 5.87847 34.375 4.125V15.7146C34.375 20.5228 31.9666 25.0113 27.9603 27.6699Z" fill="#23408F"/>
<path d="M26.6357 25.1325L22 28.1875L17.3643 25.1325C14.2482 23.079 12.375 19.612 12.375 15.8981V7.78061C14.6662 9.13498 17.5337 9.07732 19.7678 7.63185L22 6.1875L24.2322 7.63177C26.4663 9.07723 29.3337 9.13498 31.625 7.78052V15.898C31.625 19.612 29.7518 23.079 26.6357 25.1325Z" fill="#FF4444"/>
<path d="M22 22.6875C25.4173 22.6875 28.1875 19.9173 28.1875 16.5C28.1875 13.0827 25.4173 10.3125 22 10.3125C18.5827 10.3125 15.8125 13.0827 15.8125 16.5C15.8125 19.9173 18.5827 22.6875 22 22.6875Z" fill="#FAD74B"/>
<path d="M25.4375 15.125H23.375V13.0625H20.625V15.125H18.5625V17.875H20.625V19.9375H23.375V17.875H25.4375V15.125Z" fill="#FF4444"/>
<path d="M20.8413 37.125H24.6226C25.5718 37.125 26.3413 36.3555 26.3413 35.4062C26.3413 34.457 25.5718 33.6875 24.6226 33.6875H20.8413L19.7734 32.9756C17.8998 31.7265 15.4813 31.6432 13.5262 32.7604L11.9038 33.6875V35.0625V40.5625L23.7596 41.8105C24.5476 41.8934 25.3429 41.7492 26.0516 41.3949L38.2238 35.3088C39.1963 34.8226 39.4909 33.5744 38.8386 32.7046C38.3619 32.069 37.5157 31.8363 36.781 32.1388L26.3413 36.4375" fill="#FAD74B"/>
<path d="M12.5913 30.9375H6.40381V41.9375H12.5913V30.9375Z" fill="#23408F"/>
<path d="M6.40381 31.625H3.65381V41.25H6.40381V31.625Z" fill="#23408F"/>
</svg>
