<svg width="44" height="44" viewBox="0 0 44 44" fill="none" xmlns="http://www.w3.org/2000/svg">
<path d="M41 12H44V15H41V12Z" fill="#23408F"/>
<path d="M7.50195 18.5156L9.82418 16.1934L12.1464 18.5156L9.82418 20.8378L7.50195 18.5156Z" fill="#23408F"/>
<path d="M44 25.7778L40.9722 26.6586C39.6005 27.0582 38.6545 28.3357 38.6545 29.7892V32H2L6.36323 25L8.09859 22.5257C10.4372 19.191 13.6264 16.6272 17.2727 15.0765C18.9575 14.359 20.7396 13.8583 22.581 13.5978L40.9455 11L44 25.7778Z" fill="#FAD74B"/>
<path d="M41.2 11L39.1597 11.3149L41.9 25.7778L39.1245 26.6586C37.8671 27.0582 37 28.3357 37 29.7892V32H39.1V29.7892C39.1 28.3357 39.9671 27.0582 41.2245 26.6586L44 25.7778L41.2 11Z" fill="#23408F"/>
<path d="M35.3874 27H21.5008C20.4401 27 19.7148 25.9415 20.1087 24.9686L21.0359 22.6785C22.0053 20.284 24.0618 18.4821 26.584 17.8177L33.2773 16.0543C34.1677 15.8196 35.0757 16.3691 35.2687 17.2594L36.9636 25.0738C37.1786 26.0652 36.4137 27 35.3874 27Z" fill="#23408F"/>
<path d="M24 23H33V27H24V23Z" fill="#F8D371"/>
<path d="M18 15V19.437C18 21.957 15.5672 24 12.5665 24H6L7.90883 21.756C10.4812 18.7316 13.9892 16.4064 18 15Z" fill="#FF4444"/>
<path d="M5.95734 15.4189C5.75915 15.4189 5.56105 15.3434 5.40989 15.1922L3.86151 13.6438C3.55919 13.3415 3.55919 12.8513 3.86151 12.549C4.16393 12.2467 4.65399 12.2467 4.95641 12.549L6.5048 14.0974C6.80712 14.3997 6.80712 14.8899 6.5048 15.1922C6.35363 15.3434 6.15554 15.4189 5.95734 15.4189Z" fill="#23408F"/>
<path d="M8.27908 13.871C7.85153 13.871 7.50488 13.5243 7.50488 13.0968V10.7742C7.50488 10.3466 7.85153 10 8.27908 10C8.70662 10 9.05327 10.3466 9.05327 10.7742V13.0968C9.05327 13.5243 8.70662 13.871 8.27908 13.871Z" fill="#23408F"/>
<path d="M4.4083 17.7417H2.08572C1.65817 17.7417 1.31152 17.3951 1.31152 16.9676C1.31152 16.54 1.65817 16.1934 2.08572 16.1934H4.4083C4.83585 16.1934 5.18249 16.54 5.18249 16.9676C5.18249 17.3951 4.83585 17.7417 4.4083 17.7417Z" fill="#23408F"/>
<path d="M41 34H1.51852C0.679822 34 0 33.3285 0 32.5C0 31.6715 0.679822 31 1.51852 31H37.963C39.6403 31 41 32.3432 41 34Z" fill="#23408F"/>
<path d="M38.1429 31H36C37.5779 31 38.8571 32.3432 38.8571 34H41C41 32.3432 39.7208 31 38.1429 31Z" fill="#23408F"/>
</svg>
