<svg width="44" height="44" viewBox="0 0 44 44" fill="none" xmlns="http://www.w3.org/2000/svg">
<path d="M30.0921 5H4.90789C3.85416 5 3 5.82727 3 6.84783V37.1522C3 38.1727 3.85416 39 4.90789 39H30.0921C31.1458 39 32 38.1727 32 37.1522V6.84783C32 5.82727 31.1458 5 30.0921 5Z" fill="#23408F"/>
<path d="M32 12H3V6.75C3 5.78348 3.85416 5 4.90789 5H30.0921C31.1458 5 32 5.78348 32 6.75V12Z" fill="#F7CB63"/>
<path d="M6.5 10C7.32843 10 8 9.32843 8 8.5C8 7.67157 7.32843 7 6.5 7C5.67157 7 5 7.67157 5 8.5C5 9.32843 5.67157 10 6.5 10Z" fill="#FF4444"/>
<path d="M17.5 36C22.7467 36 27 31.5228 27 26C27 20.4772 22.7467 16 17.5 16C12.2533 16 8 20.4772 8 26C8 31.5228 12.2533 36 17.5 36Z" fill="#F7CB63"/>
<path d="M4 36C6.20914 36 8 31.5228 8 26C8 20.4772 6.20914 16 4 16C1.79086 16 0 20.4772 0 26C0 31.5228 1.79086 36 4 36Z" fill="#23408F"/>
<path d="M3.5 33C4.32843 33 5 29.866 5 26C5 22.134 4.32843 19 3.5 19C2.67157 19 2 22.134 2 26C2 29.866 2.67157 33 3.5 33Z" fill="#F7CB63"/>
<path d="M17.5 33C21.0899 33 24 29.866 24 26C24 22.134 21.0899 19 17.5 19C13.9101 19 11 22.134 11 26C11 29.866 13.9101 33 17.5 33Z" fill="#23408F"/>
<path d="M24 25.9091C24 26.0184 23.9973 26.1267 23.9937 26.2341C23.5531 26.0253 23.0665 25.9091 22.5556 25.9091C20.5613 25.9091 18.9444 27.673 18.9444 29.8485C18.9444 30.8717 19.3028 31.8054 19.8906 32.5056C19.1503 32.8247 18.3441 33 17.5 33C16.6559 33 15.8497 32.8247 15.1094 32.5056C15.6972 31.8054 16.0556 30.8717 16.0556 29.8485C16.0556 27.673 14.4387 25.9091 12.4444 25.9091C11.9335 25.9091 11.4469 26.0253 11.0063 26.2341C11.0027 26.1267 11 26.0184 11 25.9091C11 23.443 12.1547 21.2705 13.9069 20C14.0875 21.9904 15.6276 23.5455 17.5 23.5455C19.3724 23.5455 20.9125 21.9904 21.0931 20C22.8453 21.2705 24 23.443 24 25.9091Z" fill="white"/>
<path d="M42 23V27H29.25C28.0078 27 27 26.1042 27 25C27 24.4483 27.2522 23.9483 27.6591 23.5858C28.0669 23.2242 28.6294 23 29.25 23H42Z" fill="white"/>
<path d="M21 7H30V10H21V7Z" fill="#5A90E0"/>
<path d="M12.1378 9.10342H11.3792C10.9603 9.10342 10.6206 8.76375 10.6206 8.3448C10.6206 7.92585 10.9603 7.58618 11.3792 7.58618H12.1378C12.5568 7.58618 12.8965 7.92585 12.8965 8.3448C12.8965 8.76375 12.5568 9.10342 12.1378 9.10342Z" fill="#FF4444"/>
<path d="M15.1725 9.10342H14.4139C13.9949 9.10342 13.6553 8.76375 13.6553 8.3448C13.6553 7.92585 13.9949 7.58618 14.4139 7.58618H15.1725C15.5915 7.58618 15.9311 7.92585 15.9311 8.3448C15.9311 8.76375 15.5915 9.10342 15.1725 9.10342Z" fill="#FF4444"/>
<path d="M18.2069 9.10342H17.4483C17.0294 9.10342 16.6897 8.76375 16.6897 8.3448C16.6897 7.92585 17.0294 7.58618 17.4483 7.58618H18.2069C18.6259 7.58618 18.9656 7.92585 18.9656 8.3448C18.9656 8.76375 18.6259 9.10342 18.2069 9.10342Z" fill="#FF4444"/>
<path d="M39.2056 39H30.7943C29.4482 39 28.3034 38.0651 28.0987 36.7986L27 30H43L41.9013 36.7986C41.6965 38.0651 40.5518 39 39.2056 39Z" fill="#F7CB63"/>
<path d="M42.5 30H27.5C26.6715 30 26 29.3285 26 28.5C26 27.6715 26.6715 27 27.5 27H42.5C43.3285 27 44 27.6715 44 28.5C44 29.3285 43.3285 30 42.5 30Z" fill="#FF4444"/>
<path d="M34.8966 37.931C34.4776 37.931 34.1379 37.5914 34.1379 37.1724V32.6207C34.1379 32.2017 34.4776 31.8621 34.8966 31.8621C35.3155 31.8621 35.6552 32.2017 35.6552 32.6207V37.1724C35.6552 37.5914 35.3155 37.931 34.8966 37.931Z" fill="#FF4444"/>
<path d="M38.6898 37.931C38.2708 37.931 37.9312 37.5914 37.9312 37.1724V32.6207C37.9312 32.2017 38.2708 31.8621 38.6898 31.8621C39.1087 31.8621 39.4484 32.2017 39.4484 32.6207V37.1724C39.4484 37.5914 39.1087 37.931 38.6898 37.931Z" fill="#FF4444"/>
<path d="M31.1033 37.931C30.6844 37.931 30.3447 37.5914 30.3447 37.1724V32.6207C30.3447 32.2017 30.6844 31.8621 31.1033 31.8621C31.5223 31.8621 31.862 32.2017 31.862 32.6207V37.1724C31.862 37.5914 31.5223 37.931 31.1033 37.931Z" fill="#FF4444"/>
<path d="M40.2069 34.8966H29.5863C29.1673 34.8966 28.8276 34.5569 28.8276 34.138C28.8276 33.719 29.1673 33.3793 29.5863 33.3793H40.2069C40.6259 33.3793 40.9656 33.719 40.9656 34.138C40.9656 34.5569 40.6259 34.8966 40.2069 34.8966Z" fill="#FF4444"/>
<path d="M39.4483 37.1724H30.3448C29.9259 37.1724 29.5862 36.8327 29.5862 36.4138C29.5862 35.9948 29.9259 35.6552 30.3448 35.6552H39.4483C39.8672 35.6552 40.2069 35.9948 40.2069 36.4138C40.2069 36.8327 39.8672 37.1724 39.4483 37.1724Z" fill="#FF4444"/>
<path d="M42.4827 24.2759V25.7931H35.6551C35.236 25.7931 34.8965 25.4536 34.8965 25.0345C34.8965 24.6154 35.236 24.2759 35.6551 24.2759H42.4827Z" fill="#5A8FDE"/>
<path d="M42 18V23H29.25C28.0078 23 27 21.8802 27 20.5C27 19.8104 27.2522 19.1854 27.6591 18.7323C28.0669 18.2802 28.6294 18 29.25 18H42Z" fill="#FF4444"/>
<path d="M42.4827 19.7241V21.2414H35.6551C35.236 21.2414 34.8965 20.9019 34.8965 20.4827C34.8965 20.0636 35.236 19.7241 35.6551 19.7241H42.4827Z" fill="#FF4444"/>
</svg>
