<svg width="20" height="20" viewBox="0 0 20 20" fill="none" xmlns="http://www.w3.org/2000/svg">
<path d="M15.9166 9.3129C15.9166 11.0123 15.2356 12.9018 14.1184 14.3616C12.9976 15.8261 11.5282 16.75 9.99992 16.75V18.25C12.1535 18.25 14.0175 16.9617 15.3096 15.2733C16.6052 13.5803 17.4166 11.3761 17.4166 9.3129H15.9166ZM9.99992 16.75C8.47161 16.75 7.00223 15.8261 5.88147 14.3616C4.76424 12.9018 4.08325 11.0123 4.08325 9.3129H2.58325C2.58325 11.3761 3.39465 13.5803 4.69027 15.2733C5.98238 16.9617 7.84633 18.25 9.99992 18.25V16.75ZM4.08325 9.3129C4.08325 5.94903 6.74749 3.25 9.99992 3.25V1.75C5.88855 1.75 2.58325 5.15145 2.58325 9.3129H4.08325ZM9.99992 3.25C13.2523 3.25 15.9166 5.94903 15.9166 9.3129H17.4166C17.4166 5.15145 14.1113 1.75 9.99992 1.75V3.25Z" fill="#23408F"/>
<path d="M7.91675 8.75002C7.91675 7.59943 8.84949 6.66669 10.0001 6.66669C11.1507 6.66669 12.0834 7.59943 12.0834 8.75002C12.0834 9.90061 11.1507 10.8334 10.0001 10.8334C8.84949 10.8334 7.91675 9.90061 7.91675 8.75002Z" stroke="#23408F" stroke-width="1.5"/>
</svg>
