<svg width="24" height="24" viewBox="0 0 24 24" fill="none" xmlns="http://www.w3.org/2000/svg">
<path d="M6.89404 7.43059C6.89404 7.84481 7.22983 8.18059 7.64404 8.18059C8.05826 8.18059 8.39404 7.84481 8.39404 7.43059H6.89404ZM7.64404 7.12771H6.89404H7.64404ZM16.356 7.12772H15.606H16.356ZM15.606 7.4306C15.606 7.84481 15.9418 8.1806 16.356 8.1806C16.7703 8.1806 17.106 7.84481 17.106 7.4306H15.606ZM10.8518 3.14126L10.6698 2.41368L10.6698 2.41368L10.8518 3.14126ZM13.1483 3.14126L13.3303 2.41368H13.3303L13.1483 3.14126ZM8.39404 7.43059V7.12771H6.89404V7.43059H8.39404ZM15.606 7.12772V7.4306H17.106V7.12772H15.606ZM11.0338 3.86884C11.6672 3.71039 12.3328 3.71039 12.9663 3.86884L13.3303 2.41368C12.4579 2.19544 11.5422 2.19544 10.6698 2.41368L11.0338 3.86884ZM17.106 7.12772C17.106 4.88982 15.535 2.96519 13.3303 2.41368L12.9663 3.86884C14.54 4.2625 15.606 5.61508 15.606 7.12772H17.106ZM8.39404 7.12771C8.39404 5.61508 9.46009 4.2625 11.0338 3.86884L10.6698 2.41368C8.46504 2.96519 6.89404 4.88982 6.89404 7.12771H8.39404Z" fill="#23408F"/>
<path d="M4.6531 17.0263L3.95839 17.309L3.95839 17.309L4.6531 17.0263ZM4.30609 11.3972L5.03006 11.593L4.30609 11.3972ZM19.6939 11.3971L18.9699 11.593L19.6939 11.3971ZM19.3469 17.0263L20.0416 17.309V17.309L19.3469 17.0263ZM14.0365 20.8418L13.9206 20.1008L14.0365 20.8418ZM9.96352 20.8418L10.0794 20.1008L9.96352 20.8418ZM8.65619 7.60216L8.50672 6.86721L8.65619 7.60216ZM15.3438 7.60216L15.4933 6.86721L15.4933 6.86721L15.3438 7.60216ZM9.21479 20.7247L9.0989 21.4657L9.21479 20.7247ZM4.74598 17.2547L5.44069 16.972L5.44069 16.972L4.74598 17.2547ZM14.7852 20.7247L14.9011 21.4657L14.7852 20.7247ZM19.254 17.2547L18.5593 16.972V16.972L19.254 17.2547ZM15.6199 7.65832L15.4705 8.39327L15.4705 8.39327L15.6199 7.65832ZM8.38009 7.65832L8.52956 8.39327L8.38009 7.65832ZM8.52956 8.39327L8.80567 8.33712L8.50672 6.86721L8.23062 6.92336L8.52956 8.39327ZM15.1943 8.33712L15.4705 8.39327L15.7694 6.92337L15.4933 6.86721L15.1943 8.33712ZM14.6693 19.9837L13.9206 20.1008L14.1523 21.5828L14.9011 21.4657L14.6693 19.9837ZM10.0794 20.1008L9.33068 19.9837L9.0989 21.4657L9.84762 21.5828L10.0794 20.1008ZM18.6522 16.7437L18.5593 16.972L19.9487 17.5373L20.0416 17.309L18.6522 16.7437ZM5.44069 16.972L5.3478 16.7437L3.95839 17.309L4.05128 17.5373L5.44069 16.972ZM5.34781 16.7437C4.67941 15.1008 4.56858 13.2988 5.03006 11.593L3.58212 11.2013C3.03465 13.2248 3.1667 15.363 3.95839 17.309L5.34781 16.7437ZM18.9699 11.593C19.4314 13.2988 19.3206 15.1008 18.6522 16.7437L20.0416 17.309C20.8333 15.363 20.9654 13.2248 20.4179 11.2013L18.9699 11.593ZM13.9206 20.1008C12.6486 20.2998 11.3514 20.2998 10.0794 20.1008L9.84762 21.5828C11.2732 21.8058 12.7268 21.8058 14.1523 21.5828L13.9206 20.1008ZM8.80567 8.33712C10.9118 7.90879 13.0882 7.90879 15.1943 8.33712L15.4933 6.86721C13.1899 6.39876 10.8101 6.39876 8.50672 6.86721L8.80567 8.33712ZM9.33068 19.9837C7.55628 19.7062 6.08366 18.5524 5.44069 16.972L4.05128 17.5373C4.90076 19.6253 6.82633 21.1103 9.0989 21.4657L9.33068 19.9837ZM14.9011 21.4657C17.1736 21.1103 19.0992 19.6253 19.9487 17.5373L18.5593 16.972C17.9163 18.5525 16.4437 19.7062 14.6693 19.9837L14.9011 21.4657ZM15.4705 8.39327C17.1912 8.74323 18.5368 9.99215 18.9699 11.593L20.4179 11.2013C19.8298 9.02769 18.0205 7.38118 15.7694 6.92336L15.4705 8.39327ZM8.23062 6.92336C5.97952 7.38118 4.17018 9.02769 3.58212 11.2013L5.03006 11.593C5.46317 9.99215 6.80883 8.74323 8.52956 8.39327L8.23062 6.92336Z" fill="black"/>
<path d="M12.75 13.5C12.75 13.0858 12.4142 12.75 12 12.75C11.5858 12.75 11.25 13.0858 11.25 13.5L12.75 13.5ZM11.25 15.5C11.25 15.9142 11.5858 16.25 12 16.25C12.4142 16.25 12.75 15.9142 12.75 15.5H11.25ZM11.25 13.5L11.25 15.5H12.75L12.75 13.5L11.25 13.5Z" fill="#23408F"/>
</svg>
