<svg width="80" height="80" viewBox="0 0 80 80" fill="none" xmlns="http://www.w3.org/2000/svg">
<path d="M68.7501 63.8894C68.5724 62.2194 67.8815 60.6455 66.7726 59.3842C65.6636 58.1229 64.1911 57.2363 62.5576 56.8463L47.4507 53.2381L46.852 46.1925C45.8707 46.9126 44.8335 47.553 43.7501 48.1075C42.5896 48.6997 41.3054 49.0085 40.0026 49.0085C38.6998 49.0085 37.4155 48.6997 36.2551 48.1075C35.1715 47.5534 34.1343 46.9133 33.1532 46.1931L32.5551 53.2381L17.4413 56.8463C15.808 57.2365 14.3358 58.1232 13.2271 59.3845C12.1184 60.6457 11.4277 62.2195 11.2501 63.8894L9.95508 76.0581H70.0463L68.7501 63.8894Z" fill="#FFE17D"/>
<path d="M47.4508 76.0581V53.2381C47.4508 55.2142 46.6658 57.1093 45.2686 58.5065C43.8713 59.9038 41.9762 60.6888 40.0002 60.6888C38.0242 60.6888 36.1291 59.9038 34.7318 58.5065C33.3345 57.1093 32.5496 55.2142 32.5496 53.2381V76.0581H47.4508Z" fill="#E6646E"/>
<path d="M27.4369 54.4594L24.5256 68.5038L32.5494 65.69V53.2381L27.4369 54.4594Z" fill="#FFD164"/>
<path d="M52.5632 54.4594L55.4744 68.5038L47.4507 65.69V53.2381L52.5632 54.4594Z" fill="#FFD164"/>
<path d="M24.5257 27.995L27.057 25.4419C28.2354 24.2534 28.9904 22.7104 29.2057 21.0506L29.7257 17.04C33.0965 17.8019 36.5445 18.1691 40.0001 18.1344C43.4557 18.1691 46.9037 17.8019 50.2745 17.04L50.7945 21.0506C51.0093 22.7105 51.7644 24.2536 52.9432 25.4419L55.4745 27.995C56.2098 27.6662 57.0125 27.5162 57.817 27.5575V20.4144C57.817 3.94186 42.2988 3.94186 42.2988 3.94186H23.8438C23.8438 8.19186 27.6938 10.2325 27.6938 10.2325C26.0817 10.8059 24.6865 11.8642 23.6999 13.2623C22.7134 14.6603 22.1838 16.3295 22.1838 18.0406V27.5581C22.988 27.5168 23.7905 27.6665 24.5257 27.995Z" fill="#763E1D"/>
<path d="M24.5257 27.995C24.5257 27.995 21.0307 26.3187 19.8551 29.41C18.9476 31.7975 20.5345 36.3662 25.547 35.4062H54.4532C59.4651 36.3662 61.0526 31.7975 60.1451 29.41C58.9695 26.3187 55.4745 27.995 55.4745 27.995H24.5257Z" fill="#FEB983"/>
<path d="M24.5256 27.995L27.0569 25.4419C28.2353 24.2534 28.9903 22.7104 29.2056 21.0506L29.7256 17.04C33.0964 17.8019 36.5444 18.1692 40 18.1344C43.4556 18.1692 46.9036 17.8019 50.2744 17.04L50.7944 21.0506C51.0093 22.7105 51.7643 24.2536 52.9431 25.4419L55.4744 27.995C55.4744 40.165 48.3275 45.7675 43.7475 48.1075C42.5871 48.6997 41.3028 49.0085 40 49.0085C38.6972 49.0085 37.4129 48.6997 36.2525 48.1075C31.6725 45.7675 24.5256 40.165 24.5256 27.995Z" fill="#FCD0A3"/>
<path d="M46.8502 46.1925C45.8696 46.9125 44.8329 47.5529 43.7502 48.1075C42.5897 48.6997 41.3055 49.0085 40.0027 49.0085C38.6999 49.0085 37.4156 48.6997 36.2552 48.1075C35.1716 47.5534 34.1343 46.9133 33.1533 46.1931L32.5552 53.2381C32.5552 55.2142 33.3401 57.1093 34.7374 58.5065C36.1347 59.9038 38.0298 60.6888 40.0058 60.6888C41.9818 60.6888 43.8769 59.9038 45.2742 58.5065C46.6715 57.1093 47.4564 55.2142 47.4564 53.2381L46.8577 46.1925H46.8502Z" fill="#FEB983"/>
<path d="M40.0001 41.3081C38.4179 41.3467 36.8494 41.0053 35.4264 40.3125C35.1738 40.1696 34.9884 39.9323 34.9109 39.6527C34.8333 39.3731 34.8701 39.0741 35.0129 38.8216C35.1558 38.569 35.3932 38.3836 35.6728 38.3061C35.9524 38.2285 36.2513 38.2653 36.5039 38.4081C37.6 38.9082 38.7957 39.1519 40.0001 39.1206C41.2062 39.1517 42.4034 38.9065 43.5001 38.4038C43.6255 38.3333 43.7635 38.2881 43.9062 38.271C44.049 38.2538 44.1937 38.2649 44.3322 38.3037C44.4707 38.3424 44.6002 38.4081 44.7133 38.4969C44.8264 38.5857 44.9209 38.6959 44.9914 38.8213C45.0619 38.9466 45.107 39.0846 45.1242 39.2274C45.1414 39.3701 45.1302 39.5149 45.0915 39.6534C45.0527 39.7918 44.987 39.9213 44.8982 40.0344C44.8094 40.1475 44.6992 40.242 44.5739 40.3125C43.1508 41.0052 41.5824 41.3466 40.0001 41.3081Z" fill="#763E1D"/>
<path d="M36.3844 27.4713C36.1194 27.4712 35.8633 27.3751 35.6638 27.2006C35.1335 26.8717 34.5219 26.6975 33.8978 26.6975C33.2738 26.6975 32.6622 26.8717 32.1319 27.2006C31.9115 27.3852 31.6278 27.4765 31.3412 27.4552C31.0545 27.4338 30.7875 27.3015 30.5969 27.0863C30.4081 26.873 30.3108 26.594 30.326 26.3096C30.3412 26.0252 30.4677 25.7582 30.6782 25.5663C31.5917 24.8419 32.7337 24.4672 33.8988 24.5094C35.0639 24.4672 36.2059 24.8419 37.1194 25.5663C37.283 25.7147 37.3978 25.9091 37.4487 26.124C37.4996 26.3389 37.4843 26.5642 37.4048 26.7702C37.3252 26.9762 37.1852 27.1533 37.0031 27.2782C36.8209 27.4032 36.6053 27.47 36.3844 27.47V27.4713Z" fill="#763E1D"/>
<path d="M35.4082 30.1294C35.4082 30.4279 35.3196 30.7197 35.1538 30.9679C34.9879 31.2161 34.7522 31.4096 34.4764 31.5238C34.2006 31.6381 33.8971 31.668 33.6043 31.6097C33.3115 31.5515 33.0426 31.4077 32.8315 31.1967C32.6204 30.9856 32.4766 30.7166 32.4184 30.4238C32.3602 30.131 32.3901 29.8276 32.5043 29.5518C32.6185 29.276 32.812 29.0402 33.0602 28.8744C33.3084 28.7085 33.6003 28.62 33.8988 28.62C34.097 28.6199 34.2933 28.6589 34.4765 28.7347C34.6597 28.8105 34.8261 28.9217 34.9663 29.0619C35.1064 29.2021 35.2176 29.3685 35.2934 29.5517C35.3693 29.7348 35.4082 29.9311 35.4082 30.1294Z" fill="#763E1D"/>
<path d="M48.5856 27.4712C48.3207 27.4712 48.0649 27.375 47.8656 27.2006C47.3354 26.8717 46.7238 26.6975 46.0999 26.6975C45.476 26.6975 44.8645 26.8717 44.3343 27.2006C44.1137 27.3847 43.8302 27.4758 43.5436 27.4544C43.2571 27.4331 42.9901 27.301 42.7993 27.0862C42.6104 26.8731 42.513 26.594 42.5282 26.3096C42.5434 26.0251 42.67 25.7581 42.8806 25.5662C43.8141 24.8801 44.9423 24.5101 46.1009 24.5101C47.2594 24.5101 48.3877 24.8801 49.3212 25.5662C49.4848 25.7147 49.5996 25.9092 49.6505 26.1241C49.7014 26.3391 49.6861 26.5644 49.6064 26.7705C49.5268 26.9765 49.3867 27.1536 49.2044 27.2785C49.0222 27.4034 48.8065 27.4701 48.5856 27.47V27.4712Z" fill="#763E1D"/>
<path d="M47.6101 30.1294C47.6101 30.4279 47.5215 30.7198 47.3556 30.968C47.1898 31.2162 46.954 31.4097 46.6782 31.5239C46.4023 31.6381 46.0988 31.668 45.806 31.6097C45.5132 31.5514 45.2442 31.4076 45.0332 31.1964C44.8221 30.9853 44.6784 30.7163 44.6202 30.4234C44.5621 30.1306 44.592 29.8271 44.7064 29.5513C44.8207 29.2755 45.0143 29.0398 45.2626 28.8741C45.5109 28.7083 45.8028 28.6199 46.1013 28.62C46.2995 28.62 46.4957 28.659 46.6788 28.7349C46.8619 28.8108 47.0283 28.922 47.1684 29.0621C47.3085 29.2023 47.4196 29.3687 47.4954 29.5518C47.5712 29.7349 47.6101 29.9312 47.6101 30.1294Z" fill="#763E1D"/>
</svg>
