<svg width="46" height="46" viewBox="0 0 46 46" fill="none" xmlns="http://www.w3.org/2000/svg">
<path fill-rule="evenodd" clip-rule="evenodd" d="M0 0H46V46H0V0Z" fill="white"/>
<path fill-rule="evenodd" clip-rule="evenodd" d="M22.9525 33.2889C25.3838 35.4744 28.6487 36.8 32.2 36.8C39.827 36.8 46 30.7312 46 23.2671C46 15.7802 39.827 9.71112 32.2 9.71112C28.6487 9.71112 25.3838 11.0365 22.9525 13.2222C20.1639 15.7101 18.4 19.291 18.4 23.2671C18.4003 27.2431 20.1639 30.8243 22.9525 33.2889V33.2889Z" fill="#E9B040"/>
<path fill-rule="evenodd" clip-rule="evenodd" d="M43.9556 31.1638C43.9556 30.8875 44.1768 30.6667 44.453 30.6667C44.7569 30.6667 44.9778 30.8878 44.9778 31.1638C44.9778 31.4681 44.7566 31.6889 44.453 31.6889C44.1768 31.6889 43.9556 31.4681 43.9556 31.1638ZM44.453 31.5787C44.6742 31.5787 44.8672 31.3849 44.8672 31.1641C44.8672 30.9434 44.6739 30.7776 44.453 30.7776C44.2591 30.7776 44.0662 30.9434 44.0662 31.1641C44.0662 31.3849 44.2594 31.5787 44.453 31.5787ZM44.3977 31.4129H44.2871V30.943H44.4803C44.5083 30.943 44.5636 30.9431 44.591 30.971C44.6463 30.9983 44.6463 31.0263 44.6463 31.0816C44.6463 31.1368 44.6189 31.1921 44.5636 31.1921L44.6742 31.4132H44.5357L44.4803 31.2194H44.3977V31.4129V31.1365H44.5083C44.5357 31.1365 44.5357 31.1085 44.5357 31.0812C44.5357 31.0533 44.5357 31.0533 44.5083 31.026H44.3977V31.4129V31.4129Z" fill="#E9B040"/>
<path fill-rule="evenodd" clip-rule="evenodd" d="M27.5285 21.8257C27.4808 21.3375 27.3854 20.8725 27.29 20.384H18.8527C18.948 19.8958 19.0911 19.4308 19.2339 18.9656H26.885C26.7189 18.4761 26.528 17.995 26.313 17.5239H19.83C20.0684 17.0314 20.3309 16.5503 20.6165 16.0823H25.5028C25.1885 15.5857 24.838 15.1117 24.4543 14.6639H21.6654C22.0968 14.1499 22.5668 13.668 23.0716 13.2222C20.6168 11.0597 17.3752 9.71112 13.8 9.71112C6.19688 9.71112 0 15.7802 0 23.2671C0 30.7312 6.19688 36.8 13.8 36.8C17.3752 36.8 20.6165 35.4744 23.0716 33.2889C23.5687 32.8509 24.0309 32.3766 24.4543 31.8702H21.6654C21.2839 31.4053 20.9503 30.9403 20.6165 30.4286H25.5028C25.8101 29.9688 26.081 29.4868 26.3133 28.9869H19.83C19.6154 28.522 19.4011 28.057 19.2339 27.5682H26.885C27.0516 27.1033 27.1711 26.6153 27.2897 26.1266C27.3851 25.6616 27.4805 25.1737 27.5282 24.6849C27.5765 24.2135 27.6005 23.74 27.6 23.2662C27.6 22.7788 27.5761 22.2906 27.5285 21.8257V21.8257Z" fill="#CC2131"/>
<path fill-rule="evenodd" clip-rule="evenodd" d="M43.9556 26.5774C43.9556 26.2817 44.1768 26.0667 44.453 26.0667C44.7569 26.0667 44.9778 26.282 44.9778 26.5774C44.9778 26.8466 44.7566 27.0889 44.453 27.0889C44.1768 27.0889 43.9556 26.8463 43.9556 26.5774ZM44.453 26.954C44.6742 26.954 44.8672 26.7925 44.8672 26.5774C44.8672 26.3624 44.6739 26.2009 44.453 26.2009C44.2591 26.2009 44.0662 26.3624 44.0662 26.5774C44.0662 26.7925 44.2594 26.954 44.453 26.954ZM44.3977 26.7925H44.2871V26.3621H44.591C44.6463 26.3893 44.6463 26.4432 44.6463 26.497C44.6463 26.5236 44.6189 26.5774 44.5636 26.6047L44.6742 26.7928H44.5357L44.4803 26.6313H44.3977V26.7925V26.5505H44.453C44.4803 26.5505 44.5083 26.5505 44.5083 26.5233C44.5357 26.5233 44.5357 26.4967 44.5357 26.4695C44.5357 26.4695 44.5357 26.4429 44.5083 26.4429C44.5083 26.4156 44.4803 26.4429 44.453 26.4429H44.3977V26.7925V26.7925Z" fill="white"/>
<path fill-rule="evenodd" clip-rule="evenodd" d="M18.2896 27.4002C17.8428 27.5248 17.5133 27.6 17.1841 27.6C16.4783 27.6 16.0547 27.1254 16.0547 26.2763C16.0547 26.1017 16.0782 25.9268 16.1018 25.727L16.1959 25.153L16.2665 24.6784L16.9017 20.5832H18.3132L18.1484 21.4822H19.0425L18.8307 22.9805H17.9366L17.5603 25.4275C17.5368 25.5527 17.5368 25.6274 17.5368 25.6773C17.5368 26.0021 17.678 26.1267 18.0308 26.1267C18.1955 26.1267 18.3364 26.102 18.4776 26.0767L18.2896 27.4002V27.4002ZM22.8537 27.3502C22.3362 27.5001 21.8658 27.5747 21.348 27.5747C19.7482 27.5747 18.8307 26.6757 18.8307 24.9032C18.8307 22.8303 19.913 21.332 21.4183 21.332C22.618 21.332 23.3944 22.1811 23.3944 23.5042C23.3944 23.9542 23.3473 24.3786 23.2299 24.9778H20.2892C20.2657 25.0778 20.2657 25.1277 20.2657 25.1777C20.2657 25.8769 20.7126 26.2263 21.5595 26.2263C22.1006 26.2263 22.571 26.1017 23.0887 25.8522L22.8537 27.3502ZM21.9832 23.7793V23.4795C21.9832 22.9802 21.7243 22.7054 21.2774 22.7054C20.8067 22.7054 20.4775 23.0798 20.3363 23.779H21.9832V23.7793V23.7793ZM6.99749 27.4748H5.53891L6.38587 21.8067L4.48041 27.4748H3.46898L3.3513 21.8316L2.45727 27.4748H1.02222L2.17485 20.1085H4.31567L4.36273 24.6537L5.79779 20.1085H8.15041L6.99749 27.4748V27.4748ZM10.5501 24.8033C10.4089 24.778 10.3618 24.778 10.2677 24.778C9.42072 24.778 8.99737 25.1274 8.99737 25.677C8.99737 26.0517 9.20919 26.3016 9.53839 26.3016C10.2442 26.3016 10.5263 25.677 10.5501 24.8033ZM11.7263 27.4748H10.456L10.4795 26.8509C10.15 27.3249 9.70313 27.5747 8.92677 27.5747C8.22101 27.5747 7.60939 26.9008 7.60939 25.9268C7.60939 25.6523 7.65646 25.4028 7.72706 25.153C7.96213 24.2287 8.83263 23.6547 10.1735 23.6294C10.3383 23.6294 10.5969 23.6294 10.8322 23.6547C10.879 23.4549 10.879 23.3796 10.879 23.255C10.879 22.8553 10.5734 22.7304 9.89113 22.7304C9.46779 22.7304 8.9971 22.8053 8.66789 22.9302L8.45608 22.9802L8.36194 23.0049L8.57375 21.6565C9.25598 21.4316 9.74992 21.332 10.2912 21.332C11.5615 21.332 12.2438 21.9563 12.2438 23.1048C12.2438 23.4046 12.2673 23.6294 12.1732 24.2787L11.8439 26.4262L11.7969 26.8009L11.7733 27.1007L11.7498 27.3005L11.7263 27.4748V27.4748ZM29.9583 21.5319C30.3817 21.5319 30.7582 21.6568 31.2757 21.9313L31.5343 20.3331C31.3931 20.2581 31.346 20.2581 31.158 20.1832L30.5702 20.0083C30.382 19.9583 30.1469 19.9333 29.8877 19.9333C29.1582 19.9333 28.7348 19.9583 28.2882 20.2331C28.0529 20.408 27.7469 20.6328 27.4174 21.0322L27.2292 20.9823L25.7235 22.1059L25.7944 21.4816H24.2414L23.3244 27.4745H24.8068L25.3475 24.2537C25.3475 24.2537 25.5596 23.8037 25.6534 23.6544C25.9359 23.2797 26.1709 23.2797 26.4766 23.2797H26.5946C26.5452 23.6603 26.5215 24.0441 26.5237 24.4282C26.5237 26.3759 27.5586 27.5997 29.1584 27.5997C29.5585 27.5997 29.9118 27.5498 30.4526 27.3999L30.7117 25.702C30.2413 25.9765 29.8177 26.1014 29.4647 26.1014C28.5944 26.1014 28.0764 25.4022 28.0764 24.3036C28.0758 22.6804 28.8525 21.5319 29.9583 21.5319V21.5319ZM42.4496 20.1085L42.1207 22.2061C41.7677 21.6318 41.3441 21.357 40.7795 21.357C40.0029 21.357 39.2738 21.8314 38.8267 22.7304V22.7057L37.8859 22.1061L37.98 21.4819H36.4037L35.5097 27.4748H36.9683L37.4625 24.254C37.4625 24.254 37.8388 23.804 37.9329 23.6547C38.1683 23.3549 38.4033 23.3047 38.5916 23.28C38.4272 23.7793 38.333 24.3786 38.333 25.0531C38.333 26.5514 39.062 27.55 40.1441 27.55C40.6854 27.55 41.1087 27.3502 41.5085 26.8756L41.4382 27.4748H42.8265L43.9556 20.1085H42.4496V20.1085ZM40.6386 26.0517C40.1443 26.0517 39.8857 25.6523 39.8857 24.8779C39.8857 23.7041 40.3562 22.8553 41.0381 22.8553C41.5556 22.8553 41.8147 23.28 41.8147 24.0291C41.8147 25.2277 41.3443 26.0517 40.6386 26.0517V26.0517ZM33.8401 24.8033C33.6989 24.778 33.6519 24.778 33.5577 24.778C32.7102 24.778 32.2869 25.1274 32.2869 25.677C32.2869 26.0517 32.4989 26.3016 32.8282 26.3016C33.5339 26.3016 33.8163 25.677 33.8401 24.8033ZM35.0163 27.4748H33.7222L33.7693 26.8509C33.4401 27.3249 32.9926 27.5747 32.2168 27.5747C31.4872 27.5747 30.8524 26.9255 30.8524 25.9268C30.8524 24.5038 31.8635 23.6297 33.4633 23.6297C33.6283 23.6297 33.8867 23.6297 34.0987 23.655C34.1458 23.4551 34.1696 23.3799 34.1696 23.2553C34.1696 22.8556 33.8637 22.7307 33.1579 22.7307C32.7578 22.7307 32.2639 22.8056 31.9347 22.9305L31.7464 22.9805L31.6523 23.0052L31.8638 21.6568C32.5463 21.4319 33.0405 21.3323 33.5813 21.3323C34.8516 21.3323 35.5103 21.9566 35.5103 23.1051C35.5103 23.4049 35.5573 23.6297 35.4399 24.2789L35.134 26.4265L35.0869 26.8012L35.0398 27.101L35.0166 27.3008V27.4748H35.0163V27.4748ZM14.8079 22.7554C15.0903 22.7554 15.4901 22.7804 15.9138 22.8553L16.1256 21.4569C15.7019 21.407 15.1374 21.332 14.8079 21.332C13.1613 21.332 12.6203 22.281 12.6203 23.3796C12.6203 24.1041 12.926 24.6281 13.7259 25.0275C14.314 25.3273 14.4081 25.377 14.4081 25.652C14.4081 26.0262 14.1024 26.2513 13.5376 26.2513C13.0907 26.2513 12.6671 26.1761 12.1967 26.0015L12.0319 27.3746L12.0552 27.3999L12.3376 27.4498C12.4318 27.4745 12.5494 27.4998 12.7142 27.5245C13.0669 27.5498 13.3729 27.5744 13.5611 27.5744C15.208 27.5744 15.8902 26.9005 15.8902 25.5768C15.8902 24.753 15.5137 24.2537 14.7844 23.9042C14.1492 23.6042 14.0786 23.5548 14.0786 23.2797C14.0786 23.0052 14.361 22.7554 14.8079 22.7554V22.7554Z" fill="#1B3771"/>
<path fill-rule="evenodd" clip-rule="evenodd" d="M32.0485 19.7967L31.7889 21.395C31.2706 21.1202 30.8934 20.9955 30.4694 20.9955C29.3617 20.9955 28.5844 22.1441 28.5844 23.7674C28.5844 24.8913 29.1027 25.5653 29.9749 25.5653C30.328 25.5653 30.7523 25.4407 31.2235 25.1911L30.9644 26.8638C30.4222 27.0137 30.0689 27.0889 29.6682 27.0889C28.066 27.0889 27.0762 25.8651 27.0762 23.8926C27.0762 21.2704 28.4429 19.4222 30.3987 19.4222C30.6577 19.4222 30.8932 19.4472 31.0817 19.4972L31.6711 19.6471C31.8599 19.722 31.9071 19.747 32.0485 19.7967V19.7967ZM27.2884 20.8956H27.1469C26.6525 20.8956 26.3696 21.1454 25.9217 21.8693L26.0631 20.9453H24.7197L23.8012 26.9387H25.286C25.8277 23.2678 25.9691 22.6435 26.676 22.6435H26.7703C26.9118 21.9193 27.1001 21.3947 27.3358 20.9203L27.2884 20.8956V20.8956ZM18.7585 26.8638C18.358 27.0137 18.028 27.0636 17.6982 27.0636C16.9442 27.0636 16.5198 26.6142 16.5198 25.7404C16.5198 25.5906 16.5434 25.391 16.567 25.2158L16.6613 24.6165L16.732 24.1424L17.3682 20.0465H18.8292L18.6642 20.9456H19.4182L19.2297 22.419H18.4756L18.0751 24.9163C18.0515 25.0162 18.0515 25.0915 18.0515 25.1661C18.0515 25.4659 18.193 25.5908 18.5463 25.5908C18.7113 25.5908 18.8525 25.5908 18.9468 25.5409L18.7585 26.8638V26.8638ZM13.0795 22.8434C13.0795 23.5928 13.4093 24.1169 14.1869 24.5166C14.7995 24.8164 14.8938 24.916 14.8938 25.1658C14.8938 25.5406 14.6345 25.7152 14.0455 25.7152C13.5979 25.7152 13.1971 25.6405 12.7259 25.4906L12.5138 26.8638L12.5845 26.889L12.8438 26.939C12.9378 26.9637 13.0559 26.989 13.2443 26.989C13.574 27.0389 13.8569 27.0389 14.0455 27.0389C15.6005 27.0389 16.3312 26.4144 16.3312 25.0412C16.3312 24.2168 16.0251 23.7421 15.2946 23.368C14.6584 23.0682 14.5877 22.9936 14.5877 22.7187C14.5877 22.3943 14.847 22.2444 15.3182 22.2444C15.601 22.2444 16.0015 22.2694 16.3787 22.3193L16.5906 20.9459C16.2137 20.8709 15.6246 20.821 15.2946 20.821C13.645 20.8207 13.0559 21.7447 13.0795 22.8434V22.8434ZM43.3357 26.939H41.9451L42.0161 26.3644C41.6154 26.8138 41.1911 27.0137 40.6489 27.0137C39.5651 27.0137 38.8582 26.0402 38.8582 24.5419C38.8582 22.5439 39.9658 20.8457 41.2615 20.8457C41.8509 20.8457 42.2749 21.1205 42.6759 21.6698L43.0057 19.5721H44.4667L43.3357 26.939V26.939ZM41.1675 25.5406C41.8511 25.5406 42.3223 24.6915 42.3223 23.5176C42.3223 22.7434 42.0627 22.3437 41.5444 22.3437C40.8846 22.3437 40.3901 23.1678 40.3901 24.3417C40.3901 25.1412 40.6492 25.5406 41.1675 25.5406V25.5406ZM23.2826 26.8138C22.764 26.989 22.2928 27.0636 21.7509 27.0636C20.1013 27.0636 19.2529 26.1399 19.2529 24.3667C19.2529 22.319 20.337 20.7957 21.8216 20.7957C23.0469 20.7957 23.8242 21.6448 23.8242 22.9683C23.8242 23.418 23.7771 23.8427 23.6356 24.4666H20.7142C20.6906 24.5419 20.6906 24.5918 20.6906 24.6418C20.6906 25.341 21.1385 25.6905 21.9866 25.6905C22.5285 25.6905 22.9997 25.5906 23.5183 25.3157L23.2826 26.8138V26.8138ZM22.4578 23.2428V22.9433C22.4578 22.4439 22.1985 22.1691 21.7509 22.1691C21.2797 22.1691 20.9497 22.5439 20.8082 23.2428H22.4578ZM7.44772 26.939H5.98674L6.8351 21.2701L4.92649 26.939H3.91312L3.79525 21.32L2.90002 26.939H1.53333L2.68786 19.5721H4.80863L4.87935 24.1422L6.29291 19.5721H8.60226L7.44772 26.939V26.939ZM11.1002 24.2668C10.9588 24.2668 10.888 24.2421 10.7702 24.2421C9.94538 24.2421 9.52134 24.5666 9.52134 25.1658C9.52134 25.5406 9.70993 25.7651 10.0397 25.7651C10.6523 25.7651 11.0766 25.1658 11.1002 24.2668ZM12.184 26.939H10.9585L10.9821 26.3145C10.6049 26.8138 10.1101 27.0389 9.42677 27.0389C8.62556 27.0389 8.08365 26.3897 8.08365 25.4157C8.08365 23.9426 9.02602 23.0935 10.6756 23.0935C10.8406 23.0935 11.0528 23.1185 11.2882 23.1432C11.3354 22.9436 11.3354 22.8686 11.3354 22.7687C11.3354 22.3693 11.0761 22.2194 10.3927 22.2194C9.96868 22.2194 9.49721 22.2694 9.16746 22.3693L8.9553 22.4442L8.81386 22.4692L9.02602 21.1208C9.75652 20.8959 10.2513 20.821 10.7935 20.821C12.0659 20.821 12.7492 21.4202 12.7492 22.5689C12.7492 22.8686 12.7256 23.0935 12.6314 23.7677L12.3013 25.8906L12.2542 26.2648L12.2306 26.5646L12.207 26.7897L12.184 26.939V26.939ZM34.4286 24.2668C34.2633 24.2668 34.1929 24.2421 34.0988 24.2421C33.2505 24.2421 32.8259 24.5666 32.8259 25.1658C32.8259 25.5406 33.0383 25.7651 33.3681 25.7651C33.9574 25.7651 34.4047 25.1658 34.4286 24.2668V24.2668ZM35.5124 26.939H34.2872L34.3105 26.3145C33.9336 26.8138 33.4388 27.0389 32.7554 27.0389C31.9542 27.0389 31.412 26.3897 31.412 25.4157C31.412 23.9426 32.3544 23.0935 34.004 23.0935C34.1693 23.0935 34.3815 23.1185 34.5933 23.1432C34.6405 22.9436 34.6643 22.8686 34.6643 22.7687C34.6643 22.3693 34.4047 22.2194 33.7219 22.2194C33.2974 22.2194 32.8029 22.2694 32.4728 22.3693L32.2843 22.4442L32.1428 22.4692L32.3547 21.1208C33.0855 20.8959 33.58 20.821 34.1221 20.821C35.3945 20.821 36.0543 21.4202 36.0543 22.5689C36.0543 22.8686 36.0543 23.0935 35.9367 23.7677L35.6303 25.8906L35.5831 26.2648L35.536 26.5646L35.5127 26.7897V26.939H35.5124V26.939ZM39.4711 20.8956H39.3296C38.8351 20.8956 38.5523 21.1454 38.1044 21.8693L38.2458 20.9453H36.9024L36.0069 26.9387H37.4679C38.0101 23.2678 38.1515 22.6435 38.8584 22.6435H38.9527C39.0942 21.9193 39.2825 21.3947 39.5182 20.9203L39.4711 20.8956V20.8956Z" fill="white"/>
</svg>
