<svg width="24" height="24" viewBox="0 0 24 24" fill="none" xmlns="http://www.w3.org/2000/svg">
<path d="M4.02719 7.59493C3.85826 6.87475 3.85826 6.12525 4.02719 5.40507L2.56683 5.06252C2.34505 6.00801 2.34505 6.99199 2.56683 7.93748L4.02719 7.59493ZM8.97281 5.40508C9.14174 6.12525 9.14174 6.87475 8.97281 7.59492L10.4332 7.93748C10.655 6.99199 10.655 6.00801 10.4332 5.06252L8.97281 5.40508ZM7.59492 8.97281C6.87475 9.14174 6.12525 9.14174 5.40508 8.97281L5.06252 10.4332C6.00801 10.655 6.99199 10.655 7.93748 10.4332L7.59492 8.97281ZM5.40508 4.02719C6.12525 3.85826 6.87475 3.85826 7.59493 4.02719L7.93748 2.56683C6.99199 2.34505 6.00801 2.34505 5.06252 2.56683L5.40508 4.02719ZM5.40508 8.97281C4.72139 8.81244 4.18756 8.27861 4.02719 7.59493L2.56683 7.93748C2.8573 9.17581 3.8242 10.1427 5.06252 10.4332L5.40508 8.97281ZM7.93748 10.4332C9.17581 10.1427 10.1427 9.1758 10.4332 7.93748L8.97281 7.59492C8.81244 8.27861 8.27861 8.81244 7.59492 8.97281L7.93748 10.4332ZM7.59493 4.02719C8.27861 4.18756 8.81244 4.72139 8.97281 5.40508L10.4332 5.06252C10.1427 3.8242 9.17581 2.8573 7.93748 2.56683L7.59493 4.02719ZM5.06252 2.56683C3.8242 2.8573 2.8573 3.82419 2.56683 5.06252L4.02719 5.40507C4.18756 4.72139 4.72139 4.18756 5.40508 4.02719L5.06252 2.56683Z" fill="black"/>
<path d="M4.02719 18.5949C3.85826 17.8747 3.85826 17.1253 4.02719 16.4051L2.56683 16.0625C2.34505 17.008 2.34505 17.992 2.56683 18.9375L4.02719 18.5949ZM8.97281 16.4051C9.14174 17.1253 9.14174 17.8747 8.97281 18.5949L10.4332 18.9375C10.655 17.992 10.655 17.008 10.4332 16.0625L8.97281 16.4051ZM7.59492 19.9728C6.87475 20.1417 6.12525 20.1417 5.40508 19.9728L5.06252 21.4332C6.00801 21.655 6.99199 21.655 7.93748 21.4332L7.59492 19.9728ZM5.40508 15.0272C6.12525 14.8583 6.87475 14.8583 7.59493 15.0272L7.93748 13.5668C6.99199 13.345 6.00801 13.345 5.06252 13.5668L5.40508 15.0272ZM5.40508 19.9728C4.72139 19.8124 4.18756 19.2786 4.02719 18.5949L2.56683 18.9375C2.8573 20.1758 3.8242 21.1427 5.06252 21.4332L5.40508 19.9728ZM7.93748 21.4332C9.17581 21.1427 10.1427 20.1758 10.4332 18.9375L8.97281 18.5949C8.81244 19.2786 8.27861 19.8124 7.59492 19.9728L7.93748 21.4332ZM7.59493 15.0272C8.27861 15.1876 8.81244 15.7214 8.97281 16.4051L10.4332 16.0625C10.1427 14.8242 9.17581 13.8573 7.93748 13.5668L7.59493 15.0272ZM5.06252 13.5668C3.8242 13.8573 2.8573 14.8242 2.56683 16.0625L4.02719 16.4051C4.18756 15.7214 4.72139 15.1876 5.40508 15.0272L5.06252 13.5668Z" fill="#23408F"/>
<path d="M15.0272 7.59493C14.8583 6.87475 14.8583 6.12525 15.0272 5.40507L13.5668 5.06252C13.345 6.00801 13.345 6.99199 13.5668 7.93748L15.0272 7.59493ZM19.9728 5.40508C20.1417 6.12525 20.1417 6.87475 19.9728 7.59492L21.4332 7.93748C21.655 6.99199 21.655 6.00801 21.4332 5.06252L19.9728 5.40508ZM18.5949 8.97281C17.8747 9.14174 17.1253 9.14174 16.4051 8.97281L16.0625 10.4332C17.008 10.655 17.992 10.655 18.9375 10.4332L18.5949 8.97281ZM16.4051 4.02719C17.1253 3.85826 17.8747 3.85826 18.5949 4.02719L18.9375 2.56683C17.992 2.34505 17.008 2.34505 16.0625 2.56683L16.4051 4.02719ZM16.4051 8.97281C15.7214 8.81244 15.1876 8.27861 15.0272 7.59493L13.5668 7.93748C13.8573 9.17581 14.8242 10.1427 16.0625 10.4332L16.4051 8.97281ZM18.9375 10.4332C20.1758 10.1427 21.1427 9.1758 21.4332 7.93748L19.9728 7.59492C19.8124 8.27861 19.2786 8.81244 18.5949 8.97281L18.9375 10.4332ZM18.5949 4.02719C19.2786 4.18756 19.8124 4.72139 19.9728 5.40508L21.4332 5.06252C21.1427 3.8242 20.1758 2.8573 18.9375 2.56683L18.5949 4.02719ZM16.0625 2.56683C14.8242 2.8573 13.8573 3.82419 13.5668 5.06252L15.0272 5.40507C15.1876 4.72139 15.7214 4.18756 16.4051 4.02719L16.0625 2.56683Z" fill="black"/>
<path d="M15.0272 18.5949C14.8583 17.8747 14.8583 17.1253 15.0272 16.4051L13.5668 16.0625C13.345 17.008 13.345 17.992 13.5668 18.9375L15.0272 18.5949ZM19.9728 16.4051C20.1417 17.1253 20.1417 17.8747 19.9728 18.5949L21.4332 18.9375C21.655 17.992 21.655 17.008 21.4332 16.0625L19.9728 16.4051ZM18.5949 19.9728C17.8747 20.1417 17.1253 20.1417 16.4051 19.9728L16.0625 21.4332C17.008 21.655 17.992 21.655 18.9375 21.4332L18.5949 19.9728ZM16.4051 15.0272C17.1253 14.8583 17.8747 14.8583 18.5949 15.0272L18.9375 13.5668C17.992 13.345 17.008 13.345 16.0625 13.5668L16.4051 15.0272ZM16.4051 19.9728C15.7214 19.8124 15.1876 19.2786 15.0272 18.5949L13.5668 18.9375C13.8573 20.1758 14.8242 21.1427 16.0625 21.4332L16.4051 19.9728ZM18.9375 21.4332C20.1758 21.1427 21.1427 20.1758 21.4332 18.9375L19.9728 18.5949C19.8124 19.2786 19.2786 19.8124 18.5949 19.9728L18.9375 21.4332ZM18.5949 15.0272C19.2786 15.1876 19.8124 15.7214 19.9728 16.4051L21.4332 16.0625C21.1427 14.8242 20.1758 13.8573 18.9375 13.5668L18.5949 15.0272ZM16.0625 13.5668C14.8242 13.8573 13.8573 14.8242 13.5668 16.0625L15.0272 16.4051C15.1876 15.7214 15.7214 15.1876 16.4051 15.0272L16.0625 13.5668Z" fill="black"/>
</svg>
