<svg width="24" height="24" viewBox="0 0 24 24" fill="none" xmlns="http://www.w3.org/2000/svg">
<path d="M2.88539 15.1513L2.1575 15.332L2.88539 15.1513ZM2.88539 8.84875L3.61329 9.02949L2.88539 8.84875ZM21.1146 8.84875L21.8425 8.66801L21.1146 8.84875ZM21.1146 15.1512L20.3867 14.9705L21.1146 15.1512ZM15.1156 20.659L14.9533 19.9267H14.9533L15.1156 20.659ZM8.88443 20.659L8.72217 21.3912H8.72218L8.88443 20.659ZM8.88443 3.34105L9.04668 4.07329L8.88443 3.34105ZM15.1156 3.34105L15.2778 2.60881V2.60881L15.1156 3.34105ZM8.43056 20.5584L8.59281 19.8261H8.59281L8.43056 20.5584ZM15.5694 20.5584L15.7317 21.2906H15.7317L15.5694 20.5584ZM15.5694 3.44162L15.4072 4.17386V4.17386L15.5694 3.44162ZM8.43056 3.44162L8.2683 2.70938V2.70938L8.43056 3.44162ZM8.59281 4.17386L9.04668 4.07329L8.72218 2.60881L8.2683 2.70938L8.59281 4.17386ZM14.9533 4.07329L15.4072 4.17386L15.7317 2.70938L15.2778 2.60881L14.9533 4.07329ZM15.4072 19.8261L14.9533 19.9267L15.2778 21.3912L15.7317 21.2906L15.4072 19.8261ZM9.04668 19.9267L8.59281 19.8261L8.2683 21.2906L8.72217 21.3912L9.04668 19.9267ZM3.61329 14.9705C3.1289 13.0198 3.1289 10.9802 3.61329 9.02949L2.1575 8.668C1.61417 10.8561 1.61417 13.1439 2.1575 15.332L3.61329 14.9705ZM20.3867 9.0295C20.8711 10.9802 20.8711 13.0198 20.3867 14.9705L21.8425 15.332C22.3858 13.1439 22.3858 10.8561 21.8425 8.66801L20.3867 9.0295ZM14.9533 19.9267C13.008 20.3578 10.992 20.3578 9.04668 19.9267L8.72218 21.3912C10.8812 21.8696 13.1188 21.8696 15.2778 21.3912L14.9533 19.9267ZM9.04668 4.07329C10.992 3.64224 13.008 3.64224 14.9533 4.07329L15.2778 2.60881C13.1188 2.1304 10.8812 2.1304 8.72218 2.60881L9.04668 4.07329ZM8.59281 19.8261C6.14627 19.284 4.21736 17.4032 3.61329 14.9705L2.1575 15.332C2.89874 18.3171 5.26576 20.6253 8.2683 21.2906L8.59281 19.8261ZM15.7317 21.2906C18.7342 20.6253 21.1013 18.3171 21.8425 15.332L20.3867 14.9705C19.7826 17.4032 17.8537 19.284 15.4072 19.8261L15.7317 21.2906ZM15.4072 4.17386C17.8537 4.71598 19.7826 6.5968 20.3867 9.0295L21.8425 8.66801C21.1013 5.68288 18.7342 3.3747 15.7317 2.70938L15.4072 4.17386ZM8.2683 2.70938C5.26576 3.3747 2.89874 5.68288 2.1575 8.668L3.61329 9.02949C4.21736 6.59679 6.14627 4.71598 8.59281 4.17386L8.2683 2.70938Z" fill="#23408F"/>
<path d="M2.88539 15.1513L2.1575 15.332L2.88539 15.1513ZM2.88539 8.84875L3.61329 9.02949L2.88539 8.84875ZM21.1146 8.84875L21.8425 8.66801L21.1146 8.84875ZM20.3867 14.9705C20.2869 15.3725 20.5319 15.7793 20.9339 15.8791C21.3359 15.979 21.7427 15.734 21.8425 15.332L20.3867 14.9705ZM8.72217 21.3912C9.12658 21.4808 9.52706 21.2256 9.61667 20.8212C9.70628 20.4168 9.45109 20.0163 9.04668 19.9267L8.72217 21.3912ZM8.88443 3.34105L9.04668 4.07329L8.88443 3.34105ZM15.1156 3.34105L15.2778 2.60881V2.60881L15.1156 3.34105ZM8.43056 20.5584L8.59281 19.8261H8.59281L8.43056 20.5584ZM15.5694 3.44162L15.4072 4.17386V4.17386L15.5694 3.44162ZM8.43056 3.44162L8.2683 2.70938V2.70938L8.43056 3.44162ZM8.59281 4.17386L9.04668 4.07329L8.72218 2.60881L8.2683 2.70938L8.59281 4.17386ZM14.9533 4.07329L15.4072 4.17386L15.7317 2.70938L15.2778 2.60881L14.9533 4.07329ZM9.04668 19.9267L8.59281 19.8261L8.2683 21.2906L8.72217 21.3912L9.04668 19.9267ZM3.61329 14.9705C3.1289 13.0198 3.1289 10.9802 3.61329 9.02949L2.1575 8.668C1.61417 10.8561 1.61417 13.1439 2.1575 15.332L3.61329 14.9705ZM20.3867 9.0295C20.8711 10.9802 20.8711 13.0198 20.3867 14.9705L21.8425 15.332C22.3858 13.1439 22.3858 10.8561 21.8425 8.66801L20.3867 9.0295ZM9.04668 4.07329C10.992 3.64224 13.008 3.64224 14.9533 4.07329L15.2778 2.60881C13.1188 2.1304 10.8812 2.1304 8.72218 2.60881L9.04668 4.07329ZM8.59281 19.8261C6.14627 19.284 4.21736 17.4032 3.61329 14.9705L2.1575 15.332C2.89874 18.3171 5.26576 20.6253 8.2683 21.2906L8.59281 19.8261ZM15.4072 4.17386C17.8537 4.71598 19.7826 6.5968 20.3867 9.0295L21.8425 8.66801C21.1013 5.68288 18.7342 3.3747 15.7317 2.70938L15.4072 4.17386ZM8.2683 2.70938C5.26576 3.3747 2.89874 5.68288 2.1575 8.668L3.61329 9.02949C4.21736 6.59679 6.14627 4.71598 8.59281 4.17386L8.2683 2.70938Z" fill="black"/>
<path d="M8.58712 9.73984C8.25008 9.49905 7.78166 9.57707 7.54087 9.91411C7.30008 10.2511 7.3781 10.7196 7.71513 10.9604L8.58712 9.73984ZM10.7216 12.1866L11.1576 11.5763L10.7216 12.1866ZM13.2783 12.1866L13.7143 12.7968H13.7143L13.2783 12.1866ZM16.2849 10.9604C16.6219 10.7196 16.6999 10.2511 16.4591 9.91411C16.2183 9.57707 15.7499 9.49905 15.4129 9.73984L16.2849 10.9604ZM7.71513 10.9604L10.2857 12.7968L11.1576 11.5763L8.58712 9.73984L7.71513 10.9604ZM13.7143 12.7968L16.2849 10.9604L15.4129 9.73984L12.8424 11.5763L13.7143 12.7968ZM10.2857 12.7968C11.3112 13.5295 12.6888 13.5295 13.7143 12.7968L12.8424 11.5763C12.3384 11.9363 11.6615 11.9363 11.1576 11.5763L10.2857 12.7968Z" fill="#23408F"/>
</svg>
