<svg width="4" height="18" viewBox="0 0 4 18" fill="none" xmlns="http://www.w3.org/2000/svg">
<path d="M2 1C1.45 1 1 1.45 1 2C1 2.55 1.45 3 2 3C2.55 3 3 2.55 3 2C3 1.45 2.55 1 2 1Z" fill="black" stroke="black" stroke-width="1.5"/>
<path d="M2 8C1.45 8 1 8.45 1 9C1 9.55 1.45 10 2 10C2.55 10 3 9.55 3 9C3 8.45 2.55 8 2 8Z" fill="#23408F" stroke="#23408F" stroke-width="1.5"/>
<path d="M2 15C1.45 15 1 15.45 1 16C1 16.55 1.45 17 2 17C2.55 17 3 16.55 3 16C3 15.45 2.55 15 2 15Z" fill="black" stroke="black" stroke-width="1.5"/>
</svg>
