<svg width="24" height="26" viewBox="0 0 24 26" fill="none" xmlns="http://www.w3.org/2000/svg">
<path d="M9.00903 19.9034L9.09282 19.1581L8.19549 19.0572L8.26101 19.9578L9.00903 19.9034ZM14.9908 19.9034L15.7389 19.9578L15.8044 19.0572L14.907 19.1581L14.9908 19.9034ZM14.9001 20.4772L15.6284 20.6563V20.6563L14.9001 20.4772ZM14.8181 20.8106L14.0898 20.6315L14.0898 20.6315L14.8181 20.8106ZM12.7038 22.917L12.8783 23.6464H12.8783L12.7038 22.917ZM11.2961 22.917L11.1216 23.6464H11.1216L11.2961 22.917ZM9.18175 20.8106L9.91006 20.6315H9.91006L9.18175 20.8106ZM9.09978 20.4772L8.37148 20.6563H8.37148L9.09978 20.4772ZM12.7499 5C12.7499 4.58579 12.4141 4.25 11.9999 4.25C11.5857 4.25 11.2499 4.58579 11.2499 5H12.7499ZM11.2499 6.00474C11.2499 6.41895 11.5857 6.75474 11.9999 6.75474C12.4141 6.75474 12.7499 6.41895 12.7499 6.00474H11.2499ZM8.92524 20.6487C10.9686 20.8784 13.0312 20.8784 15.0746 20.6487L14.907 19.1581C12.975 19.3753 11.0248 19.3753 9.09282 19.1581L8.92524 20.6487ZM15.6284 20.6563C15.6848 20.4268 15.7217 20.1932 15.7389 19.9578L14.2428 19.849C14.2318 20.0003 14.208 20.1506 14.1718 20.2981L15.6284 20.6563ZM15.5464 20.9897L15.6284 20.6563L14.1718 20.2981L14.0898 20.6315L15.5464 20.9897ZM12.8783 23.6464C14.1944 23.3315 15.2229 22.3052 15.5464 20.9896L14.0898 20.6315C13.8997 21.4047 13.2964 22.004 12.5293 22.1875L12.8783 23.6464ZM11.1216 23.6464C11.6991 23.7845 12.3008 23.7845 12.8783 23.6464L12.5293 22.1875C12.1812 22.2708 11.8186 22.2708 11.4705 22.1875L11.1216 23.6464ZM8.45345 20.9896C8.77694 22.3052 9.80543 23.3315 11.1216 23.6464L11.4705 22.1875C10.7034 22.004 10.1002 21.4047 9.91006 20.6315L8.45345 20.9896ZM8.37148 20.6563L8.45345 20.9896L9.91006 20.6315L9.82809 20.2981L8.37148 20.6563ZM8.26101 19.9578C8.27813 20.1932 8.31506 20.4268 8.37148 20.6563L9.82809 20.2981C9.79181 20.1506 9.76807 20.0003 9.75706 19.849L8.26101 19.9578ZM11.2499 5V6.00474H12.7499V5H11.2499Z" fill="#23408F"/>
<path d="M6.0278 10.6326L6.7517 10.8288L6.0278 10.6326ZM10.1584 6.30225L10.3896 7.01571L10.1584 6.30225ZM5.4375 12.8112L4.7136 12.6151L4.70896 12.6322L4.70514 12.6495L5.4375 12.8112ZM4.9702 14.9275L5.70255 15.0892L4.9702 14.9275ZM6.28759 19.4572L6.43731 18.7223L6.43731 18.7223L6.28759 19.4572ZM6.65518 19.5321L6.50547 20.267L6.50547 20.267L6.65518 19.5321ZM17.3448 19.5321L17.4945 20.267V20.267L17.3448 19.5321ZM17.7124 19.4572L17.5627 18.7223L17.5627 18.7223L17.7124 19.4572ZM19.0298 14.9275L18.2974 15.0892V15.0892L19.0298 14.9275ZM18.5625 12.8112L19.2949 12.6495L19.2917 12.6351L19.2879 12.6209L18.5625 12.8112ZM17.9793 10.5884L17.2539 10.7787L17.9793 10.5884ZM13.9671 6.3084L14.2023 5.59624V5.59624L13.9671 6.3084ZM19.4728 16.9094L18.7318 17.0254L19.4728 16.9094ZM4.52719 16.9094L5.26817 17.0254L4.52719 16.9094ZM6.7517 10.8288C7.23925 9.02934 8.62052 7.58918 10.3896 7.01571L9.92711 5.5888C7.67951 6.31737 5.92499 8.14419 5.3039 10.4365L6.7517 10.8288ZM6.1614 13.0074L6.7517 10.8288L5.3039 10.4365L4.7136 12.6151L6.1614 13.0074ZM5.70255 15.0892L6.16986 12.9729L4.70514 12.6495L4.23784 14.7658L5.70255 15.0892ZM5.25 17.2604C5.25 17.18 5.25626 17.1015 5.26817 17.0254L3.78622 16.7934C3.76233 16.946 3.75 17.102 3.75 17.2604H5.25ZM6.43731 18.7223C5.74893 18.5821 5.25 17.9725 5.25 17.2604H3.75C3.75 18.6808 4.74616 19.9086 6.13787 20.1921L6.43731 18.7223ZM6.8049 18.7972L6.43731 18.7223L6.13787 20.1921L6.50547 20.267L6.8049 18.7972ZM17.1951 18.7972C13.7666 19.4956 10.2334 19.4956 6.8049 18.7972L6.50547 20.267C10.1316 21.0057 13.8684 21.0057 17.4945 20.267L17.1951 18.7972ZM17.5627 18.7223L17.1951 18.7972L17.4945 20.267L17.8621 20.1921L17.5627 18.7223ZM18.75 17.2604C18.75 17.9725 18.2511 18.5821 17.5627 18.7223L17.8621 20.1921C19.2538 19.9086 20.25 18.6808 20.25 17.2604H18.75ZM18.7318 17.0254C18.7437 17.1015 18.75 17.18 18.75 17.2604H20.25C20.25 17.102 20.2377 16.946 20.2138 16.7934L18.7318 17.0254ZM17.8301 12.9729L18.2974 15.0892L19.7622 14.7658L19.2949 12.6495L17.8301 12.9729ZM17.2539 10.7787L17.8371 13.0016L19.2879 12.6209L18.7047 10.398L17.2539 10.7787ZM13.7319 7.02057C15.4622 7.59203 16.7887 9.00577 17.2539 10.7787L18.7047 10.398C18.1113 8.13597 16.4174 6.32782 14.2023 5.59624L13.7319 7.02057ZM10.3896 7.01571C11.474 6.66421 12.6528 6.6642 13.7319 7.02057L14.2023 5.59624C12.8171 5.13875 11.3114 5.14007 9.92711 5.5888L10.3896 7.01571ZM20.2138 16.7934C20.1066 16.1089 19.8899 15.3445 19.7622 14.7658L18.2974 15.0892C18.4575 15.8142 18.6325 16.3907 18.7318 17.0254L20.2138 16.7934ZM4.23784 14.7658C4.11006 15.3445 3.89335 16.1089 3.78622 16.7934L5.26817 17.0254C5.36752 16.3907 5.54246 15.8142 5.70255 15.0892L4.23784 14.7658Z" fill="black"/>
<circle cx="19" cy="3" r="3" fill="#DD3333"/>
</svg>
