<svg width="24" height="24" viewBox="0 0 24 24" fill="none" xmlns="http://www.w3.org/2000/svg">
<path d="M9.00903 17.9034L9.09282 17.1581L8.19549 17.0572L8.26101 17.9578L9.00903 17.9034ZM14.9908 17.9034L15.7389 17.9578L15.8044 17.0572L14.907 17.1581L14.9908 17.9034ZM14.9001 18.4772L15.6284 18.6563V18.6563L14.9001 18.4772ZM14.8181 18.8106L14.0898 18.6315L14.0898 18.6315L14.8181 18.8106ZM12.7038 20.917L12.8783 21.6464H12.8783L12.7038 20.917ZM11.2961 20.917L11.1216 21.6464H11.1216L11.2961 20.917ZM9.18175 18.8106L9.91006 18.6315H9.91006L9.18175 18.8106ZM9.09978 18.4772L8.37148 18.6563H8.37148L9.09978 18.4772ZM12.7499 3C12.7499 2.58579 12.4141 2.25 11.9999 2.25C11.5857 2.25 11.2499 2.58579 11.2499 3H12.7499ZM11.2499 4.00474C11.2499 4.41895 11.5857 4.75474 11.9999 4.75474C12.4141 4.75474 12.7499 4.41895 12.7499 4.00474H11.2499ZM8.92524 18.6487C10.9686 18.8784 13.0312 18.8784 15.0746 18.6487L14.907 17.1581C12.975 17.3753 11.0248 17.3753 9.09282 17.1581L8.92524 18.6487ZM15.6284 18.6563C15.6848 18.4268 15.7217 18.1932 15.7389 17.9578L14.2428 17.849C14.2318 18.0003 14.208 18.1506 14.1718 18.2981L15.6284 18.6563ZM15.5464 18.9897L15.6284 18.6563L14.1718 18.2981L14.0898 18.6315L15.5464 18.9897ZM12.8783 21.6464C14.1944 21.3315 15.2229 20.3052 15.5464 18.9896L14.0898 18.6315C13.8997 19.4047 13.2964 20.004 12.5293 20.1875L12.8783 21.6464ZM11.1216 21.6464C11.6991 21.7845 12.3008 21.7845 12.8783 21.6464L12.5293 20.1875C12.1812 20.2708 11.8186 20.2708 11.4705 20.1875L11.1216 21.6464ZM8.45345 18.9896C8.77694 20.3052 9.80543 21.3315 11.1216 21.6464L11.4705 20.1875C10.7034 20.004 10.1002 19.4047 9.91006 18.6315L8.45345 18.9896ZM8.37148 18.6563L8.45345 18.9896L9.91006 18.6315L9.82809 18.2981L8.37148 18.6563ZM8.26101 17.9578C8.27813 18.1932 8.31506 18.4268 8.37148 18.6563L9.82809 18.2981C9.79181 18.1506 9.76807 18.0003 9.75706 17.849L8.26101 17.9578ZM11.2499 3V4.00474H12.7499V3H11.2499Z" fill="#23408F"/>
<path d="M6.0278 8.63237L6.7517 8.82851L6.0278 8.63237ZM10.1584 4.30201L10.3896 5.01546L10.1584 4.30201ZM5.4375 10.811L4.7136 10.6149L4.70896 10.632L4.70514 10.6493L5.4375 10.811ZM4.9702 12.9273L5.70255 13.089L4.9702 12.9273ZM6.28759 17.4569L6.43731 16.722L6.43731 16.722L6.28759 17.4569ZM6.65518 17.5318L6.50547 18.2667L6.50547 18.2667L6.65518 17.5318ZM17.3448 17.5318L17.4945 18.2667V18.2667L17.3448 17.5318ZM17.7124 17.4569L17.5627 16.722L17.5627 16.722L17.7124 17.4569ZM19.0298 12.9273L18.2974 13.089V13.089L19.0298 12.9273ZM18.5625 10.811L19.2949 10.6493L19.2917 10.6349L19.2879 10.6207L18.5625 10.811ZM17.9793 8.58813L17.2539 8.77846L17.9793 8.58813ZM13.9671 4.30816L14.2023 3.59599V3.59599L13.9671 4.30816ZM19.4728 14.9092L18.7318 15.0251L19.4728 14.9092ZM4.52719 14.9092L5.26817 15.0251L4.52719 14.9092ZM6.7517 8.82851C7.23925 7.02909 8.62052 5.58893 10.3896 5.01546L9.92711 3.58856C7.67951 4.31713 5.92499 6.14395 5.3039 8.43623L6.7517 8.82851ZM6.1614 11.0071L6.7517 8.82851L5.3039 8.43623L4.7136 10.6149L6.1614 11.0071ZM5.70255 13.089L6.16986 10.9727L4.70514 10.6493L4.23784 12.7656L5.70255 13.089ZM5.25 15.2602C5.25 15.1797 5.25626 15.1013 5.26817 15.0251L3.78622 14.7932C3.76233 14.9458 3.75 15.1018 3.75 15.2602H5.25ZM6.43731 16.722C5.74893 16.5818 5.25 15.9723 5.25 15.2602H3.75C3.75 16.6805 4.74616 17.9083 6.13787 18.1919L6.43731 16.722ZM6.8049 16.7969L6.43731 16.722L6.13787 18.1919L6.50547 18.2667L6.8049 16.7969ZM17.1951 16.7969C13.7666 17.4954 10.2334 17.4954 6.8049 16.7969L6.50547 18.2667C10.1316 19.0055 13.8684 19.0055 17.4945 18.2667L17.1951 16.7969ZM17.5627 16.722L17.1951 16.7969L17.4945 18.2667L17.8621 18.1919L17.5627 16.722ZM18.75 15.2602C18.75 15.9723 18.2511 16.5818 17.5627 16.722L17.8621 18.1919C19.2538 17.9083 20.25 16.6805 20.25 15.2602H18.75ZM18.7318 15.0251C18.7437 15.1013 18.75 15.1797 18.75 15.2602H20.25C20.25 15.1018 20.2377 14.9458 20.2138 14.7932L18.7318 15.0251ZM17.8301 10.9727L18.2974 13.089L19.7622 12.7656L19.2949 10.6493L17.8301 10.9727ZM17.2539 8.77846L17.8371 11.0013L19.2879 10.6207L18.7047 8.3978L17.2539 8.77846ZM13.7319 5.02033C15.4622 5.59179 16.7887 7.00552 17.2539 8.77846L18.7047 8.3978C18.1113 6.13572 16.4174 4.32758 14.2023 3.59599L13.7319 5.02033ZM10.3896 5.01546C11.474 4.66396 12.6528 4.66396 13.7319 5.02033L14.2023 3.59599C12.8171 3.13851 11.3114 3.13983 9.92711 3.58856L10.3896 5.01546ZM20.2138 14.7932C20.1066 14.1087 19.8899 13.3443 19.7622 12.7656L18.2974 13.089C18.4575 13.814 18.6325 14.3905 18.7318 15.0251L20.2138 14.7932ZM4.23784 12.7656C4.11006 13.3443 3.89335 14.1087 3.78622 14.7932L5.26817 15.0251C5.36752 14.3905 5.54246 13.814 5.70255 13.089L4.23784 12.7656Z" fill="black"/>
</svg>
