<svg width="44" height="44" viewBox="0 0 44 44" fill="none" xmlns="http://www.w3.org/2000/svg">
<path d="M7.5625 8.25H5.5C4.74057 8.25 4.125 7.63443 4.125 6.875C4.125 6.11557 4.74057 5.5 5.5 5.5H7.5625V8.25Z" fill="#23408F"/>
<path d="M22 26.8125C21.6203 26.8125 21.3125 26.5047 21.3125 26.125V22.2973C21.3125 21.0104 22.1742 19.8564 23.4081 19.4908L39.3302 14.7732C39.651 14.6781 39.875 14.378 39.875 14.0435V8.32356C39.875 7.90384 39.5336 7.5625 39.1139 7.5625H35.75C35.3703 7.5625 35.0625 7.25467 35.0625 6.875C35.0625 6.49533 35.3703 6.1875 35.75 6.1875H39.1139C40.2918 6.1875 41.25 7.1457 41.25 8.32356V14.0434C41.25 14.9825 40.6211 15.8247 39.7207 16.0915L23.7988 20.8091C23.1444 21.003 22.6875 21.615 22.6875 22.2973V26.125C22.6875 26.5047 22.3797 26.8125 22 26.8125Z" fill="#23408F"/>
<path d="M36.2656 11.6875H7.73438C7.25974 11.6875 6.875 11.3028 6.875 10.8281V2.92188C6.875 2.44724 7.25974 2.0625 7.73438 2.0625H36.2656C36.7403 2.0625 37.125 2.44724 37.125 2.92188V10.8281C37.125 11.3028 36.7403 11.6875 36.2656 11.6875Z" fill="#FAD74B"/>
<path d="M22 41.9375C20.8609 41.9375 19.9375 41.0141 19.9375 39.875V30.9375L20.625 30.25L19.9375 28.875V25.4375H24.0625V28.875L23.375 30.25L24.0625 30.9375V39.875C24.0625 41.0141 23.1391 41.9375 22 41.9375Z" fill="#23408F"/>
<path d="M22.0016 39.875C21.622 39.875 21.3137 39.5672 21.3137 39.1875C21.3137 38.8078 21.6211 38.5 22.0008 38.5H22.0016C22.3813 38.5 22.6891 38.8078 22.6891 39.1875C22.6891 39.5672 22.3813 39.875 22.0016 39.875Z" fill="white"/>
<path d="M19.9375 11.6875H17.1875H13.0625H8.9375V19.25C8.9375 20.3891 9.8609 21.3125 11 21.3125C12.1391 21.3125 13.0625 20.3891 13.0625 19.25V16.5C13.0625 17.6391 13.9859 18.5625 15.125 18.5625C16.2641 18.5625 17.1875 17.6391 17.1875 16.5V19.25C17.1875 20.0093 17.8031 20.625 18.5625 20.625C19.3219 20.625 19.9375 20.0093 19.9375 19.25V15.125C19.9375 15.8843 20.5531 16.5 21.3125 16.5C22.0719 16.5 22.6875 15.8843 22.6875 15.125V11.6875H19.9375Z" fill="#FF4444"/>
<path d="M30.9375 2.0625H28.1875H25.4375V4.8125C25.4375 5.57184 26.0531 6.1875 26.8125 6.1875C27.5719 6.1875 28.1875 5.57184 28.1875 4.8125V7.5625C28.1875 8.32184 28.8031 8.9375 29.5625 8.9375C30.3219 8.9375 30.9375 8.32184 30.9375 7.5625V6.1875C30.9375 6.94684 31.5531 7.5625 32.3125 7.5625C33.0719 7.5625 33.6875 6.94684 33.6875 6.1875V2.0625H30.9375Z" fill="#FF4444"/>
</svg>
