<svg width="46" height="46" viewBox="0 0 46 46" fill="none" xmlns="http://www.w3.org/2000/svg">
<path d="M34.5028 13.901C34.2915 13.7751 34.0315 13.7664 33.8124 13.8776C33.5937 13.9891 33.4458 14.2052 33.4196 14.4515C33.3936 14.691 33.3532 14.9305 33.3026 15.1817C31.8886 21.6698 29.0491 24.8255 24.6195 24.8255H18.1202C17.7775 24.8261 17.4825 25.0702 17.4139 25.4096L15.2475 35.677L14.8605 38.291C14.6379 39.4797 15.4105 40.6257 16.5861 40.8507C16.7157 40.8755 16.8473 40.8883 16.9792 40.8889H21.3265C22.323 40.8919 23.1917 40.2044 23.428 39.2256L25.1842 32.1271H28.9524C33.3993 32.1271 36.4728 28.542 37.6065 22.032C38.3549 18.9321 37.1168 15.6887 34.5028 13.901Z" fill="#03A9F4"/>
<path d="M33.4187 8.22453C31.9723 6.5879 29.8965 5.64175 27.7093 5.62225H15.5879C13.7739 5.61253 12.2295 6.93646 11.9662 8.72683L8.20243 33.7727C8.02216 34.969 8.84816 36.0846 10.0475 36.2645C10.1563 36.2808 10.2663 36.2889 10.3764 36.2889H15.9979C16.3453 36.2882 16.6443 36.0442 16.7138 35.7048L18.7852 26.0667H24.7874C29.9961 26.0667 33.4378 22.4349 35.0189 15.2603C35.0824 14.9743 35.1313 14.6853 35.1653 14.3943C35.5322 12.1809 34.8921 9.91947 33.4187 8.22453Z" fill="#283593"/>
</svg>
