<svg width="44" height="44" viewBox="0 0 44 44" fill="none" xmlns="http://www.w3.org/2000/svg">
<path d="M39.1875 17.1875C38.8078 17.1875 38.5 16.8797 38.5 16.5V10.0668C38.5 7.54866 36.4513 5.5 33.9332 5.5H14.4375C14.0578 5.5 13.75 5.19217 13.75 4.8125C13.75 4.43283 14.0578 4.125 14.4375 4.125H33.9332C37.2095 4.125 39.875 6.79052 39.875 10.0668V16.5C39.875 16.8797 39.5672 17.1875 39.1875 17.1875Z" fill="#F7CB63"/>
<path d="M22 2.0625C20.8609 2.0625 19.9375 2.9859 19.9375 4.125V8.9375H24.0625V4.125C24.0625 2.9859 23.1391 2.0625 22 2.0625Z" fill="#FAD74B"/>
<path d="M25.5202 7.5625H18.4798C17.7661 7.5625 17.1875 8.14112 17.1875 8.85483V12.375H26.8125V8.85483C26.8125 8.14112 26.2339 7.5625 25.5202 7.5625Z" fill="#FF4444"/>
<path d="M28.9882 41.9375H15.0118C14.5462 41.9375 14.313 41.3745 14.6423 41.0453L16.4925 39.195C17.3267 38.3608 17.5658 37.1014 17.0955 36.0196L11.9874 24.271C11.3361 22.7731 11 21.1571 11 19.5237C11 15.1959 14.5084 11.6876 18.8361 11.6876H25.1639C29.4917 11.6876 33 15.196 33 19.5237C33 21.1571 32.6639 22.7731 32.0126 24.271L26.9045 36.0196C26.4342 37.1014 26.6733 38.3609 27.5075 39.195L29.3577 41.0453C29.687 41.3745 29.4539 41.9375 28.9882 41.9375Z" fill="#FAD74B"/>
<path d="M32.9764 20.2575C31.2478 20.9595 26.6242 22.3857 21.9999 19.9375C17.356 17.4789 12.7124 18.9278 11.0012 19.6265C11.0151 21.2248 11.3497 22.8045 11.9873 24.271L17.0953 36.0195C17.5656 37.1014 17.3266 38.3609 16.4924 39.195L14.6421 41.0452C14.3129 41.3744 14.5461 41.9374 15.0117 41.9374H28.9881C29.4537 41.9374 29.687 41.3744 29.3576 41.0452L27.5074 39.195C26.6732 38.3608 26.4341 37.1014 26.9045 36.0195L32.0125 24.271C32.5661 22.9978 32.891 21.6394 32.9764 20.2575Z" fill="#23408F"/>
<path d="M39.1875 16.5C37.6687 16.5 36.4375 17.7312 36.4375 19.25V24.75C36.4375 26.2688 37.6687 27.5 39.1875 27.5C40.7063 27.5 41.9375 26.2688 41.9375 24.75V19.25C41.9375 17.7312 40.7063 16.5 39.1875 16.5Z" fill="#FF4444"/>
<path d="M25.4569 18.5624C24.5659 17.6459 23.1214 17.6459 22.2305 18.5624L22 18.7994L21.7695 18.5623C20.8786 17.6458 19.4341 17.6458 18.5432 18.5623C17.6523 19.4789 17.6523 20.9648 18.5432 21.8813L18.7737 22.1184L22 25.4375L25.2264 22.1185L25.4569 21.8814C26.3478 20.9649 26.3478 19.4789 25.4569 18.5624Z" fill="#FF4444"/>
<path d="M9.29088 7.18747C8.84538 6.77084 8.12316 6.77084 7.67774 7.18747L7.5625 7.29523L7.44726 7.18747C7.00176 6.77084 6.27954 6.77084 5.83413 7.18747C5.38862 7.60409 5.38862 8.27948 5.83413 8.6961L5.94937 8.80387L7.5625 10.3125L9.17563 8.80387L9.29088 8.6961C9.73638 8.27948 9.73638 7.60409 9.29088 7.18747Z" fill="#FF4444"/>
<path d="M5.85346 2.37497C5.40796 1.95834 4.68574 1.95834 4.24033 2.37497L4.12509 2.48273L4.00984 2.37497C3.56434 1.95834 2.84212 1.95834 2.39663 2.37497C1.95112 2.79159 1.95112 3.46698 2.39663 3.8836L2.51187 3.99137L4.12509 5.5L5.73822 3.99137L5.85346 3.8836C6.29896 3.46698 6.29896 2.79159 5.85346 2.37497Z" fill="#FF4444"/>
<path d="M5.85346 13.375C5.40796 12.9583 4.68574 12.9583 4.24033 13.375L4.12509 13.4827L4.00984 13.375C3.56434 12.9583 2.84212 12.9583 2.39663 13.375C1.95112 13.7916 1.95112 14.467 2.39663 14.8836L2.51187 14.9914L4.12509 16.5L5.73822 14.9914L5.85346 14.8836C6.29896 14.467 6.29896 13.7916 5.85346 13.375Z" fill="#FF4444"/>
<path d="M18.7909 25.3125C18.3454 24.8958 17.6232 24.8958 17.1777 25.3125L17.0625 25.4202L16.9473 25.3125C16.5018 24.8958 15.7795 24.8958 15.3341 25.3125C14.8886 25.7291 14.8886 26.4045 15.3341 26.8211L15.4494 26.9289L17.0625 28.4375L18.6756 26.9289L18.7909 26.8211C19.2364 26.4045 19.2364 25.7291 18.7909 25.3125Z" fill="#FAD74B"/>
<path d="M27.8535 26.4375C27.408 26.0208 26.6857 26.0208 26.2402 26.4375L26.1251 26.5452L26.0098 26.4375C25.5643 26.0208 24.8421 26.0208 24.3966 26.4375C23.9511 26.8541 23.9511 27.5295 24.3966 27.9461L24.5119 28.0539L26.1251 29.5625L27.7383 28.0539L27.8535 27.9461C28.299 27.5295 28.299 26.8541 27.8535 26.4375Z" fill="#FF4444"/>
<path d="M21.6659 30.5625C21.2204 30.1458 20.4982 30.1458 20.0527 30.5625L19.9375 30.6702L19.8223 30.5625C19.3768 30.1458 18.6545 30.1458 18.2091 30.5625C17.7636 30.9791 17.7636 31.6545 18.2091 32.0711L18.3244 32.1789L19.9375 33.6875L21.5506 32.1789L21.6659 32.0711C22.1114 31.6545 22.1114 30.9791 21.6659 30.5625Z" fill="#FF4444"/>
<path d="M24.4159 35.375C23.9704 34.9583 23.2482 34.9583 22.8027 35.375L22.6875 35.4827L22.5723 35.375C22.1268 34.9583 21.4045 34.9583 20.9591 35.375C20.5136 35.7916 20.5136 36.467 20.9591 36.8836L21.0744 36.9914L22.6875 38.5L24.3007 36.9914L24.416 36.8836C24.8614 36.467 24.8614 35.7916 24.4159 35.375Z" fill="#FAD74B"/>
<path d="M13.0625 3.68222V5.94272C13.0625 6.37104 13.5132 6.64956 13.8964 6.45809L16.1373 5.33755C16.57 5.12125 16.57 4.50379 16.1373 4.2874L13.8963 3.16686C13.5132 2.9753 13.0625 3.25391 13.0625 3.68222Z" fill="#FF4444"/>
</svg>
