<?xml version="1.0" encoding="iso-8859-1"?>
<!-- Generator: Adobe Illustrator 16.0.0, SVG Export Plug-In . SVG Version: 6.00 Build 0)  -->
<!DOCTYPE svg PUBLIC "-//W3C//DTD SVG 1.1//EN" "http://www.w3.org/Graphics/SVG/1.1/DTD/svg11.dtd">
<svg version="1.1" id="Capa_1" xmlns="http://www.w3.org/2000/svg" xmlns:xlink="http://www.w3.org/1999/xlink" x="0px" y="0px"
	 width="557.389px" height="557.389px" viewBox="0 0 557.389 557.389" style="enable-background:new 0 0 557.389 557.389;"
	 xml:space="preserve">
<g>
	<g>
		<path d="M368.318,0H189.061c-29.223,0-62.529,34.721-62.529,65.159V492.22c0,30.447,33.306,65.169,62.529,65.169h179.258
			c29.225,0,62.539-34.722,62.539-65.169V65.159C430.857,34.721,397.543,0,368.318,0z M416.514,492.229
			c0,23.275-26.125,50.825-48.195,50.825H189.061c-22.07,0-48.186-27.55-48.186-50.825V65.159c0-23.275,26.125-50.815,48.186-50.815
			h179.258c22.07,0,48.195,27.549,48.195,50.815V492.229z"/>
		<path d="M289.15,477.341c-0.459-0.354-1.127-0.277-1.49,0.172c-0.363,0.469-0.287,1.139,0.172,1.492
			c3.557,2.82,5.594,7.038,5.594,11.561c0,8.129-6.598,14.736-14.726,14.736c-8.119,0-14.727-6.607-14.727-14.736
			c0-4.561,2.065-8.797,5.671-11.618c0.469-0.354,0.555-1.023,0.191-1.473c-0.363-0.469-1.033-0.564-1.492-0.191
			c-4.121,3.213-6.493,8.071-6.493,13.282c0,9.305,7.564,16.868,16.859,16.868c9.294,0,16.859-7.563,16.859-16.868
			C295.549,485.393,293.225,480.573,289.15,477.341z"/>
		<path d="M278.69,491.627c0.593,0,1.062-0.469,1.062-1.062v-15.777c0-0.594-0.479-1.062-1.062-1.062s-1.062,0.468-1.062,1.062
			v15.777C277.628,491.158,278.107,491.627,278.69,491.627z"/>
		<path d="M278.69,458.866c-18.063,0-32.761,14.697-32.761,32.761s14.697,32.762,32.761,32.762
			c18.064,0,32.761-14.698,32.761-32.762S296.764,458.866,278.69,458.866z M278.69,519.607c-15.425,0-27.979-12.546-27.979-27.98
			c0-15.424,12.546-27.979,27.979-27.979c15.433,0,27.98,12.546,27.98,27.979C306.67,507.052,294.123,519.607,278.69,519.607z"/>
		<path d="M361.053,87.927H196.347c-12.527,0-22.711,10.174-22.711,22.711v304.804c0,12.518,10.184,22.711,22.711,22.711h164.706
			c12.525,0,22.711-10.193,22.711-22.711V110.638C383.764,98.111,373.568,87.927,361.053,87.927z M376.592,415.442
			c0,8.568-6.973,15.539-15.539,15.539H196.347c-8.568,0-15.539-6.971-15.539-15.539V110.638c0-8.568,6.971-15.539,15.539-15.539
			h164.706c8.566,0,15.539,6.971,15.539,15.539V415.442z"/>
		<circle cx="233.02" cy="55.769" r="5.977"/>
		<circle cx="272.723" cy="55.769" r="5.977"/>
		<circle cx="312.426" cy="55.769" r="5.977"/>
	</g>
</g>
<g>
</g>
<g>
</g>
<g>
</g>
<g>
</g>
<g>
</g>
<g>
</g>
<g>
</g>
<g>
</g>
<g>
</g>
<g>
</g>
<g>
</g>
<g>
</g>
<g>
</g>
<g>
</g>
<g>
</g>
</svg>
