<svg width="44" height="44" viewBox="0 0 44 44" fill="none" xmlns="http://www.w3.org/2000/svg">
<path d="M11 27H14V34H11V27Z" fill="#23408F"/>
<path d="M30.2 19.8771V17H35V21C35 23.2091 32.851 25 30.2 25H23V21H28.8526C29.5967 21 30.2 20.4972 30.2 19.8771Z" fill="#23408F"/>
<path d="M35 13.336V16H31V12.1429C31 9.30255 32.7909 7 35 7H38V12.1429H35.928C35.4155 12.1429 35 12.6771 35 13.336Z" fill="#23408F"/>
<path d="M20 8H23V10H20V8Z" fill="#FAD74B"/>
<path d="M20 10H23V14H20V10Z" fill="#FF4444"/>
<path d="M19 15H24V34H19V15Z" fill="#23408F"/>
<path d="M5 33H38V37H5V33Z" fill="#23408F"/>
<path d="M18.6941 17.559H24.3723V19.8303H18.6941V17.559Z" fill="#FAD74B"/>
<path d="M35.1609 16.9914H29.4827V14.7201H35.1609V16.9914Z" fill="#FAD74B"/>
<path d="M18.6941 26.6437H24.3723V28.915H18.6941V26.6437Z" fill="#FAD74B"/>
<path d="M7.33789 32.3219H9.60916V38.0001H7.33789V32.3219Z" fill="#FAD74B"/>
<path d="M15.2874 32.3219H17.5586V38.0001H15.2874V32.3219Z" fill="#FAD74B"/>
<path d="M35.7285 38H33.4572V32.3218H35.7285V38Z" fill="#FAD74B"/>
<path d="M28.3474 38H26.0761V32.3218H28.3474V38Z" fill="#FAD74B"/>
<path d="M23.8046 14.7198H19.2621C18.6349 14.7198 18.1265 14.2113 18.1265 13.5841C18.1265 12.9569 18.6349 12.4485 19.2621 12.4485H23.8046C24.4319 12.4485 24.9403 12.9569 24.9403 13.5841C24.9403 14.2113 24.4319 14.7198 23.8046 14.7198Z" fill="#FAD74B"/>
<path d="M25.3435 7.99066L22 7.61712V5.38288L25.3435 5.00934C26.2272 4.91069 27 5.60609 27 6.5C27 7.39391 26.2272 8.08931 25.3435 7.99066Z" fill="#23408F"/>
<path d="M17.6565 7.99066L21 7.61712V5.38288L17.6565 5.00934C16.7728 4.91069 16 5.60609 16 6.5C16 7.39391 16.7728 8.08931 17.6565 7.99066Z" fill="#23408F"/>
<path d="M21.5 8C22.3284 8 23 7.32843 23 6.5C23 5.67157 22.3284 5 21.5 5C20.6716 5 20 5.67157 20 6.5C20 7.32843 20.6716 8 21.5 8Z" fill="#FF4444"/>
<path d="M12.5 28C15.5376 28 18 25.7614 18 23C18 20.2386 15.5376 18 12.5 18C9.46243 18 7 20.2386 7 23C7 25.7614 9.46243 28 12.5 28Z" fill="#FAD74B"/>
<path d="M12.4477 20.9653C12.1341 20.9653 11.8799 20.7111 11.8799 20.3975V19.8297C11.8799 19.5161 12.1341 19.2618 12.4477 19.2618C12.7613 19.2618 13.0155 19.5161 13.0155 19.8297V20.3975C13.0155 20.7111 12.7613 20.9653 12.4477 20.9653Z" fill="#23408F"/>
<path d="M10.4405 21.7969C10.2952 21.7969 10.1499 21.7415 10.039 21.6305L9.63749 21.229C9.41576 21.0073 9.41576 20.6478 9.63749 20.426C9.85929 20.2044 10.2188 20.2044 10.4405 20.4261L10.842 20.8276C11.0638 21.0494 11.0638 21.4089 10.842 21.6306C10.7312 21.7415 10.5858 21.7969 10.4405 21.7969Z" fill="#23408F"/>
<path d="M9.60878 23.8041H9.04096C8.72739 23.8041 8.47314 23.5499 8.47314 23.2363C8.47314 22.9227 8.72739 22.6685 9.04096 22.6685H9.60878C9.92236 22.6685 10.1766 22.9227 10.1766 23.2363C10.1766 23.5499 9.92236 23.8041 9.60878 23.8041Z" fill="#23408F"/>
<path d="M10.039 26.2141C9.89375 26.2141 9.74846 26.1586 9.63752 26.0478C9.41578 25.826 9.41571 25.4665 9.63752 25.2448L10.039 24.8433C10.2608 24.6215 10.6203 24.6215 10.8421 24.8432C11.0638 25.0649 11.0639 25.4244 10.8421 25.6462L10.4406 26.0477C10.3297 26.1586 10.1843 26.2141 10.039 26.2141Z" fill="#23408F"/>
<path d="M12.4477 27.211C12.1341 27.211 11.8799 26.9567 11.8799 26.6431V26.0753C11.8799 25.7617 12.1341 25.5075 12.4477 25.5075C12.7613 25.5075 13.0155 25.7617 13.0155 26.0753V26.6431C13.0155 26.9567 12.7613 27.211 12.4477 27.211Z" fill="#23408F"/>
<path d="M14.8575 26.214C14.7122 26.214 14.5669 26.1586 14.456 26.0477L14.0545 25.6461C13.8328 25.4244 13.8328 25.0649 14.0545 24.8432C14.2763 24.6215 14.6358 24.6215 14.8575 24.8432L15.259 25.2448C15.4808 25.4665 15.4808 25.826 15.259 26.0477C15.1482 26.1586 15.0028 26.214 14.8575 26.214Z" fill="#23408F"/>
<path d="M15.8556 23.8041H15.2878C14.9742 23.8041 14.72 23.5499 14.72 23.2363C14.72 22.9227 14.9742 22.6685 15.2878 22.6685H15.8556C16.1692 22.6685 16.4234 22.9227 16.4234 23.2363C16.4234 23.5499 16.1692 23.8041 15.8556 23.8041Z" fill="#23408F"/>
<path d="M14.456 21.7969C14.3107 21.7969 14.1654 21.7415 14.0545 21.6306C13.8328 21.4089 13.8327 21.0494 14.0545 20.8277L14.456 20.4262C14.6778 20.2044 15.0373 20.2044 15.2591 20.4261C15.4808 20.6478 15.4809 21.0073 15.2591 21.2291L14.8575 21.6306C14.7467 21.7415 14.6014 21.7969 14.456 21.7969Z" fill="#23408F"/>
<path d="M12.4474 23.8048C12.3621 23.8048 12.2754 23.7855 12.1939 23.7447C11.9134 23.6044 11.7997 23.2634 11.94 22.9829L12.5078 21.8473C12.648 21.5668 12.989 21.453 13.2696 21.5934C13.5501 21.7336 13.6638 22.0747 13.5235 22.3552L12.9557 23.4908C12.8562 23.6898 12.6556 23.8048 12.4474 23.8048Z" fill="#FF4444"/>
</svg>
