<svg width="44" height="44" viewBox="0 0 44 44" fill="none" xmlns="http://www.w3.org/2000/svg">
<path d="M27.2563 10.4326L27.4859 9.18227C27.5527 8.81849 27.3792 8.45274 27.0552 8.27425L26.236 7.82308C25.912 7.64458 25.7385 7.27884 25.8054 6.91506L26.1903 4.81947L22.1332 4.07431L21.7483 6.1699C21.6814 6.53367 21.3893 6.81391 21.023 6.86556L20.097 6.99619C19.7307 7.04784 19.4386 7.32808 19.3717 7.69185L19.1421 8.94216C19.0564 9.40897 19.3653 9.85687 19.8321 9.94264C19.3653 9.85687 18.9174 10.1658 18.8316 10.6326L18.397 12.9993C18.3112 13.4661 18.6201 13.914 19.087 13.9998C18.6201 13.914 18.1722 14.2229 18.0865 14.6897L17.6518 17.0564C17.566 17.5232 17.875 17.9711 18.3418 18.0569C17.875 17.9711 17.4271 18.28 17.3413 18.7469L16.9066 21.1135C16.8209 21.5803 17.1298 22.0282 17.5966 22.114L24.0205 23.2939C24.4873 23.3797 24.9352 23.0707 25.0209 22.6039L25.4556 20.2373C25.5414 19.7705 25.2324 19.3225 24.7656 19.2368C25.2324 19.3225 25.6803 19.0136 25.7661 18.5468L26.2008 16.1802C26.2865 15.7133 25.9776 15.2654 25.5108 15.1797C25.9776 15.2654 26.4255 14.9565 26.5113 14.4897L26.9459 12.123C27.0317 11.6562 26.7228 11.2083 26.2559 11.1226C26.7226 11.2083 27.1705 10.8994 27.2563 10.4326Z" fill="#FF4444"/>
<path d="M25.8969 5.46459L22.1779 4.78156C21.7111 4.6958 21.4022 4.24789 21.4879 3.78108L21.6742 2.76676C21.76 2.29995 22.2079 1.991 22.6747 2.07677L26.3938 2.75988C26.8606 2.84565 27.1695 3.29355 27.0837 3.76037L26.8974 4.77469C26.8117 5.24141 26.3638 5.55036 25.8969 5.46459Z" fill="#FF4444"/>
<path d="M17.8026 8.60774L17.3428 7.42257C17.209 7.07771 16.8695 6.85719 16.5001 6.87498L15.5659 6.92018C15.1965 6.93806 14.857 6.71746 14.7232 6.37259L13.9526 4.38623L10.1069 5.87811L10.8775 7.86446C11.0113 8.20933 10.9093 8.60112 10.6245 8.83711L9.90421 9.43377C9.61933 9.66975 9.51749 10.0615 9.65121 10.4064L10.111 11.5916C10.2826 12.0341 10.7805 12.2536 11.223 12.0819C10.7805 12.2536 10.5609 12.7515 10.7326 13.194L11.6029 15.4374C11.7746 15.8799 12.2725 16.0994 12.715 15.9277C12.2725 16.0993 12.0529 16.5973 12.2246 17.0398L13.0949 19.2832C13.2665 19.7256 13.7644 19.9452 14.2069 19.7735C13.7644 19.9451 13.5449 20.4431 13.7166 20.8855L14.5869 23.1289C14.7585 23.5714 15.2564 23.791 15.6989 23.6193L21.788 21.2571C22.2305 21.0855 22.4501 20.5876 22.2784 20.1451L21.408 17.9016C21.2364 17.4591 20.7384 17.2396 20.2959 17.4113C20.7384 17.2396 20.958 16.7417 20.7863 16.2992L19.916 14.0558C19.7444 13.6133 19.2465 13.3938 18.804 13.5655C19.2465 13.3939 19.466 12.8959 19.2943 12.4534L18.4241 10.21C18.2524 9.76755 17.7545 9.54798 17.312 9.71968C17.7546 9.54807 17.9742 9.05023 17.8026 8.60774Z" fill="#23408F"/>
<path d="M14.041 5.08938L10.5158 6.45691C10.0733 6.62852 9.57548 6.40904 9.40378 5.96655L9.03081 5.00508C8.85919 4.56259 9.07867 4.06475 9.52117 3.89305L13.0464 2.52553C13.4889 2.35391 13.9867 2.57339 14.1584 3.01589L14.5314 3.97735C14.7031 4.41985 14.4835 4.91768 14.041 5.08938Z" fill="#23408F"/>
<path d="M34.7535 12.7474L35.2859 11.593C35.4409 11.257 35.3634 10.8597 35.0938 10.6066L34.4119 9.96642C34.1423 9.71325 34.0649 9.31588 34.2198 8.98003L35.1121 7.04532L31.3664 5.31772L30.474 7.25243C30.3191 7.58836 29.9666 7.78739 29.599 7.74666L28.6694 7.64362C28.3018 7.60288 27.9493 7.80191 27.7944 8.13784L27.262 9.29224C27.0632 9.72322 27.2514 10.2338 27.6825 10.4325C27.2515 10.2338 26.741 10.422 26.5422 10.853L25.5344 13.0381C25.3356 13.4691 25.5238 13.9796 25.9549 14.1784C25.5239 13.9796 25.0134 14.1678 24.8146 14.5989L23.8068 16.7839C23.608 17.2149 23.7962 17.7255 24.2273 17.9242C23.7963 17.7255 23.2858 17.9137 23.087 18.3447L22.0792 20.5298C21.8804 20.9608 22.0686 21.4713 22.4997 21.6701L28.4305 24.4055C28.8615 24.6042 29.372 24.416 29.5708 23.985L30.5786 21.7999C30.7774 21.369 30.5892 20.8584 30.1581 20.6596C30.5891 20.8584 31.0996 20.6702 31.2984 20.2391L32.3062 18.0541C32.505 17.6231 32.3168 17.1126 31.8857 16.9138C32.3167 17.1126 32.8272 16.9244 33.026 16.4933L34.0338 14.3082C34.2326 13.8773 34.0444 13.3667 33.6133 13.1679C34.0443 13.3666 34.5548 13.1783 34.7535 12.7474Z" fill="#23408F"/>
<path d="M34.6682 7.59755L31.2346 6.01389C30.8036 5.81512 30.6153 5.30457 30.8141 4.87359L31.246 3.93713C31.4448 3.50615 31.9553 3.31786 32.3863 3.51664L35.8199 5.10029C36.2509 5.29907 36.4392 5.80962 36.2404 6.2406L35.8085 7.17706C35.6096 7.60812 35.0992 7.79632 34.6682 7.59755Z" fill="#23408F"/>
<path d="M31.4053 41.9375H12.5947C11.6953 41.9375 10.948 41.2442 10.8807 40.3473L8.9375 14.4375H35.0625L33.1193 40.3473C33.052 41.2442 32.3047 41.9375 31.4053 41.9375Z" fill="#FAD74B"/>
<path d="M35.0625 15.8125H8.9375C8.17807 15.8125 7.5625 15.1969 7.5625 14.4375C7.5625 13.6781 8.17807 13.0625 8.9375 13.0625H35.0625C35.8219 13.0625 36.4375 13.6781 36.4375 14.4375C36.4375 15.1969 35.8219 15.8125 35.0625 15.8125Z" fill="#FCC900"/>
<path d="M26.1249 25.9531V24.6819C26.1249 24.3121 25.8883 23.9837 25.5373 23.8666L24.65 23.5709C24.2991 23.454 24.0623 23.1255 24.0623 22.7556V20.625H19.9373V22.7556C19.9373 23.1254 19.7007 23.4538 19.3497 23.5709L18.4624 23.8666C18.1115 23.9835 17.8748 24.312 17.8748 24.6819V25.9531C17.8748 26.4278 18.2595 26.8125 18.7341 26.8125C18.2595 26.8125 17.8748 27.1972 17.8748 27.6719V30.0781C17.8748 30.5528 18.2595 30.9375 18.7341 30.9375C18.2595 30.9375 17.8748 31.3222 17.8748 31.7969V34.2031C17.8748 34.6778 18.2595 35.0625 18.7341 35.0625C18.2595 35.0625 17.8748 35.4472 17.8748 35.9219V38.3281C17.8748 38.8028 18.2595 39.1875 18.7341 39.1875H25.2654C25.74 39.1875 26.1248 38.8028 26.1248 38.3281V35.9219C26.1248 35.4472 25.74 35.0625 25.2654 35.0625C25.74 35.0625 26.1248 34.6778 26.1248 34.2031V31.7969C26.1248 31.3222 25.74 30.9375 25.2654 30.9375C25.74 30.9375 26.1248 30.5528 26.1248 30.0781V27.6719C26.1248 27.1972 25.74 26.8125 25.2654 26.8125C25.7402 26.8125 26.1249 26.4278 26.1249 25.9531Z" fill="#23408F"/>
<path d="M23.8906 21.3125H20.1094C19.6347 21.3125 19.25 20.9278 19.25 20.4531V19.4219C19.25 18.9472 19.6347 18.5625 20.1094 18.5625H23.8906C24.3653 18.5625 24.75 18.9472 24.75 19.4219V20.4531C24.75 20.9278 24.3653 21.3125 23.8906 21.3125Z" fill="#23408F"/>
</svg>
