<svg width="24" height="24" viewBox="0 0 24 24" fill="none" xmlns="http://www.w3.org/2000/svg">
<path d="M16.0559 19.3625L15.6294 18.7457L16.0559 19.3625ZM15.8754 19.4874L15.4488 18.8705L15.4488 18.8705L15.8754 19.4874ZM8.12461 19.4874L8.55118 18.8705L8.55118 18.8705L8.12461 19.4874ZM7.94406 19.3626L7.51749 19.9794L7.5175 19.9794L7.94406 19.3626ZM19.8687 8.65139L19.1227 8.72845V8.72845L19.8687 8.65139ZM19.9048 9.00023L20.6508 8.92317L19.9048 9.00023ZM19.9337 12.3922L20.6809 12.4566V12.4565L19.9337 12.3922ZM19.9033 12.7449L19.1561 12.6806V12.6806L19.9033 12.7449ZM4.09666 12.7449L4.84389 12.6806L4.09666 12.7449ZM4.0663 12.3922L3.31906 12.4566V12.4566L4.0663 12.3922ZM4.09524 9.00023L3.34921 8.92317L4.09524 9.00023ZM4.13127 8.65139L4.8773 8.72845L4.13127 8.65139ZM16.6644 4.07663L16.3355 4.75068L16.6644 4.07663ZM7.33559 4.07663L7.66445 4.75068L7.33559 4.07663ZM6.8438 18.567L7.3224 17.9896L7.3224 17.9896L6.8438 18.567ZM4.24123 14.0905L4.97997 13.9611L4.97997 13.9611L4.24123 14.0905ZM14.3382 20.4687L14.014 19.7924H14.014L14.3382 20.4687ZM9.66175 20.4687L9.98599 19.7924H9.98599L9.66175 20.4687ZM17.1562 18.567L16.6776 17.9896L16.6776 17.9896L17.1562 18.567ZM19.7588 14.0905L20.4975 14.22L19.7588 14.0905ZM15.6294 18.7457L15.4488 18.8705L16.302 20.1043L16.4825 19.9794L15.6294 18.7457ZM8.55118 18.8705L8.37063 18.7457L7.5175 19.9794L7.69805 20.1043L8.55118 18.8705ZM19.1227 8.72845L19.1587 9.07729L20.6508 8.92317L20.6148 8.57433L19.1227 8.72845ZM19.1865 12.3279L19.1561 12.6806L20.6506 12.8093L20.6809 12.4566L19.1865 12.3279ZM4.84389 12.6806L4.81353 12.3279L3.31906 12.4566L3.34942 12.8093L4.84389 12.6806ZM4.84127 9.0773L4.8773 8.72845L3.38524 8.57433L3.34921 8.92317L4.84127 9.0773ZM4.81353 12.3279C4.72039 11.2459 4.72968 10.1576 4.84127 9.0773L3.34921 8.92317C3.22791 10.0974 3.21782 11.2804 3.31906 12.4566L4.81353 12.3279ZM19.1587 9.07729C19.2703 10.1576 19.2796 11.2459 19.1865 12.3279L20.6809 12.4565C20.7822 11.2804 20.7721 10.0974 20.6508 8.92317L19.1587 9.07729ZM16.9933 3.40258C13.8435 1.86581 10.1565 1.86581 7.00672 3.40258L7.66445 4.75068C10.3992 3.41644 13.6008 3.41644 16.3355 4.75068L16.9933 3.40258ZM8.37064 18.7457C7.79479 18.3475 7.54407 18.1733 7.3224 17.9896L6.36521 19.1445C6.64897 19.3797 6.96341 19.5963 7.51749 19.9794L8.37064 18.7457ZM3.34942 12.8093C3.407 13.4781 3.43899 13.8576 3.50249 14.22L4.97997 13.9611C4.93048 13.6786 4.90375 13.376 4.84389 12.6806L3.34942 12.8093ZM7.3224 17.9896C6.0859 16.9648 5.25611 15.5369 4.97997 13.9611L3.50249 14.22C3.84031 16.1479 4.85521 17.893 6.36521 19.1445L7.3224 17.9896ZM15.4488 18.8705C14.6594 19.4164 14.3325 19.6397 14.014 19.7924L14.6625 21.145C15.1138 20.9286 15.5551 20.6207 16.302 20.1043L15.4488 18.8705ZM7.69804 20.1043C8.44485 20.6207 8.88615 20.9286 9.33751 21.145L9.98599 19.7924C9.66749 19.6397 9.3406 19.4164 8.55118 18.8705L7.69804 20.1043ZM14.014 19.7924C12.7415 20.4025 11.2585 20.4025 9.98599 19.7924L9.33751 21.145C11.02 21.9517 12.98 21.9517 14.6625 21.145L14.014 19.7924ZM16.4825 19.9794C17.0366 19.5963 17.351 19.3797 17.6348 19.1445L16.6776 17.9896C16.4559 18.1733 16.2052 18.3475 15.6294 18.7457L16.4825 19.9794ZM19.1561 12.6806C19.0962 13.376 19.0695 13.6786 19.02 13.9611L20.4975 14.22C20.561 13.8576 20.593 13.4781 20.6506 12.8093L19.1561 12.6806ZM17.6348 19.1445C19.1448 17.893 20.1597 16.1479 20.4975 14.22L19.02 13.9611C18.7439 15.5369 17.9141 16.9648 16.6776 17.9896L17.6348 19.1445ZM16.3355 4.75068C17.8934 5.51073 18.9457 7.01471 19.1227 8.72845L20.6148 8.57433C20.3842 6.34268 19.0145 4.3887 16.9933 3.40258L16.3355 4.75068ZM7.00672 3.40258C4.98553 4.3887 3.61576 6.34268 3.38524 8.57433L4.8773 8.72845C5.05432 7.01471 6.10663 5.51073 7.66445 4.75068L7.00672 3.40258Z" fill="#23408F"/>
<path d="M8.12461 19.4874L8.55118 18.8705V18.8705L8.12461 19.4874ZM7.94406 19.3626L7.51749 19.9794L7.51749 19.9794L7.94406 19.3626ZM19.8687 8.65139L20.6148 8.57433V8.57433L19.8687 8.65139ZM19.9048 9.00023L19.1587 9.07729V9.07729L19.9048 9.00023ZM19.9337 12.3922L20.6809 12.4566V12.4565L19.9337 12.3922ZM19.1561 12.6806C19.1206 13.0933 19.4263 13.4567 19.839 13.4922C20.2517 13.5277 20.6151 13.222 20.6506 12.8093L19.1561 12.6806ZM4.09666 12.7449L4.84389 12.6806L4.09666 12.7449ZM4.0663 12.3922L3.31906 12.4566L4.0663 12.3922ZM4.09524 9.00023L3.34921 8.92317L4.09524 9.00023ZM4.13127 8.65139L4.8773 8.72845L4.13127 8.65139ZM16.6644 4.07663L16.3355 4.75068V4.75068L16.6644 4.07663ZM7.33559 4.07663L7.66445 4.75068L7.33559 4.07663ZM6.8438 18.567L7.3224 17.9896H7.3224L6.8438 18.567ZM4.24123 14.0905L4.97997 13.9611H4.97997L4.24123 14.0905ZM9.33751 21.145C9.71101 21.3241 10.159 21.1664 10.338 20.7929C10.5171 20.4194 10.3595 19.9715 9.98599 19.7924L9.33751 21.145ZM8.55118 18.8705L8.37063 18.7457L7.51749 19.9794L7.69804 20.1043L8.55118 18.8705ZM19.1227 8.72845L19.1587 9.07729L20.6508 8.92317L20.6148 8.57433L19.1227 8.72845ZM19.1865 12.3279L19.1561 12.6806L20.6506 12.8093L20.6809 12.4566L19.1865 12.3279ZM4.84389 12.6806L4.81353 12.3279L3.31906 12.4566L3.34942 12.8093L4.84389 12.6806ZM4.84127 9.07729L4.8773 8.72845L3.38524 8.57433L3.34921 8.92317L4.84127 9.07729ZM4.81353 12.3279C4.72039 11.2459 4.72968 10.1576 4.84127 9.07729L3.34921 8.92317C3.22791 10.0974 3.21782 11.2804 3.31906 12.4566L4.81353 12.3279ZM19.1587 9.07729C19.2703 10.1576 19.2796 11.2459 19.1865 12.3279L20.6809 12.4565C20.7822 11.2804 20.7721 10.0974 20.6508 8.92317L19.1587 9.07729ZM16.9933 3.40258C13.8435 1.86581 10.1565 1.86581 7.00672 3.40258L7.66445 4.75068C10.3992 3.41644 13.6008 3.41644 16.3355 4.75068L16.9933 3.40258ZM8.37064 18.7457C7.79479 18.3475 7.54407 18.1733 7.3224 17.9896L6.36521 19.1445C6.64897 19.3797 6.96341 19.5963 7.51749 19.9794L8.37064 18.7457ZM3.34942 12.8093C3.407 13.4781 3.43899 13.8576 3.50249 14.22L4.97997 13.9611C4.93048 13.6786 4.90375 13.376 4.84389 12.6806L3.34942 12.8093ZM7.3224 17.9896C6.0859 16.9648 5.25611 15.5369 4.97997 13.9611L3.50249 14.22C3.84031 16.1479 4.85521 17.893 6.36521 19.1445L7.3224 17.9896ZM7.69804 20.1043C8.44485 20.6207 8.88615 20.9286 9.33751 21.145L9.98599 19.7924C9.66749 19.6397 9.3406 19.4164 8.55118 18.8705L7.69804 20.1043ZM16.3355 4.75068C17.8934 5.51073 18.9457 7.01471 19.1227 8.72845L20.6148 8.57433C20.3842 6.34268 19.0145 4.3887 16.9933 3.40258L16.3355 4.75068ZM7.00672 3.40258C4.98553 4.3887 3.61576 6.34268 3.38524 8.57433L4.8773 8.72845C5.05432 7.01471 6.10663 5.51073 7.66445 4.75068L7.00672 3.40258Z" fill="black"/>
<path d="M9.78033 11.2197C9.48744 10.9268 9.01256 10.9268 8.71967 11.2197C8.42678 11.5126 8.42678 11.9874 8.71967 12.2803L9.78033 11.2197ZM11.25 13.75L10.7197 14.2803C10.8635 14.4242 11.0596 14.5034 11.2629 14.4999C11.4663 14.4964 11.6595 14.4104 11.7983 14.2617L11.25 13.75ZM15.2983 10.5117C15.5809 10.2089 15.5646 9.73433 15.2617 9.45171C14.9589 9.16908 14.4843 9.18545 14.2017 9.48826L15.2983 10.5117ZM8.71967 12.2803L10.7197 14.2803L11.7803 13.2197L9.78033 11.2197L8.71967 12.2803ZM11.7983 14.2617L15.2983 10.5117L14.2017 9.48826L10.7017 13.2383L11.7983 14.2617Z" fill="#23408F"/>
</svg>
