<svg width="24" height="24" viewBox="0 0 24 24" fill="none" xmlns="http://www.w3.org/2000/svg">
<path d="M3.75 12.1525C3.75 11.7383 3.41421 11.4025 3 11.4025C2.58579 11.4025 2.25 11.7383 2.25 12.1525H3.75ZM3 8.22034H2.25C2.25 8.63455 2.58579 8.97034 3 8.97034L3 8.22034ZM3.75 3C3.75 2.58579 3.41421 2.25 3 2.25C2.58579 2.25 2.25 2.58579 2.25 3L3.75 3ZM7.6551 8.97034C8.06932 8.97034 8.4051 8.63455 8.4051 8.22034C8.4051 7.80612 8.06932 7.47034 7.6551 7.47034V8.97034ZM12 20.25C7.43151 20.25 3.75 16.6126 3.75 12.1525H2.25C2.25 17.4651 6.62736 21.75 12 21.75V20.25ZM20.25 12.1525C20.25 16.6126 16.5685 20.25 12 20.25V21.75C17.3726 21.75 21.75 17.4651 21.75 12.1525H20.25ZM12 4.05508C16.5963 4.05508 20.25 7.69089 20.25 12.1525H21.75C21.75 6.84156 17.4037 2.55508 12 2.55508V4.05508ZM3.75 8.22034V3L2.25 3V8.22034H3.75ZM12 2.55508C8.78141 2.55508 6.36894 3.87653 4.77471 5.18253C3.97818 5.83506 3.38076 6.48743 2.98078 6.97893C2.78048 7.22506 2.62876 7.432 2.52549 7.58005C2.47383 7.65412 2.43421 7.71356 2.40662 7.75594C2.39282 7.77713 2.38203 7.79406 2.37423 7.80644C2.37033 7.81263 2.36718 7.81768 2.36478 7.82155C2.36358 7.82349 2.36257 7.82513 2.36174 7.82648C2.36133 7.82715 2.36096 7.82774 2.36064 7.82827C2.36048 7.82853 2.36027 7.82886 2.36019 7.82899C2.36 7.82931 2.35982 7.8296 3 8.22034C3.64018 8.61107 3.64002 8.61132 3.63987 8.61157C3.63984 8.61162 3.6397 8.61184 3.63964 8.61196C3.6395 8.61218 3.63941 8.61233 3.63936 8.6124C3.63927 8.61256 3.63935 8.61242 3.63961 8.61199C3.64014 8.61114 3.64139 8.60914 3.64335 8.60603C3.64727 8.5998 3.65405 8.58914 3.66369 8.57433C3.68298 8.54471 3.71367 8.49855 3.75576 8.43821C3.83999 8.31746 3.96952 8.14039 4.14422 7.92572C4.49424 7.49561 5.02182 6.91917 5.72529 6.34288C7.13106 5.19126 9.2186 4.05508 12 4.05508V2.55508ZM3 8.97034H7.6551V7.47034H3V8.97034Z" fill="black"/>
<path d="M12 4.05508C12.4142 4.05508 12.75 3.71929 12.75 3.30508C12.75 2.89087 12.4142 2.55508 12 2.55508V4.05508ZM3 8.22034H2.25C2.25 8.63455 2.58579 8.97034 3 8.97034L3 8.22034ZM3.75 3C3.75 2.58579 3.41421 2.25 3 2.25C2.58579 2.25 2.25 2.58579 2.25 3L3.75 3ZM7.6551 8.97034C8.06932 8.97034 8.4051 8.63455 8.4051 8.22034C8.4051 7.80612 8.06932 7.47034 7.6551 7.47034V8.97034ZM3.75 8.22034V3L2.25 3V8.22034H3.75ZM12 2.55508C8.78141 2.55508 6.36894 3.87653 4.77471 5.18253C3.97818 5.83506 3.38076 6.48743 2.98078 6.97893C2.78048 7.22506 2.62876 7.432 2.52549 7.58005C2.47383 7.65412 2.43421 7.71356 2.40662 7.75594C2.39282 7.77713 2.38203 7.79406 2.37423 7.80644C2.37033 7.81263 2.36718 7.81768 2.36478 7.82155C2.36358 7.82349 2.36257 7.82513 2.36174 7.82648C2.36133 7.82715 2.36096 7.82774 2.36064 7.82827C2.36048 7.82853 2.36027 7.82886 2.36019 7.82899C2.36 7.82931 2.35982 7.8296 3 8.22034C3.64018 8.61107 3.64002 8.61132 3.63987 8.61157C3.63984 8.61162 3.6397 8.61184 3.63964 8.61196C3.6395 8.61218 3.63941 8.61233 3.63936 8.6124C3.63927 8.61256 3.63935 8.61242 3.63961 8.61199C3.64014 8.61114 3.64139 8.60914 3.64335 8.60603C3.64727 8.5998 3.65405 8.58914 3.66369 8.57433C3.68298 8.54471 3.71367 8.49855 3.75576 8.43821C3.83999 8.31746 3.96952 8.14039 4.14422 7.92572C4.49424 7.49561 5.02182 6.91917 5.72529 6.34288C7.13106 5.19126 9.2186 4.05508 12 4.05508V2.55508ZM3 8.97034H7.6551V7.47034H3V8.97034Z" fill="#23408F"/>
</svg>
