<svg width="124" height="124" viewBox="0 0 124 124" fill="none" xmlns="http://www.w3.org/2000/svg">
<g clip-path="url(#clip0_2_3670)">
<path d="M16.8262 70.5718H107.174V91.5183H16.8262V70.5718Z" fill="#D1DEFF"/>
<path d="M16.8262 103.053H107.174V124H16.8262V103.053Z" fill="#D1DEFF"/>
<path d="M47.9052 61.5108H76.0946C80.1033 61.5108 83.3646 58.2495 83.3646 54.241V29.4258C83.3646 26.4987 81.6255 23.97 79.1264 22.8187V17.1263C79.1264 7.68291 71.4434 0 62.0001 0C52.5564 0 44.8738 7.68291 44.8738 17.1263V22.8187C42.3746 23.97 40.6355 26.4985 40.6355 29.4255V54.241C40.6355 58.2497 43.8968 61.5108 47.9052 61.5108ZM78.5209 54.241C78.5209 55.5786 77.4325 56.667 76.0946 56.667H47.9052C46.5676 56.667 45.4792 55.5786 45.4792 54.241V29.4258C45.4792 28.0882 46.5676 26.9998 47.9052 26.9998H76.0946C77.4322 26.9998 78.5209 28.0882 78.5209 29.4258V54.241ZM62.0001 4.84375C68.7726 4.84375 74.2826 10.3538 74.2826 17.1263V22.1558H49.7175V17.1263C49.7175 10.3538 55.2275 4.84375 62.0001 4.84375Z" fill="#23408F"/>
<path d="M61.9999 33.1848C58.239 33.1848 55.179 36.2446 55.179 40.0058C55.179 42.9142 57.0089 45.4034 59.578 46.3826V48.0207C59.578 49.3583 60.6623 50.4426 61.9999 50.4426C63.3373 50.4426 64.4218 49.3583 64.4218 48.0207V46.3826C66.9909 45.4037 68.8209 42.9145 68.8209 40.0058C68.8209 36.2446 65.7609 33.1848 61.9999 33.1848ZM61.9999 38.0286C63.0903 38.0286 63.9771 38.9155 63.9771 40.0058C63.9771 41.0961 63.0903 41.983 61.9999 41.983C60.9098 41.983 60.0227 41.0961 60.0227 40.0058C60.0227 38.9155 60.9098 38.0286 61.9999 38.0286Z" fill="#23408F"/>
<path d="M34.6938 83.4668H89.3062C90.6435 83.4668 91.728 82.3825 91.728 81.0449C91.728 79.7073 90.6435 78.623 89.3062 78.623H34.6938C33.3562 78.623 32.272 79.7073 32.272 81.0449C32.272 82.3825 33.3562 83.4668 34.6938 83.4668Z" fill="#23408F"/>
<path d="M37.7222 111.105H34.6938C33.3562 111.105 32.272 112.189 32.272 113.527C32.272 114.864 33.3562 115.948 34.6938 115.948H37.7222C39.0598 115.948 40.144 114.864 40.144 113.527C40.144 112.189 39.0598 111.105 37.7222 111.105Z" fill="#23408F"/>
<path d="M50.6182 111.105H47.5898C46.2522 111.105 45.168 112.189 45.168 113.527C45.168 114.864 46.2522 115.948 47.5898 115.948H50.6182C51.9558 115.948 53.04 114.864 53.04 113.527C53.04 112.189 51.9558 111.105 50.6182 111.105Z" fill="#23408F"/>
<path d="M63.5142 111.105H60.4858C59.1482 111.105 58.064 112.189 58.064 113.527C58.064 114.864 59.1482 115.948 60.4858 115.948H63.5142C64.8515 115.948 65.936 114.864 65.936 113.527C65.936 112.189 64.8515 111.105 63.5142 111.105Z" fill="#23408F"/>
<path d="M76.4101 111.105H73.3818C72.0445 111.105 70.96 112.189 70.96 113.527C70.96 114.864 72.0445 115.948 73.3818 115.948H76.4101C77.7475 115.948 78.832 114.864 78.832 113.527C78.832 112.189 77.7475 111.105 76.4101 111.105Z" fill="#23408F"/>
<path d="M89.3061 111.105H86.2778C84.9405 111.105 83.856 112.189 83.856 113.527C83.856 114.864 84.9405 115.948 86.2778 115.948H89.3061C90.6435 115.948 91.728 114.864 91.728 113.527C91.728 112.189 90.6437 111.105 89.3061 111.105Z" fill="#23408F"/>
</g>
<defs>
<clipPath id="clip0_2_3670">
<rect width="124" height="124" fill="white"/>
</clipPath>
</defs>
</svg>
