<svg width="40" height="40" viewBox="0 0 40 40" fill="none" xmlns="http://www.w3.org/2000/svg">
<path d="M19.9999 35.9455C13.2611 33.7443 8.62549 27.4143 8.62549 20.2636V10.8705C13.0258 10.2484 16.8329 8.43342 19.9999 5.44824C23.1669 8.43342 26.974 10.2485 31.3744 10.8705V20.2636C31.3744 27.4144 26.7389 33.7442 19.9999 35.9455Z" fill="#D1DEFF"/>
<path d="M17.779 20.4218C17.474 20.1168 16.9793 20.1168 16.6741 20.4218C16.369 20.7269 16.369 21.2216 16.6741 21.5268L18.3382 23.1908C18.6433 23.4959 19.138 23.4959 19.443 23.1908L23.3259 19.3081C23.6309 19.003 23.6309 18.5083 23.3259 18.2032C23.0208 17.8983 22.5262 17.8982 22.2209 18.2032L18.8906 21.5335L17.779 20.4218Z" fill="#23408F"/>
<path d="M11.3743 20.697C11.3743 25.4532 15.2437 29.3226 19.9999 29.3226C24.7561 29.3226 28.6256 25.4532 28.6256 20.697C28.6256 15.9408 24.7561 12.0713 19.9999 12.0713C15.2437 12.0713 11.3743 15.9408 11.3743 20.697ZM27.0631 20.697C27.0631 24.5917 23.8946 27.7601 19.9999 27.7601C16.1053 27.7601 12.9368 24.5916 12.9368 20.697C12.9368 16.8023 16.1053 13.6338 19.9999 13.6338C23.8946 13.6338 27.0631 16.8023 27.0631 20.697Z" fill="#23408F"/>
<path d="M34.5255 7.19089C28.6755 7.09097 24.1263 4.83791 20.6178 0.302961C20.3055 -0.100792 19.6946 -0.101182 19.382 0.302961C15.8736 4.83791 11.3244 7.09097 5.47444 7.19089C5.04826 7.19824 4.70654 7.54582 4.70654 7.97207V20.2637C4.70654 24.7896 6.16077 29.0813 8.91211 32.6749C11.6634 36.2685 15.4271 38.7921 19.7962 39.9729C19.9262 40.0081 20.0674 40.0098 20.2038 39.9729C24.573 38.7921 28.3366 36.2685 31.0879 32.6749C33.8391 29.0813 35.2934 24.7895 35.2934 20.2637V7.97207C35.2934 7.54582 34.9517 7.19824 34.5255 7.19089ZM33.7309 20.2637C33.7309 28.6921 28.0955 36.1228 20 38.4083C11.9045 36.1228 6.26905 28.6921 6.26905 20.2637V8.7284C11.9246 8.45707 16.4313 6.25737 20 2.02438C23.5687 6.25737 28.0754 8.45707 33.7309 8.7284V20.2637Z" fill="#23408F"/>
</svg>
