<svg width="44" height="44" viewBox="0 0 44 44" fill="none" xmlns="http://www.w3.org/2000/svg">
<path d="M28.875 39.875H26.125C24.2296 39.875 22.6875 38.3329 22.6875 36.4375V33C22.6875 31.8628 21.7622 30.9375 20.625 30.9375C19.4878 30.9375 18.5625 31.8628 18.5625 33V36.4375C18.5625 38.3329 17.0204 39.875 15.125 39.875C13.2296 39.875 11.6875 38.3329 11.6875 36.4375V30.25C11.6875 29.8703 11.9953 29.5625 12.375 29.5625C12.7547 29.5625 13.0625 29.8703 13.0625 30.25V36.4375C13.0625 37.5747 13.9878 38.5 15.125 38.5C16.2622 38.5 17.1875 37.5747 17.1875 36.4375V33C17.1875 31.1046 18.7296 29.5625 20.625 29.5625C22.5204 29.5625 24.0625 31.1046 24.0625 33V36.4375C24.0625 37.5747 24.9878 38.5 26.125 38.5H28.875C30.0122 38.5 30.9375 37.5747 30.9375 36.4375V33C30.9375 32.6203 31.2453 32.3125 31.625 32.3125C32.0047 32.3125 32.3125 32.6203 32.3125 33V36.4375C32.3125 38.3329 30.7704 39.875 28.875 39.875Z" fill="#23408F"/>
<path d="M29.5626 24.0625H27.0211C26.8933 24.0625 26.7765 23.9903 26.7193 23.876L25.6818 21.8008C25.5697 21.5764 25.7328 21.3124 25.9836 21.3124H29.5626V24.0625Z" fill="#23408F"/>
<path d="M35.0625 30.9375H29.5625L26.8125 17.1875H35.0625V30.9375Z" fill="#23408F"/>
<path d="M33.6875 17.1875H35.0625V30.9375H33.6875V17.1875Z" fill="#23408F"/>
<path d="M37.8125 6.18749V17.1875C35.1502 18.1551 32.3632 18.6751 29.5625 18.7404C27.182 18.7954 24.7912 18.5221 22.4606 17.918L11.6875 15.125V8.24999L22.4606 5.45702C24.7912 4.85288 27.182 4.5796 29.5625 4.6346C32.3632 4.69991 35.1502 5.21983 37.8125 6.18749Z" fill="#23408F"/>
<path d="M39.8242 17.1875H37.8125V6.1875H39.8242C40.9913 6.1875 41.9375 7.13367 41.9375 8.30079V15.0742C41.9375 16.2413 40.9913 17.1875 39.8242 17.1875Z" fill="#974946"/>
<path d="M39.8242 6.1875H38.4492C39.6163 6.1875 40.5625 7.13367 40.5625 8.30079V15.0742C40.5625 16.2413 39.6163 17.1875 38.4492 17.1875H39.8242C40.9913 17.1875 41.9375 16.2413 41.9375 15.0742V8.30079C41.9375 7.13367 40.9913 6.1875 39.8242 6.1875Z" fill="#66312F"/>
<path d="M39.875 11C39.4953 11 39.1875 11.3078 39.1875 11.6875C39.1875 12.0672 39.4953 12.375 39.875 12.375H41.9375V11H39.875Z" fill="#F8D371"/>
<path d="M39.875 8.25C39.4953 8.25 39.1875 8.55783 39.1875 8.9375C39.1875 9.31717 39.4953 9.625 39.875 9.625H41.9375V8.25H39.875Z" fill="#F8D371"/>
<path d="M40.5625 8.25H41.9375V9.625H40.5625V8.25Z" fill="#B49952"/>
<path d="M40.5625 11H41.9375V12.375H40.5625V11Z" fill="#B49952"/>
<path d="M39.875 13.75C39.4953 13.75 39.1875 14.0578 39.1875 14.4375C39.1875 14.8172 39.4953 15.125 39.875 15.125H41.9375V13.75H39.875Z" fill="#F8D371"/>
<path d="M29.5625 4.6346V18.7404C27.182 18.7954 24.7912 18.5221 22.4606 17.918L11.6875 15.125V8.24999L22.4606 5.45702C24.7912 4.85288 27.182 4.5796 29.5625 4.6346Z" fill="#FAD74B"/>
<path d="M11.6875 15.125L7.5625 16.5V6.875L11.6875 8.25V15.125Z" fill="#FF4444"/>
<path d="M32.3125 10.3125H29.5625C28.8031 10.3125 28.1875 9.69693 28.1875 8.9375C28.1875 8.17807 28.8031 7.5625 29.5625 7.5625H32.3125C33.0719 7.5625 33.6875 8.17807 33.6875 8.9375C33.6875 9.69693 33.0719 10.3125 32.3125 10.3125Z" fill="#D35148"/>
<path d="M32.3125 13.0625H29.5625C28.8031 13.0625 28.1875 12.4469 28.1875 11.6875C28.1875 10.9281 28.8031 10.3125 29.5625 10.3125H32.3125C33.0719 10.3125 33.6875 10.9281 33.6875 11.6875C33.6875 12.4469 33.0719 13.0625 32.3125 13.0625Z" fill="white"/>
<path d="M32.3125 15.8125H29.5625C28.8031 15.8125 28.1875 15.1969 28.1875 14.4375C28.1875 13.6781 28.8031 13.0625 29.5625 13.0625H32.3125C33.0719 13.0625 33.6875 13.6781 33.6875 14.4375C33.6875 15.1969 33.0719 15.8125 32.3125 15.8125Z" fill="#D35148"/>
<path d="M33.2147 33.6875H27.9729C27.3321 33.6875 26.8125 33.168 26.8125 32.5271V31.8435C26.8125 31.311 27.1749 30.8468 27.6915 30.7177L35.0625 28.875V31.8397C35.0625 32.8602 34.2352 33.6875 33.2147 33.6875Z" fill="#23408F"/>
<path d="M33.6874 29.2188V31.8397C33.6874 32.8602 32.8601 33.6875 31.8396 33.6875H33.2146C34.2351 33.6875 35.0624 32.8602 35.0624 31.8397V28.875L33.6874 29.2188Z" fill="#23408F"/>
<path d="M30.25 22C30.25 21.6203 29.9421 21.3125 29.5625 21.3125H27.6375L27.9124 22.6875H29.5625C29.9421 22.6875 30.25 22.3797 30.25 22Z" fill="#F8D371"/>
<path d="M30.9375 24.75C30.9375 24.3703 30.6297 24.0625 30.25 24.0625H28.1875L28.4625 25.4375H30.25C30.6297 25.4375 30.9375 25.1297 30.9375 24.75Z" fill="#F8D371"/>
<path d="M31.6251 27.5C31.6251 27.1203 31.3172 26.8125 30.9376 26.8125H28.8751C28.8289 26.8125 28.7838 26.8172 28.7402 26.8259L29.0126 28.1875H30.9376C31.3172 28.1875 31.6251 27.8797 31.6251 27.5Z" fill="#F8D371"/>
<path d="M4.8125 8.9375H2.0625C1.68283 8.9375 1.375 8.62967 1.375 8.25C1.375 7.87033 1.68283 7.5625 2.0625 7.5625H4.8125C5.19217 7.5625 5.5 7.87033 5.5 8.25C5.5 8.62967 5.19217 8.9375 4.8125 8.9375Z" fill="#DE6B66"/>
<path d="M4.8125 12.375H2.0625C1.68283 12.375 1.375 12.0672 1.375 11.6875C1.375 11.3078 1.68283 11 2.0625 11H4.8125C5.19217 11 5.5 11.3078 5.5 11.6875C5.5 12.0672 5.19217 12.375 4.8125 12.375Z" fill="#DE6B66"/>
<path d="M4.8125 15.8125H2.0625C1.68283 15.8125 1.375 15.5047 1.375 15.125C1.375 14.7453 1.68283 14.4375 2.0625 14.4375H4.8125C5.19217 14.4375 5.5 14.7453 5.5 15.125C5.5 15.5047 5.19217 15.8125 4.8125 15.8125Z" fill="#DE6B66"/>
<path d="M40.5625 13.75H41.9375V15.125H40.5625V13.75Z" fill="#B49952"/>
</svg>
