<?xml version="1.0" standalone="no"?>
<!DOCTYPE svg PUBLIC "-//W3C//DTD SVG 20010904//EN"
 "http://www.w3.org/TR/2001/REC-SVG-20010904/DTD/svg10.dtd">
<svg version="1.0" xmlns="http://www.w3.org/2000/svg"
 width="512.000000pt" height="512.000000pt" viewBox="0 0 512.000000 512.000000"
 preserveAspectRatio="xMidYMid meet">

<g transform="translate(0.000000,512.000000) scale(0.100000,-0.100000)"
fill="#000000" stroke="none">
<path d="M2438 5109 c-315 -46 -581 -268 -684 -571 -83 -244 -46 -529 97 -740
165 -244 416 -378 709 -378 297 0 553 139 713 385 141 220 175 490 92 736
-131 385 -526 627 -927 568z m251 -324 c182 -43 332 -190 386 -378 24 -82 22
-214 -4 -298 -59 -190 -235 -340 -433 -371 -203 -31 -414 67 -530 246 -132
205 -100 484 77 661 130 130 320 183 504 140z"/>
<path d="M3869 3827 c-154 -44 -249 -177 -236 -333 9 -115 70 -204 173 -255
81 -40 167 -45 255 -15 l57 19 65 -51 c156 -124 293 -310 367 -496 37 -92 77
-242 81 -306 l4 -45 -164 0 -163 0 -24 95 c-88 347 -370 629 -729 727 l-100
28 -895 0 -895 0 -100 -28 c-359 -98 -641 -380 -729 -727 l-24 -95 -358 -5
c-339 -5 -361 -6 -386 -25 -40 -29 -72 -98 -65 -140 8 -51 437 -1226 459
-1258 40 -57 39 -57 497 -57 231 0 422 -3 425 -8 2 -4 29 -170 60 -369 31
-199 60 -372 65 -385 13 -35 76 -86 114 -93 80 -15 168 43 183 121 4 25 -22
224 -85 633 -50 328 -91 604 -91 614 0 16 51 17 930 17 879 0 930 -1 930 -17
0 -10 -41 -286 -91 -614 -63 -409 -89 -608 -85 -633 15 -79 101 -135 182 -120
41 8 101 56 115 92 5 13 34 186 65 385 31 199 58 365 60 369 3 5 194 8 425 8
458 0 457 0 497 57 17 25 441 1179 457 1244 17 71 -44 162 -119 176 l-40 9
-13 90 c-24 183 -74 339 -164 514 -103 199 -258 383 -436 518 -74 56 -83 67
-83 95 0 49 -51 147 -99 190 -79 71 -196 101 -292 74z m-395 -967 c195 -50
363 -184 450 -360 25 -52 49 -110 52 -127 l7 -33 -1423 0 -1422 0 6 33 c3 17
27 75 52 127 86 174 254 309 446 360 69 18 120 19 914 19 805 1 844 0 918 -19z
m1256 -837 c0 -5 -69 -197 -153 -428 l-153 -420 -322 -3 -322 -2 5 22 c2 13
16 99 30 191 29 194 26 223 -30 277 l-36 35 -1187 0 c-1171 0 -1187 0 -1214
-20 -15 -11 -37 -39 -49 -63 l-22 -44 28 -181 c14 -100 29 -190 32 -200 4 -16
-14 -17 -319 -15 l-323 3 -147 405 c-82 223 -151 415 -154 428 l-6 22 2171 0
c1194 0 2171 -3 2171 -7z"/>
</g>
</svg>
