<svg width="136" height="154" viewBox="0 0 136 154" fill="none" xmlns="http://www.w3.org/2000/svg">
<path d="M16.0816 133.263C15.9116 133.535 15.7303 133.739 15.5376 133.875C15.3563 134.011 15.1183 134.079 14.8236 134.079C14.5629 134.079 14.2796 134 13.9736 133.841C13.6789 133.671 13.3389 133.484 12.9536 133.28C12.5796 133.076 12.1489 132.895 11.6616 132.736C11.1743 132.566 10.6189 132.481 9.99559 132.481C8.91892 132.481 8.11425 132.713 7.58159 133.178C7.06025 133.631 6.79959 134.249 6.79959 135.031C6.79959 135.53 6.95825 135.943 7.27559 136.272C7.59292 136.601 8.00659 136.884 8.51659 137.122C9.03792 137.36 9.62725 137.581 10.2846 137.785C10.9533 137.978 11.6333 138.199 12.3246 138.448C13.0159 138.686 13.6903 138.969 14.3476 139.298C15.0163 139.627 15.6056 140.046 16.1156 140.556C16.6369 141.066 17.0563 141.689 17.3736 142.426C17.6909 143.151 17.8496 144.03 17.8496 145.061C17.8496 146.206 17.6513 147.277 17.2546 148.274C16.8579 149.271 16.2799 150.144 15.5206 150.892C14.7726 151.629 13.8433 152.212 12.7326 152.643C11.6333 153.062 10.3809 153.272 8.97559 153.272C8.20492 153.272 7.41725 153.193 6.61259 153.034C5.81925 152.875 5.04859 152.654 4.30059 152.371C3.55259 152.076 2.84992 151.731 2.19259 151.334C1.53525 150.937 0.962919 150.495 0.475586 150.008L2.17559 147.322C2.31159 147.129 2.48725 146.971 2.70259 146.846C2.92925 146.71 3.17292 146.642 3.43359 146.642C3.77359 146.642 4.11359 146.75 4.45359 146.965C4.80492 147.18 5.19592 147.418 5.62659 147.679C6.06859 147.94 6.57292 148.178 7.13959 148.393C7.70625 148.608 8.37492 148.716 9.14559 148.716C10.1883 148.716 10.9986 148.489 11.5766 148.036C12.1546 147.571 12.4436 146.84 12.4436 145.843C12.4436 145.265 12.2849 144.795 11.9676 144.432C11.6503 144.069 11.2309 143.769 10.7096 143.531C10.1996 143.293 9.61592 143.083 8.95859 142.902C8.30125 142.721 7.62692 142.522 6.93559 142.307C6.24425 142.08 5.56992 141.808 4.91259 141.491C4.25525 141.162 3.66592 140.737 3.14459 140.216C2.63459 139.683 2.22092 139.026 1.90359 138.244C1.58625 137.451 1.42759 136.476 1.42759 135.32C1.42759 134.391 1.61459 133.484 1.98859 132.6C2.36259 131.716 2.91225 130.928 3.63759 130.237C4.36292 129.546 5.25259 128.996 6.30659 128.588C7.36059 128.169 8.56759 127.959 9.92759 127.959C10.6869 127.959 11.4236 128.021 12.1376 128.146C12.8629 128.259 13.5486 128.435 14.1946 128.673C14.8406 128.9 15.4413 129.177 15.9966 129.506C16.5633 129.823 17.0676 130.186 17.5096 130.594L16.0816 133.263Z" fill="white"/>
<path d="M27.0028 132.651V138.431H34.7888V142.681H27.0028V148.58H37.1688V153H21.2228V128.231H37.1688V132.651H27.0028Z" fill="white"/>
<path d="M48.771 139.876C49.553 139.876 50.216 139.78 50.76 139.587C51.3153 139.383 51.7687 139.105 52.12 138.754C52.4713 138.403 52.7263 137.995 52.885 137.53C53.0437 137.054 53.123 136.544 53.123 136C53.123 134.912 52.766 134.062 52.052 133.45C51.3493 132.838 50.2557 132.532 48.771 132.532H46.459V139.876H48.771ZM60.977 153H55.775C54.8117 153 54.1203 152.637 53.701 151.912L49.587 144.721C49.3943 144.415 49.179 144.194 48.941 144.058C48.703 143.911 48.363 143.837 47.921 143.837H46.459V153H40.713V128.231H48.771C50.5617 128.231 52.086 128.418 53.344 128.792C54.6133 129.155 55.6447 129.665 56.438 130.322C57.2427 130.979 57.8263 131.756 58.189 132.651C58.5517 133.546 58.733 134.521 58.733 135.575C58.733 136.38 58.6253 137.139 58.41 137.853C58.1947 138.567 57.8773 139.23 57.458 139.842C57.0387 140.443 56.5173 140.981 55.894 141.457C55.282 141.933 54.5737 142.324 53.769 142.63C54.143 142.823 54.4943 143.066 54.823 143.361C55.1517 143.644 55.4463 143.984 55.707 144.381L60.977 153Z" fill="white"/>
<path d="M84.3812 128.231L74.4532 153H69.2512L59.3232 128.231H63.9472C64.4459 128.231 64.8482 128.35 65.1542 128.588C65.4602 128.815 65.6925 129.109 65.8512 129.472L70.6452 142.732C70.8719 143.31 71.0929 143.945 71.3082 144.636C71.5235 145.316 71.7275 146.03 71.9202 146.778C72.0789 146.03 72.2545 145.316 72.4472 144.636C72.6512 143.945 72.8665 143.31 73.0932 142.732L77.8532 129.472C77.9779 129.155 78.1989 128.871 78.5162 128.622C78.8449 128.361 79.2472 128.231 79.7232 128.231H84.3812Z" fill="white"/>
<path d="M92.1141 153H86.3341V128.231H92.1141V153Z" fill="white"/>
<path d="M113.587 146.591C113.723 146.591 113.859 146.619 113.995 146.676C114.131 146.721 114.261 146.806 114.386 146.931L116.664 149.328C115.666 150.631 114.414 151.617 112.907 152.286C111.411 152.943 109.637 153.272 107.586 153.272C105.704 153.272 104.016 152.955 102.52 152.32C101.035 151.674 99.7713 150.79 98.7287 149.668C97.6973 148.535 96.904 147.197 96.3487 145.656C95.7933 144.103 95.5157 142.42 95.5157 140.607C95.5157 138.76 95.816 137.065 96.4167 135.524C97.0173 133.971 97.8617 132.634 98.9497 131.512C100.038 130.39 101.341 129.517 102.86 128.894C104.378 128.271 106.05 127.959 107.875 127.959C108.804 127.959 109.677 128.044 110.493 128.214C111.32 128.373 112.091 128.599 112.805 128.894C113.519 129.177 114.176 129.523 114.777 129.931C115.377 130.339 115.91 130.781 116.375 131.257L114.437 133.858C114.312 134.017 114.165 134.164 113.995 134.3C113.825 134.425 113.587 134.487 113.281 134.487C113.077 134.487 112.884 134.442 112.703 134.351C112.521 134.26 112.329 134.153 112.125 134.028C111.921 133.892 111.694 133.75 111.445 133.603C111.207 133.444 110.918 133.303 110.578 133.178C110.249 133.042 109.858 132.929 109.405 132.838C108.963 132.747 108.441 132.702 107.841 132.702C106.889 132.702 106.016 132.878 105.223 133.229C104.441 133.58 103.761 134.096 103.183 134.776C102.616 135.445 102.174 136.272 101.857 137.258C101.551 138.233 101.398 139.349 101.398 140.607C101.398 141.876 101.568 143.004 101.908 143.99C102.259 144.976 102.729 145.809 103.319 146.489C103.919 147.158 104.616 147.668 105.41 148.019C106.203 148.37 107.053 148.546 107.96 148.546C108.481 148.546 108.957 148.523 109.388 148.478C109.818 148.421 110.221 148.336 110.595 148.223C110.969 148.098 111.32 147.94 111.649 147.747C111.977 147.543 112.312 147.288 112.652 146.982C112.788 146.869 112.935 146.778 113.094 146.71C113.252 146.631 113.417 146.591 113.587 146.591Z" fill="white"/>
<path d="M124.952 132.651V138.431H132.738V142.681H124.952V148.58H135.118V153H119.172V128.231H135.118V132.651H124.952Z" fill="white"/>
<path d="M30.7131 18.5849C31.0381 18.6664 31.3355 18.835 31.5725 19.0718L58.0525 45.5523L62.8441 40.7612L36.3636 14.2807C36.1261 14.0434 35.9582 13.7451 35.8762 13.4191L34.2096 6.77551L23.1615 0.459291L17.7513 5.86922L24.0695 16.9249L30.7131 18.5849Z" fill="white"/>
<path d="M54.26 78.9877L96.2797 36.9673C96.74 36.5065 97.4078 36.3218 98.0393 36.479C103.572 37.8969 109.448 36.6682 113.951 33.1553C118.454 29.6421 121.074 24.2395 121.043 18.5286C121.043 18.1807 121.033 17.8303 121.011 17.4768L111.237 27.2489C110.742 27.7446 110.008 27.9184 109.342 27.6963L98.2262 23.9906C97.6727 23.8073 97.2385 23.3731 97.0538 22.8201L93.349 11.704C93.1267 11.0393 93.3 10.3046 93.7964 9.80847L103.57 0.035626C97.6843 -0.330505 91.9786 2.14207 88.2196 6.68494C84.4611 11.2288 83.1028 17.2966 84.5647 23.0084C84.7231 23.6408 84.5386 24.3084 84.0778 24.769L42.0588 66.7865C41.5979 67.2437 40.9307 67.4291 40.2988 67.2744C38.8359 66.8987 37.3315 66.704 35.8204 66.6981C27.8413 66.6455 20.712 71.6755 18.0849 79.2114C15.4592 86.7466 17.9182 95.1184 24.2024 100.036C30.4865 104.954 39.2037 105.331 45.8873 100.97C52.5713 96.6102 55.7405 88.4812 53.7707 80.7473C53.6141 80.1161 53.7993 79.4473 54.26 78.9877ZM40.3299 92.6358H31.3122L26.8647 85.2255L31.3122 77.8139H40.3299L44.7765 85.2255L40.3299 92.6358ZM47.48 70.9464L88.2384 30.1875L90.8577 32.8072L50.0992 73.5661L47.48 70.9464Z" fill="white"/>
<path d="M105.852 103.033C109.979 104.585 114.631 103.579 117.749 100.461C120.867 97.343 121.873 92.6898 120.321 88.5642L105.852 103.033Z" fill="white"/>
<path d="M117.749 84.551L96.9408 63.7345C94.6456 65.6638 91.2562 65.5171 89.1348 63.3983C87.0132 61.28 86.8636 57.8916 88.7896 55.5941L85.8427 52.6436L69.9358 68.5512L72.9005 71.5157C75.1957 69.5864 78.5855 69.7326 80.7057 71.8507C82.8272 73.9694 82.9776 77.3583 81.0514 79.6561L101.842 100.458C102.069 100.684 102.308 100.895 102.55 101.099L118.391 85.2583C118.187 85.0161 117.976 84.7776 117.749 84.551ZM106.765 92.0924L88.2383 73.566L90.8575 70.9463L109.384 89.4736L106.765 92.0924Z" fill="white"/>
</svg>
