<svg width="40" height="40" viewBox="0 0 40 40" fill="none" xmlns="http://www.w3.org/2000/svg">
<path d="M31.9005 23.2183L29.4044 24.3607C29.1667 24.4695 28.9015 24.2768 28.9315 24.0172L29.2467 21.2902L27.3888 19.2694C27.212 19.077 27.3133 18.7652 27.5695 18.7135L30.2603 18.1705L31.6082 15.7791C31.7365 15.5515 32.0644 15.5515 32.1927 15.7791L33.5406 18.1705L36.2314 18.7135C36.4876 18.7652 36.5889 19.077 36.4121 19.2694L34.5542 21.2902L34.8694 24.0172C34.8994 24.2768 34.6342 24.4695 34.3965 24.3607L31.9005 23.2183Z" fill="#D1DEFF"/>
<path d="M20.0001 23.2183L17.504 24.3607C17.2663 24.4695 17.0011 24.2768 17.0311 24.0172L17.3463 21.2902L15.4885 19.2694C15.3116 19.077 15.4129 18.7652 15.6691 18.7135L18.3599 18.1705L19.7078 15.7791C19.8361 15.5515 20.164 15.5515 20.2923 15.7791L21.6402 18.1705L24.331 18.7135C24.5872 18.7652 24.6885 19.077 24.5117 19.2694L22.6538 21.2902L22.969 24.0172C22.999 24.2768 22.7338 24.4695 22.4961 24.3607L20.0001 23.2183Z" fill="#D1DEFF"/>
<path d="M8.0997 23.2183L5.60361 24.3607C5.36595 24.4695 5.10072 24.2768 5.13072 24.0172L5.44587 21.2902L3.58806 19.2694C3.41118 19.077 3.51251 18.7652 3.76868 18.7135L6.45954 18.1705L7.80744 15.7791C7.93572 15.5515 8.26361 15.5515 8.39189 15.7791L9.73978 18.1705L12.4306 18.7135C12.6868 18.7652 12.7881 19.077 12.6113 19.2694L10.7535 21.2902L11.0686 24.0172C11.0986 24.2768 10.8334 24.4695 10.5957 24.3607L8.0997 23.2183Z" fill="#D1DEFF"/>
<path d="M36.1066 7.17334H3.89336C1.74656 7.17334 0 8.9199 0 11.0667V28.9332C0 31.08 1.74656 32.8265 3.89336 32.8265H36.1066C38.2534 32.8265 39.9999 31.0801 39.9999 28.9332V11.0667C40 8.9199 38.2534 7.17334 36.1066 7.17334ZM38.4375 28.9333C38.4375 30.2185 37.3919 31.2641 36.1066 31.2641H3.89336C2.60812 31.2641 1.5625 30.2185 1.5625 28.9333V11.0667C1.5625 9.78147 2.60812 8.73584 3.89336 8.73584H36.1066C37.3918 8.73584 38.4374 9.78147 38.4374 11.0667V28.9333H38.4375Z" fill="#23408F"/>
<path d="M31.9003 27.5496H7.93188C7.5004 27.5496 7.15063 27.8994 7.15063 28.3308C7.15063 28.7622 7.5004 29.1121 7.93188 29.1121H31.9003C32.3318 29.1121 32.6816 28.7622 32.6816 28.3308C32.6816 27.8994 32.3318 27.5496 31.9003 27.5496Z" fill="#23408F"/>
<path d="M10.8774 12.4504H29.1225C29.554 12.4504 29.9038 12.1006 29.9038 11.6692C29.9038 11.2378 29.554 10.8879 29.1225 10.8879H10.8774C10.446 10.8879 10.0962 11.2378 10.0962 11.6692C10.0962 12.1006 10.446 12.4504 10.8774 12.4504Z" fill="#23408F"/>
</svg>
