<svg width="25" height="25" viewBox="0 0 25 25" fill="none" xmlns="http://www.w3.org/2000/svg">
<g clip-path="url(#clip0_2_2636)">
<path d="M24.9348 9.5899C24.7712 9.08367 24.3222 8.72413 23.791 8.67625L16.5753 8.02106L13.722 1.34269C13.5116 0.853257 13.0325 0.536438 12.5001 0.536438C11.9678 0.536438 11.4886 0.853257 11.2783 1.34384L8.42498 8.02106L1.20814 8.67625C0.677886 8.72527 0.230029 9.08367 0.0654206 9.5899C-0.0991879 10.0961 0.0528318 10.6514 0.453958 11.0014L5.90816 15.7847L4.29984 22.8694C4.18216 23.3903 4.38434 23.9288 4.81656 24.2412C5.04888 24.409 5.32068 24.4945 5.59478 24.4945C5.8311 24.4945 6.06552 24.4308 6.27591 24.3049L12.5001 20.5849L18.7221 24.3049C19.1774 24.5788 19.7513 24.5538 20.1826 24.2412C20.615 23.9278 20.817 23.3891 20.6993 22.8694L19.091 15.7847L24.5452 11.0023C24.9463 10.6514 25.0995 10.0971 24.9348 9.5899Z" fill="#FFC107"/>
</g>
<defs>
<clipPath id="clip0_2_2636">
<rect width="25" height="25" fill="white"/>
</clipPath>
</defs>
</svg>
