<svg width="20" height="20" viewBox="0 0 20 20" fill="none" xmlns="http://www.w3.org/2000/svg">
<path d="M6.53545 4.57449L7.08009 4.82623L6.53545 4.57449ZM7.34835 3.48427L6.94793 3.03743L6.94793 3.03743L7.34835 3.48427ZM8.56494 2.7558L8.77373 3.3183L8.56494 2.7558ZM11.4351 2.7558L11.6439 2.1933L11.6439 2.1933L11.4351 2.7558ZM13.4645 4.57449L14.0092 4.32275V4.32275L13.4645 4.57449ZM6.85 5.86049C6.85 5.5077 6.92744 5.15648 7.08009 4.82623L5.99082 4.32275C5.76656 4.80792 5.65 5.33067 5.65 5.86049H6.85ZM7.08009 4.82623C7.23285 4.49573 7.45886 4.1909 7.74877 3.9311L6.94793 3.03743C6.5414 3.40173 6.21497 3.83782 5.99082 4.32275L7.08009 4.82623ZM7.74877 3.9311C8.03882 3.67118 8.38661 3.462 8.77373 3.3183L8.35614 2.1933C7.83333 2.38737 7.35432 2.67325 6.94793 3.03743L7.74877 3.9311ZM8.77373 3.3183C9.16089 3.17459 9.57774 3.1 10 3.1V1.9C9.43734 1.9 8.87893 1.99925 8.35614 2.1933L8.77373 3.3183ZM10 3.1C10.4223 3.1 10.8391 3.17459 11.2263 3.3183L11.6439 2.1933C11.1211 1.99925 10.5627 1.9 10 1.9V3.1ZM11.2263 3.3183C11.6134 3.462 11.9612 3.67118 12.2512 3.9311L13.0521 3.03743C12.6457 2.67325 12.1667 2.38737 11.6439 2.1933L11.2263 3.3183ZM12.2512 3.9311C12.5411 4.1909 12.7672 4.49574 12.9199 4.82623L14.0092 4.32275C13.785 3.83782 13.4586 3.40173 13.0521 3.03743L12.2512 3.9311ZM12.9199 4.82623C13.0726 5.15648 13.15 5.50771 13.15 5.8605H14.35C14.35 5.33067 14.2334 4.80792 14.0092 4.32275L12.9199 4.82623Z" fill="#7F889E"/>
<path d="M2.5 5.26047C2.16863 5.26047 1.9 5.5291 1.9 5.86047C1.9 6.19184 2.16863 6.46047 2.5 6.46047V5.26047ZM17.5 6.46047C17.8314 6.46047 18.1 6.19184 18.1 5.86047C18.1 5.5291 17.8314 5.26047 17.5 5.26047V6.46047ZM4.16667 5.86047V5.26047H3.56667V5.86047H4.16667ZM15.8333 5.86047H16.4333V5.26047H15.8333V5.86047ZM15.2849 14.0252L15.8613 14.1916L15.2849 14.0252ZM11.4366 17.3794L11.5366 17.971L11.4366 17.3794ZM8.56334 17.3794L8.66332 16.7878L8.66331 16.7878L8.56334 17.3794ZM8.43189 17.3572L8.33191 17.9488L8.33192 17.9488L8.43189 17.3572ZM4.71512 14.0252L4.13866 14.1916L4.71512 14.0252ZM11.5681 17.3572L11.4681 16.7656L11.5681 17.3572ZM2.5 6.46047H17.5V5.26047H2.5V6.46047ZM11.4681 16.7656L11.3367 16.7878L11.5366 17.971L11.6681 17.9488L11.4681 16.7656ZM8.66331 16.7878L8.53186 16.7656L8.33192 17.9488L8.46337 17.971L8.66331 16.7878ZM15.2333 5.86047V10.1465H16.4333V5.86047H15.2333ZM4.76667 10.1465V5.86047H3.56667V10.1465H4.76667ZM15.2333 10.1465C15.2333 11.4028 15.0566 12.6527 14.7084 13.8588L15.8613 14.1916C16.2408 12.8773 16.4333 11.5153 16.4333 10.1465H15.2333ZM11.3367 16.7878C10.4517 16.9374 9.54826 16.9374 8.66332 16.7878L8.46336 17.971C9.48067 18.143 10.5193 18.143 11.5366 17.971L11.3367 16.7878ZM8.53187 16.7656C6.99063 16.5052 5.72993 15.3773 5.29159 13.8588L4.13866 14.1916C4.70369 16.149 6.33178 17.6108 8.33191 17.9488L8.53187 16.7656ZM5.29159 13.8588C4.94341 12.6527 4.76667 11.4028 4.76667 10.1465H3.56667C3.56667 11.5153 3.75924 12.8772 4.13866 14.1916L5.29159 13.8588ZM11.6681 17.9488C13.6682 17.6108 15.2963 16.149 15.8613 14.1916L14.7084 13.8588C14.27 15.3773 13.0093 16.5052 11.4681 16.7656L11.6681 17.9488ZM4.16667 6.46047H15.8333V5.26047H4.16667V6.46047Z" fill="#7F889E"/>
<path d="M8.93331 10C8.93331 9.66863 8.66468 9.4 8.33331 9.4C8.00194 9.4 7.73331 9.66863 7.73331 10H8.93331ZM7.73331 13.3333C7.73331 13.6647 8.00194 13.9333 8.33331 13.9333C8.66468 13.9333 8.93331 13.6647 8.93331 13.3333H7.73331ZM12.2666 10C12.2666 9.66863 11.998 9.4 11.6666 9.4C11.3353 9.4 11.0666 9.66863 11.0666 10H12.2666ZM11.0666 13.3333C11.0666 13.6647 11.3353 13.9333 11.6666 13.9333C11.998 13.9333 12.2666 13.6647 12.2666 13.3333H11.0666ZM7.73331 10V13.3333H8.93331V10H7.73331ZM11.0666 10V13.3333H12.2666V10H11.0666Z" fill="#7F889E"/>
</svg>
