<svg width="46" height="46" viewBox="0 0 46 46" fill="none" xmlns="http://www.w3.org/2000/svg">
<path d="M42.5922 30.222L42.1609 28.0658H37.3424L36.5757 30.2067L32.7137 30.2144C34.5523 25.7929 36.3948 21.373 38.2413 16.9549C38.5557 16.2054 39.1134 15.824 39.9357 15.8279C40.5643 15.8336 41.5897 15.8336 43.0138 15.8298L46 30.2163L42.5922 30.222ZM38.4272 25.1122H41.5322L40.3727 19.7072L38.4272 25.1122ZM13.5317 15.8259L17.4148 15.8298L11.4118 30.2239L7.48075 30.2201C6.49223 26.4181 5.516 22.6128 4.55208 18.8044C4.36042 18.0454 3.98092 17.5145 3.25067 17.2634C2.60092 17.0392 1.518 16.6942 0 16.2246V15.8317H6.20425C7.27758 15.8317 7.90433 16.3511 8.10558 17.4168C8.30875 18.4844 8.81858 21.2022 9.63892 25.5703L13.5317 15.8259ZM22.7508 15.8298L19.6803 30.2201L15.985 30.2163L19.0517 15.8259L22.7508 15.8298ZM30.245 15.5634C31.3509 15.5634 32.7443 15.9084 33.5455 16.2246L32.8977 19.2089C32.1732 18.9175 30.981 18.5246 29.9786 18.538C28.5219 18.5629 27.6211 19.1744 27.6211 19.7609C27.6211 20.7154 29.1851 21.1964 30.7951 22.2391C32.6332 23.4274 32.8747 24.495 32.8517 25.6546C32.8267 28.0619 30.7951 30.4367 26.5094 30.4367C24.5544 30.4079 23.8491 30.2431 22.2544 29.6777L22.9291 26.5631C24.5525 27.2435 25.2406 27.4601 26.6282 27.4601C27.899 27.4601 28.9896 26.9464 28.9992 26.0514C29.0068 25.415 28.6158 25.0988 27.1898 24.3129C25.7638 23.5252 23.7628 22.4346 23.7897 20.2458C23.8222 17.4436 26.4768 15.5634 30.2469 15.5634H30.245Z" fill="#2270A8"/>
</svg>
