<svg width="24" height="24" viewBox="0 0 24 24" fill="none" xmlns="http://www.w3.org/2000/svg">
<path fill-rule="evenodd" clip-rule="evenodd" d="M15.0308 3.3303C13.0345 2.8899 10.9655 2.8899 8.96917 3.3303L8.55155 3.42243C5.76343 4.03749 3.56534 6.17136 2.87698 8.93119C2.37434 10.9465 2.37434 13.0536 2.87698 15.0688C3.56534 17.8286 5.76343 19.9625 8.55155 20.5776L8.96917 20.6697C10.9655 21.1101 13.0345 21.1101 15.0308 20.6697L15.4484 20.5776C18.2366 19.9625 20.4347 17.8286 21.123 15.0688C21.6257 13.0535 21.6257 10.9465 21.123 8.9312C20.4347 6.17136 18.2366 4.03749 15.4484 3.42243L15.0308 3.3303ZM17.9433 9.80778C18.3203 9.74389 18.702 9.72114 19.0807 9.73871C19.4968 9.75801 19.8243 10.0825 19.8802 10.4936C20.0163 11.4933 20.0163 12.5067 19.8802 13.5064C19.8243 13.9175 19.4968 14.242 19.0807 14.2613C18.702 14.2789 18.3203 14.2561 17.9433 14.1922L17.8694 14.1797C16.8874 14.0133 16.1287 13.3507 15.8722 12.5159C15.7684 12.1783 15.7684 11.8217 15.8722 11.4841C16.1287 10.6493 16.8874 9.98674 17.8694 9.82032L17.9433 9.80778ZM7.34559 8.97732C7.34559 8.64344 7.61739 8.37278 7.95269 8.37278L12 8.37278C12.3353 8.37278 12.6071 8.64344 12.6071 8.97732C12.6071 9.3112 12.3353 9.58186 12 9.58186H7.95269C7.61739 9.58186 7.34559 9.3112 7.34559 8.97732Z" fill="#23408F"/>
</svg>
