<svg width="24" height="24" viewBox="0 0 24 24" fill="none" xmlns="http://www.w3.org/2000/svg">
<path d="M8 9L12 9" stroke="#23408F" stroke-width="1.5" stroke-linecap="round"/>
<path d="M2.88539 15.1513L3.61329 14.9705L2.88539 15.1513ZM2.88539 8.84875L3.61329 9.02949L2.88539 8.84875ZM21.1146 8.84875L21.8425 8.66801L21.1146 8.84875ZM21.1146 15.1512L20.3867 14.9705L21.1146 15.1512ZM15.1156 20.659L14.9533 19.9267H14.9533L15.1156 20.659ZM8.88443 20.659L9.04668 19.9267L8.88443 20.659ZM8.88443 3.34105L9.04668 4.07329L8.88443 3.34105ZM15.1156 3.34105L15.2778 2.60881V2.60881L15.1156 3.34105ZM8.43056 20.5584L8.2683 21.2906L8.43056 20.5584ZM15.5694 20.5584L15.7317 21.2906H15.7317L15.5694 20.5584ZM15.5694 3.44162L15.4072 4.17386V4.17386L15.5694 3.44162ZM8.43056 3.44162L8.2683 2.70938V2.70938L8.43056 3.44162ZM18.6933 14.5037L18.5588 15.2415L18.5588 15.2415L18.6933 14.5037ZM18.6347 14.493L18.7693 13.7551L18.7693 13.7551L18.6347 14.493ZM18.6347 9.50703L18.7693 10.2449L18.7693 10.2449L18.6347 9.50703ZM18.6933 9.49635L18.5588 8.75851L18.5588 8.75851L18.6933 9.49635ZM21 10.4873C21.3795 10.6533 21.8217 10.4802 21.9877 10.1007C22.1537 9.72124 21.9807 9.27902 21.6012 9.11302L21 10.4873ZM21.6012 14.887C21.9807 14.721 22.1537 14.2788 21.9877 13.8993C21.8217 13.5198 21.3795 13.3467 21 13.5127L21.6012 14.887ZM16.5782 12.6282L15.857 12.8342L16.5782 12.6282ZM16.5782 11.3718L17.2993 11.5778L16.5782 11.3718ZM8.59281 4.17386L9.04668 4.07329L8.72218 2.60881L8.2683 2.70938L8.59281 4.17386ZM14.9533 4.07329L15.4072 4.17386L15.7317 2.70938L15.2778 2.60881L14.9533 4.07329ZM15.4072 19.8261L14.9533 19.9267L15.2778 21.3912L15.7317 21.2906L15.4072 19.8261ZM9.04668 19.9267L8.59281 19.8261L8.2683 21.2906L8.72218 21.3912L9.04668 19.9267ZM3.61329 14.9705C3.1289 13.0198 3.1289 10.9802 3.61329 9.02949L2.1575 8.668C1.61417 10.8561 1.61417 13.1439 2.1575 15.332L3.61329 14.9705ZM20.3867 9.0295C20.8711 10.9802 20.8711 13.0198 20.3867 14.9705L21.8425 15.332C22.3858 13.1439 22.3858 10.8561 21.8425 8.66801L20.3867 9.0295ZM14.9533 19.9267C13.008 20.3578 10.992 20.3578 9.04668 19.9267L8.72218 21.3912C10.8812 21.8696 13.1188 21.8696 15.2778 21.3912L14.9533 19.9267ZM9.04668 4.07329C10.992 3.64224 13.008 3.64224 14.9533 4.07329L15.2778 2.60881C13.1188 2.1304 10.8812 2.1304 8.72218 2.60881L9.04668 4.07329ZM8.59281 19.8261C6.14627 19.284 4.21736 17.4032 3.61329 14.9705L2.1575 15.332C2.89874 18.3171 5.26576 20.6253 8.2683 21.2906L8.59281 19.8261ZM15.7317 21.2906C18.7342 20.6253 21.1013 18.3171 21.8425 15.332L20.3867 14.9705C19.7826 17.4032 17.8537 19.284 15.4072 19.8261L15.7317 21.2906ZM15.4072 4.17386C17.8537 4.71598 19.7826 6.5968 20.3867 9.0295L21.8425 8.66801C21.1013 5.68288 18.7342 3.3747 15.7317 2.70938L15.4072 4.17386ZM8.2683 2.70938C5.26576 3.3747 2.89874 5.68288 2.1575 8.668L3.61329 9.02949C4.21736 6.59679 6.14627 4.71598 8.59281 4.17386L8.2683 2.70938ZM18.8279 13.7658L18.7693 13.7551L18.5002 15.2308L18.5588 15.2415L18.8279 13.7658ZM18.7693 10.2449L18.8279 10.2342L18.5588 8.75851L18.5002 8.7692L18.7693 10.2449ZM18.8279 10.2342C19.561 10.1005 20.3173 10.1886 21 10.4873L21.6012 9.11302C20.6449 8.69473 19.5856 8.57129 18.5588 8.75851L18.8279 10.2342ZM18.5588 15.2415C19.5856 15.4287 20.6449 15.3053 21.6012 14.887L21 13.5127C20.3173 13.8114 19.561 13.8995 18.8279 13.7658L18.5588 15.2415ZM17.2993 12.4222C17.2205 12.1463 17.2205 11.8537 17.2993 11.5778L15.857 11.1658C15.7013 11.711 15.7013 12.289 15.857 12.8342L17.2993 12.4222ZM18.5002 8.7692C17.2349 8.99991 16.2103 9.92901 15.857 11.1658L17.2993 11.5778C17.4958 10.8898 18.0657 10.3732 18.7693 10.2449L18.5002 8.7692ZM18.7693 13.7551C18.0657 13.6268 17.4958 13.1102 17.2993 12.4222L15.857 12.8342C16.2103 14.071 17.2349 15.0001 18.5002 15.2308L18.7693 13.7551Z" fill="black"/>
</svg>
