<svg width="44" height="44" viewBox="0 0 44 44" fill="none" xmlns="http://www.w3.org/2000/svg">
<path d="M8.25 35.75C7.87033 35.75 7.5625 35.4422 7.5625 35.0625V30.25C7.5625 29.8703 7.87033 29.5625 8.25 29.5625C8.62967 29.5625 8.9375 29.8703 8.9375 30.25V35.0625C8.9375 35.4422 8.62967 35.75 8.25 35.75Z" fill="#23408F"/>
<path d="M6.63781 26.4709C8.15659 27.5731 8.25 30.0417 8.25 30.0417C8.25 30.0417 5.88096 30.7232 4.36219 29.6209C2.84341 28.5187 2.75 26.0501 2.75 26.0501C2.75 26.0501 5.11904 25.3687 6.63781 26.4709Z" fill="#23408F"/>
<path d="M9.86219 26.4709C8.34341 27.5731 8.25 30.0417 8.25 30.0417C8.25 30.0417 10.619 30.7232 12.1378 29.6209C13.6566 28.5187 13.75 26.0501 13.75 26.0501C13.75 26.0501 11.381 25.3687 9.86219 26.4709Z" fill="#23408F"/>
<path d="M35.75 35.75C35.3703 35.75 35.0625 35.4422 35.0625 35.0625V30.25C35.0625 29.8703 35.3703 29.5625 35.75 29.5625C36.1297 29.5625 36.4375 29.8703 36.4375 30.25V35.0625C36.4375 35.4422 36.1297 35.75 35.75 35.75Z" fill="#23408F"/>
<path d="M37.3622 26.4709C35.8434 27.5731 35.75 30.0417 35.75 30.0417C35.75 30.0417 38.119 30.7232 39.6378 29.6209C41.1566 28.5187 41.25 26.0501 41.25 26.0501C41.25 26.0501 38.881 25.3687 37.3622 26.4709Z" fill="#23408F"/>
<path d="M34.1378 26.4709C35.6566 27.5731 35.75 30.0417 35.75 30.0417C35.75 30.0417 33.381 30.7232 31.8622 29.6209C30.3434 28.5187 30.25 26.0501 30.25 26.0501C30.25 26.0501 32.619 25.3687 34.1378 26.4709Z" fill="#23408F"/>
<path d="M22 35.75C21.6203 35.75 21.3125 35.4422 21.3125 35.0625V27.0957C21.3125 26.716 21.6203 26.4082 22 26.4082C22.3797 26.4082 22.6875 26.716 22.6875 27.0957V35.0625C22.6875 35.4422 22.3797 35.75 22 35.75Z" fill="#23408F"/>
<path d="M20.3878 23.3166C21.9066 24.4188 22 26.8874 22 26.8874C22 26.8874 19.631 27.5688 18.1122 26.4666C16.5934 25.3644 16.5 22.8958 16.5 22.8958C16.5 22.8958 18.869 22.2143 20.3878 23.3166Z" fill="#23408F"/>
<path d="M23.6122 23.3166C22.0934 24.4188 22 26.8874 22 26.8874C22 26.8874 24.369 27.5688 25.8878 26.4666C27.4066 25.3644 27.5 22.8958 27.5 22.8958C27.5 22.8958 25.131 22.2143 23.6122 23.3166Z" fill="#23408F"/>
<path d="M40.3906 41.9375H3.60938C3.13474 41.9375 2.75 41.5528 2.75 41.0781V36.4375H41.25V41.0781C41.25 41.5528 40.8653 41.9375 40.3906 41.9375Z" fill="#FAD74B"/>
<path d="M41.0781 37.125H2.92188C2.44724 37.125 2.0625 36.7403 2.0625 36.2656V35.2344C2.0625 34.7597 2.44724 34.375 2.92188 34.375H41.0781C41.5528 34.375 41.9375 34.7597 41.9375 35.2344V36.2656C41.9375 36.7403 41.5528 37.125 41.0781 37.125Z" fill="#E3B151"/>
<path d="M22.7949 18.5627C22.6834 18.5627 22.5703 18.5354 22.4655 18.4782C22.1324 18.2959 22.0102 17.8782 22.1924 17.5451C22.5656 16.8631 23.0263 16.3445 23.5619 16.0036L23.6932 15.92C24.0134 15.7161 24.4384 15.8105 24.6423 16.1309C24.8462 16.4513 24.7518 16.8761 24.4314 17.08L24.3001 17.1636C23.9672 17.3755 23.6555 17.7356 23.3986 18.205C23.2738 18.4333 23.0381 18.5627 22.7949 18.5627Z" fill="#23408F"/>
<path d="M22 22C21.6203 22 21.3125 21.6922 21.3125 21.3125C21.3125 20.8091 21.3534 20.3084 21.4341 19.8245C21.4966 19.45 21.851 19.196 22.2253 19.2595C22.5998 19.3219 22.8528 19.6762 22.7904 20.0506C22.7221 20.46 22.6875 20.8846 22.6875 21.3125C22.6875 21.6922 22.3797 22 22 22Z" fill="#23408F"/>
<path d="M29.562 15.2569C29.4591 15.2569 29.3547 15.2337 29.2564 15.1848C28.8388 14.9772 28.4016 14.7916 27.9568 14.6332C27.5991 14.5058 27.4124 14.1126 27.5398 13.7549C27.6671 13.3971 28.0607 13.2105 28.4181 13.3378C28.9142 13.5145 29.4022 13.7216 29.8685 13.9536C30.2085 14.1226 30.347 14.5354 30.178 14.8754C30.0579 15.117 29.8147 15.2569 29.562 15.2569Z" fill="#23408F"/>
<path d="M33.0397 17.875C32.8522 17.875 32.6654 17.7987 32.5296 17.6486C32.127 17.2036 31.6798 16.7871 31.2005 16.4107C30.9019 16.1762 30.8498 15.7441 31.0843 15.4455C31.3188 15.1467 31.7509 15.0949 32.0496 15.3293C32.5901 15.7536 33.0947 16.2236 33.5494 16.7264C33.8041 17.0079 33.7823 17.4426 33.5008 17.6974C33.3692 17.8163 33.2042 17.875 33.0397 17.875Z" fill="#23408F"/>
<path d="M35.1343 21.3127C34.8545 21.3127 34.5916 21.1406 34.4892 20.8628C34.299 20.3469 34.0606 19.8407 33.7805 19.3582C33.5899 19.0298 33.7016 18.6091 34.0299 18.4184C34.3583 18.2278 34.779 18.3395 34.9696 18.6678C35.2894 19.2186 35.5618 19.7972 35.7793 20.3872C35.9107 20.7435 35.7283 21.1387 35.372 21.27C35.2935 21.299 35.2132 21.3127 35.1343 21.3127Z" fill="#23408F"/>
<path d="M35.75 24.75C35.3703 24.75 35.0625 24.4422 35.0625 24.0625C35.0625 23.6355 35.0324 23.2051 34.9731 22.7832C34.9202 22.4072 35.1822 22.0596 35.5581 22.0067C35.9338 21.9533 36.2818 22.2158 36.3347 22.5918C36.4029 23.0769 36.4375 23.5717 36.4375 24.0625C36.4375 24.4422 36.1296 24.75 35.75 24.75Z" fill="#23408F"/>
<path d="M16.4997 17.3065C16.2051 17.3065 15.9327 17.1157 15.8423 16.8193C15.7316 16.4561 15.9363 16.0719 16.2994 15.9613C16.7556 15.8222 17.2308 15.6922 17.7121 15.5748C18.0808 15.4847 18.4529 15.7109 18.5428 16.0798C18.6328 16.4487 18.4067 16.8207 18.0379 16.9107C17.5818 17.0219 17.1318 17.145 16.7005 17.2765C16.6337 17.2968 16.5661 17.3065 16.4997 17.3065Z" fill="#23408F"/>
<path d="M13.063 18.6936C12.8156 18.6936 12.5766 18.5597 12.4536 18.3255C12.2772 17.9892 12.4067 17.5737 12.743 17.3972C13.1932 17.1609 13.6738 16.9352 14.1712 16.7262C14.5212 16.5792 14.9242 16.7437 15.0713 17.0938C15.2183 17.4438 15.0537 17.8469 14.7036 17.9939C14.2422 18.1877 13.7976 18.3966 13.3819 18.6147C13.2799 18.6682 13.1707 18.6936 13.063 18.6936Z" fill="#23408F"/>
<path d="M9.63537 21.3125C9.47888 21.3125 9.32153 21.2594 9.19254 21.1506C8.90233 20.9058 8.86537 20.472 9.11021 20.1818C9.52099 19.6947 10.014 19.2241 10.5756 18.7833C10.8743 18.5489 11.3064 18.6009 11.5409 18.8996C11.7754 19.1983 11.7233 19.6305 11.4246 19.8649C10.9367 20.2478 10.5117 20.6528 10.1613 21.0683C10.0253 21.2294 9.83097 21.3125 9.63537 21.3125Z" fill="#23408F"/>
<path d="M8.25 24.75C7.87033 24.75 7.5625 24.4422 7.5625 24.0625C7.5625 23.5329 7.64483 23.0012 7.80716 22.4823C7.92052 22.1199 8.30629 21.9184 8.66852 22.0313C9.03092 22.1446 9.23278 22.5303 9.11952 22.8926C8.99869 23.2787 8.9375 23.6723 8.9375 24.0625C8.9375 24.4422 8.62967 24.75 8.25 24.75Z" fill="#23408F"/>
<path d="M22.2549 11.4125L21.3355 9.69907L14.1577 9.68884L12.9668 13.6382L22.2549 11.4125Z" fill="#FF4444"/>
<path d="M6.38444 12.3408C6.28553 12.3408 6.18662 12.3195 6.09484 12.2769L2.27036 10.5007C1.65084 10.213 1.2899 9.54036 1.39259 8.86515L1.8778 5.67583C1.94526 5.23231 2.20152 4.84044 2.58077 4.60084C2.96018 4.36125 3.42424 4.29791 3.85367 4.42751L8.17074 5.72929C8.34537 5.78188 8.4918 5.90176 8.57809 6.06238C8.66428 6.22308 8.68319 6.41146 8.63051 6.586L7.04255 11.8517C6.98506 12.0426 6.84748 12.199 6.66563 12.2806C6.57626 12.3207 6.48035 12.3408 6.38444 12.3408ZM3.40594 5.73616C3.36761 5.73616 3.33667 5.74957 3.31527 5.76315C3.28502 5.78222 3.24695 5.81849 3.23724 5.88251L2.75204 9.07183C2.74061 9.14685 2.78066 9.22153 2.84958 9.2535L5.95519 10.6958L7.1156 6.84725L3.45681 5.7439C3.43868 5.7384 3.42166 5.73616 3.40594 5.73616Z" fill="#5B262F"/>
<path d="M4.52431 11.8105L13.1133 14.4005C13.6217 14.5539 14.1461 14.214 14.2139 13.6873L15.0573 7.11984C15.1109 6.70313 14.8553 6.30884 14.4531 6.18759L7.94832 4.22606C7.54613 4.10481 7.11516 4.29206 6.92945 4.66881L4.00156 10.6077C3.76677 11.084 4.01582 11.6571 4.52431 11.8105Z" fill="#FF4444"/>
<path d="M23.9275 9.09141L20.773 9.1825L19.979 11.8154L22.5572 13.6352C23.0364 13.9734 23.7062 13.7428 23.8756 13.1812L24.775 10.1985C24.9444 9.63694 24.5137 9.07448 23.9275 9.09141Z" fill="#FF4444"/>
<path d="M7.03199 4.6677L14.9727 7.06226C15.3246 7.16839 15.6959 6.96911 15.8021 6.61719L16.2117 5.25869C16.3179 4.90678 16.1186 4.53544 15.7667 4.42931L7.82588 2.03484C7.47396 1.9287 7.10263 2.12799 6.99649 2.47991L6.58683 3.83841C6.48078 4.19032 6.68007 4.56165 7.03199 4.6677Z" fill="#FF4444"/>
</svg>
