<svg width="80" height="80" viewBox="0 0 80 80" fill="none" xmlns="http://www.w3.org/2000/svg">
<path d="M52.4269 54.4269C67.3832 51.6031 58.9938 34.2919 58.9938 34.2919L58.9825 27.9281C59.44 4.58564 46.095 6.57751 46.095 6.57751C46.095 6.57751 43.1875 3.25564 36.3788 4.07064C29.57 4.88564 21.0075 9.78189 21.0969 23.8206C21.1075 25.4238 21.0732 26.7738 21.0063 27.9281V34.2919C21.0063 34.2919 12.6169 51.6044 27.5732 54.4269H52.4269Z" fill="#763E1D"/>
<path d="M68.7501 63.8894C68.5724 62.2194 67.8815 60.6455 66.7726 59.3842C65.6636 58.1229 64.1911 57.2363 62.5576 56.8463L47.4507 53.2381L46.8519 46.1931C45.8709 46.9133 44.8336 47.5535 43.7501 48.1075C42.5896 48.6997 41.3054 49.0085 40.0026 49.0085C38.6998 49.0085 37.4155 48.6997 36.2551 48.1075C35.1717 47.5536 34.1346 46.9134 33.1538 46.1931H33.1507L32.552 53.2381L17.442 56.8463C15.8085 57.2364 14.3361 58.1231 13.2273 59.3843C12.1185 60.6456 11.4277 62.2195 11.2501 63.8894L9.95508 76.0581H70.0463L68.7501 63.8894Z" fill="#6E5A64"/>
<path d="M30.0508 53.835L32.077 76.0581H47.9233L49.9495 53.835L47.4508 53.2381H32.5495L30.0508 53.835Z" fill="#EDEBED"/>
<path d="M47.4506 53.2381L40 59.3125L45.305 66.8463L49.4906 58.8681L49.9494 53.835L47.4506 53.2381Z" fill="#DBD9DC"/>
<path d="M32.5495 53.2381L40.0002 59.3125L34.6952 66.8463L30.5095 58.8681L30.0508 53.835L32.5495 53.2381Z" fill="#DBD9DC"/>
<path d="M53.9443 76.0581L57.5681 64.9469L54.5381 54.9313L49.9493 53.835L47.9231 76.0581H53.9443Z" fill="#64505A"/>
<path d="M26.0556 76.0581L22.4319 64.9469L25.4619 54.9313L30.0506 53.835L32.0769 76.0581H26.0556Z" fill="#64505A"/>
<path d="M46.8495 46.1931C45.8692 46.9132 44.8328 47.5533 43.7501 48.1075C42.5897 48.6997 41.3054 49.0085 40.0026 49.0085C38.6998 49.0085 37.4156 48.6997 36.2551 48.1075C35.1717 47.5536 34.1346 46.9134 33.1539 46.1931H33.1508L32.552 53.2381L40.0001 59.3125L47.4507 53.2381L46.852 46.1931H46.8495Z" fill="#FEB983"/>
<path d="M24.5257 27.995C24.5257 27.995 21.0307 26.3188 19.8551 29.41C18.9476 31.7975 20.5345 36.3663 25.547 35.4063H54.4532C59.4657 36.3663 61.0526 31.7975 60.1451 29.41C58.9695 26.3188 55.4745 27.995 55.4745 27.995H24.5257Z" fill="#FEB983"/>
<path d="M55.4744 27.995C55.4744 27.995 52.745 26.0625 51.1775 20.755C49.6681 15.6481 44.5919 17.535 44.5919 17.535C40.2988 13.8056 34.5213 15.9525 31.3844 20.9244C27.9113 26.4281 24.5256 27.995 24.5256 27.995C24.5256 40.165 31.6725 45.7675 36.2525 48.1075C37.4129 48.6997 38.6972 49.0085 40 49.0085C41.3028 49.0085 42.5871 48.6997 43.7475 48.1075C48.3275 45.7675 55.4744 40.165 55.4744 27.995Z" fill="#FCD0A3"/>
<path d="M40.0001 41.3081C38.4179 41.3467 36.8494 41.0053 35.4264 40.3125C35.1738 40.1696 34.9884 39.9323 34.9109 39.6526C34.8333 39.373 34.8701 39.0741 35.0129 38.8215C35.1558 38.569 35.3932 38.3836 35.6728 38.306C35.9524 38.2285 36.2513 38.2652 36.5039 38.4081C37.6 38.9082 38.7957 39.1518 40.0001 39.1206C41.2072 39.1519 42.4055 38.9067 43.5033 38.4037C43.7564 38.2618 44.0555 38.2262 44.3349 38.3047C44.6143 38.3833 44.851 38.5697 44.9929 38.8228C45.1349 39.0759 45.1705 39.3751 45.0919 39.6544C45.0133 39.9338 44.827 40.1705 44.5739 40.3125C43.1508 41.0053 41.5824 41.3467 40.0001 41.3081Z" fill="#763E1D"/>
<path d="M36.3844 27.4713C36.1195 27.4713 35.8637 27.3751 35.6644 27.2006C35.134 26.8718 34.5223 26.6975 33.8982 26.6975C33.274 26.6975 32.6623 26.8718 32.1319 27.2006C31.9115 27.3851 31.6278 27.4763 31.3412 27.4549C31.0546 27.4336 30.7876 27.3013 30.5969 27.0863C30.4081 26.873 30.3108 26.594 30.326 26.3096C30.3412 26.0252 30.4677 25.7582 30.6782 25.5663C31.5917 24.8419 32.7337 24.4672 33.8988 24.5094C35.0639 24.4672 36.2059 24.8419 37.1194 25.5663C37.283 25.7147 37.3978 25.9091 37.4487 26.124C37.4996 26.3389 37.4843 26.5642 37.4048 26.7702C37.3252 26.9762 37.1852 27.1533 37.0031 27.2783C36.8209 27.4032 36.6053 27.47 36.3844 27.47V27.4713Z" fill="#763E1D"/>
<path d="M35.4082 30.1294C35.4082 30.4279 35.3196 30.7197 35.1538 30.9679C34.9879 31.2161 34.7522 31.4096 34.4764 31.5238C34.2006 31.6381 33.8971 31.668 33.6043 31.6097C33.3115 31.5515 33.0426 31.4077 32.8315 31.1967C32.6204 30.9856 32.4766 30.7166 32.4184 30.4238C32.3602 30.131 32.3901 29.8276 32.5043 29.5518C32.6185 29.276 32.812 29.0402 33.0602 28.8744C33.3084 28.7085 33.6003 28.62 33.8988 28.62C34.097 28.6199 34.2933 28.6589 34.4765 28.7347C34.6597 28.8105 34.8261 28.9217 34.9663 29.0619C35.1064 29.2021 35.2176 29.3685 35.2934 29.5517C35.3693 29.7348 35.4082 29.9311 35.4082 30.1294Z" fill="#763E1D"/>
<path d="M48.5862 27.4713C48.3213 27.4713 48.0654 27.3751 47.8662 27.2006C47.3358 26.8718 46.724 26.6975 46.0999 26.6975C45.4758 26.6975 44.8641 26.8718 44.3337 27.2006C44.1133 27.385 43.8298 27.4762 43.5433 27.4549C43.2568 27.4335 42.9899 27.3013 42.7993 27.0863C42.6104 26.8731 42.513 26.5941 42.5282 26.3096C42.5434 26.0251 42.67 25.7581 42.8806 25.5663C43.8141 24.88 44.9425 24.5099 46.1012 24.5099C47.2599 24.5099 48.3882 24.88 49.3218 25.5663C49.4854 25.7147 49.6002 25.9092 49.6511 26.1242C49.702 26.3391 49.6867 26.5644 49.6071 26.7705C49.5274 26.9765 49.3873 27.1537 49.2051 27.2785C49.0228 27.4034 48.8071 27.4701 48.5862 27.47V27.4713Z" fill="#763E1D"/>
<path d="M47.6101 30.1294C47.6101 30.4279 47.5215 30.7198 47.3556 30.968C47.1898 31.2162 46.954 31.4097 46.6782 31.5239C46.4023 31.6381 46.0988 31.668 45.806 31.6097C45.5132 31.5514 45.2442 31.4076 45.0332 31.1964C44.8221 30.9853 44.6784 30.7163 44.6202 30.4234C44.5621 30.1306 44.592 29.8271 44.7064 29.5513C44.8207 29.2755 45.0143 29.0398 45.2626 28.8741C45.5109 28.7083 45.8028 28.6199 46.1013 28.62C46.2995 28.62 46.4957 28.659 46.6788 28.7349C46.8619 28.8108 47.0283 28.922 47.1684 29.0621C47.3085 29.2023 47.4196 29.3687 47.4954 29.5518C47.5712 29.7349 47.6101 29.9312 47.6101 30.1294Z" fill="#763E1D"/>
<path d="M40 59.3125L38.9062 60.8656V76.0581H41.0938V60.8656L40 59.3125Z" fill="#DBD9DC"/>
</svg>
