<svg width="44" height="44" viewBox="0 0 44 44" fill="none" xmlns="http://www.w3.org/2000/svg">
<path d="M39.5224 7.06573L39.4907 6.98137L36.2189 10.8589L33.1439 7.78258L37.0198 4.50939L36.9355 4.4778C34.0131 3.38143 30.7173 4.21145 28.6619 6.56138C28.1075 7.19519 27.9679 8.09188 28.3032 8.86442L29.0339 10.5478C29.3629 11.3058 29.1954 12.188 28.6114 12.7724L12.6954 28.6679C11.7428 29.621 10.4404 30.1461 9.09377 30.1045C7.77888 30.0638 6.4511 30.5451 5.44738 31.5492C3.46266 33.5348 3.5191 36.7891 5.61671 38.7026C7.46315 40.3868 10.2352 40.438 12.1373 38.8168C13.3447 37.7876 13.9253 36.3312 13.8802 34.8906C13.8379 33.5443 14.3641 32.2423 15.3162 31.2898L31.2322 15.3943C31.8164 14.8096 32.6985 14.6418 33.4565 14.9711L35.1376 15.7016C35.9098 16.0371 36.8061 15.8974 37.4398 15.3427C39.7887 13.2866 40.6183 9.98945 39.5224 7.06573ZM11.7738 35.1318C11.4646 35.2788 11.3993 35.6907 11.648 35.9261C12.001 36.2601 11.7012 36.8486 11.2237 36.7593C10.8871 36.6964 10.5924 36.9913 10.6553 37.328C10.7445 37.8058 10.1563 38.1056 9.82244 37.7526C9.58709 37.5037 9.17539 37.569 9.02845 37.8784C8.81997 38.3174 8.16797 38.2141 8.10527 37.7321C8.0611 37.3924 7.6897 37.2031 7.38902 37.367C6.96241 37.5995 6.49565 37.1326 6.72807 36.7058C6.89192 36.405 6.70266 36.0334 6.36315 35.9892C5.88133 35.9265 5.77809 35.2742 6.2169 35.0657C6.52615 34.9187 6.5914 34.5068 6.34269 34.2713C5.98974 33.9373 6.28949 33.3489 6.76706 33.4382C7.10364 33.5011 7.39837 33.2062 7.33544 32.8695C7.24618 32.3918 7.8344 32.092 8.16827 32.445C8.40363 32.6938 8.81533 32.6286 8.96227 32.3192C9.17075 31.8802 9.82275 31.9834 9.88545 32.4655C9.92962 32.8051 10.301 32.9944 10.6017 32.8305C11.0283 32.598 11.4951 33.065 11.2627 33.4918C11.0988 33.7926 11.2881 34.1641 11.6276 34.2083C12.1093 34.2709 12.2126 34.9232 11.7738 35.1318Z" fill="#23408F"/>
<path d="M13.6557 6.63335L13.5051 6.48276C11.9153 4.89309 9.7593 4 7.51116 4L7.07226 4.43891L9.70561 7.07226L7.07226 9.70561L4.43891 7.07226L4 7.51116C4 9.7593 4.89309 11.9154 6.48276 13.5051L6.63335 13.6557C8.81166 13.1111 11.116 13.7493 12.7037 15.3371L28.6629 31.2963C30.2507 32.884 30.8889 35.1883 30.3443 37.3666L30.4949 37.5172C32.0846 39.1069 34.2407 40 36.4888 40L36.9277 39.5611L34.2944 36.9277L36.9277 34.2944L39.5611 36.9277L40 36.4888C40 34.2407 39.1069 32.0846 37.5172 30.4949L37.3666 30.3443C35.1883 30.8889 32.884 30.2507 31.2963 28.6629L15.3371 12.7037C13.7493 11.116 13.1111 8.81166 13.6557 6.63335Z" fill="#FF4444"/>
</svg>
